SplineFontDB: 3.0
FontName: Vazir-Thin
FullName: Vazir Thin
FamilyName: Vazir
Weight: Thin
Copyright: Copyright (c) 2003 by Bitstream, Inc. All Rights Reserved.\nDejaVu changes are in public domain\nChanges by Saber Rastikerdar are in public domain.\nNon-Arabic(Latin) glyphs and data in extended version are imported from Roboto font under the Apache License, Version 2.0.
Version: 18.0.0
ItalicAngle: 0
UnderlinePosition: -500
UnderlineWidth: 100
Ascent: 1638
Descent: 410
InvalidEm: 0
LayerCount: 2
Layer: 0 1 "Back" 1
Layer: 1 1 "Fore" 0
PreferredKerning: 4
XUID: [1021 502 1027637223 9123680]
UniqueID: 4097812
UseUniqueID: 1
FSType: 0
OS2Version: 1
OS2_WeightWidthSlopeOnly: 0
OS2_UseTypoMetrics: 1
CreationTime: 1431850356
ModificationTime: 1518511135
PfmFamily: 33
TTFWeight: 100
TTFWidth: 5
LineGap: 0
VLineGap: 0
Panose: 2 11 6 3 3 8 4 2 2 4
OS2TypoAscent: 2100
OS2TypoAOffset: 0
OS2TypoDescent: -1100
OS2TypoDOffset: 0
OS2TypoLinegap: 0
OS2WinAscent: 2100
OS2WinAOffset: 0
OS2WinDescent: 1100
OS2WinDOffset: 0
HheadAscent: 2100
HheadAOffset: 0
HheadDescent: -1100
HheadDOffset: 0
OS2SubXSize: 1331
OS2SubYSize: 1433
OS2SubXOff: 0
OS2SubYOff: 286
OS2SupXSize: 1331
OS2SupYSize: 1433
OS2SupXOff: 0
OS2SupYOff: 983
OS2StrikeYSize: 102
OS2StrikeYPos: 530
OS2CapHeight: 1638
OS2XHeight: 1082
OS2Vendor: '    '
OS2CodePages: 00000041.20080000
OS2UnicodeRanges: 80002003.80000000.00000008.00000000
Lookup: 1 9 0 "'fina' Terminal Forms in Arabic lookup 9" { "'fina' Terminal Forms in Arabic lookup 9 subtable"  } ['fina' ('arab' <'KUR ' 'SND ' 'URD ' 'dflt' > ) ]
Lookup: 1 9 0 "'medi' Medial Forms in Arabic lookup 11" { "'medi' Medial Forms in Arabic lookup 11 subtable"  } ['medi' ('arab' <'KUR ' 'SND ' 'URD ' 'dflt' > ) ]
Lookup: 1 9 0 "'init' Initial Forms in Arabic lookup 13" { "'init' Initial Forms in Arabic lookup 13 subtable"  } ['init' ('arab' <'KUR ' 'SND ' 'URD ' 'dflt' > ) ]

StartChar: exclam
Encoding: 33 33 1
GlifName: exclam
Width: 641
VWidth: 2764
GlyphClass: 2
Flags: W
LayerCount: 2
Fore
SplineSet
215.091796875 140.493164062 m 0,0,1
 215.091796875 183.94154082 215.091796875 183.94154082 245.961511507 214.810495264 c 0,2,3
 276.829943567 245.6796875 276.829943567 245.6796875 320.278320312 245.6796875 c 0,4,5
 363.72767362 245.6796875 363.72767362 245.6796875 394.596105674 214.81049527 c 0,6,7
 425.463867188 183.941973579 425.463867188 183.941973579 425.463867188 140.493164062 c 0,8,9
 425.463867188 97.0443545455 425.463867188 97.0443545455 394.59610568 66.1758328608 c 0,10,11
 363.72767362 35.306640625 363.72767362 35.306640625 320.278320312 35.306640625 c 0,12,13
 312.400893865 35.306640625 312.400893865 35.306640625 305.146808018 36.2224490811 c 0,14,15
 297.892722171 37.1382575372 297.892722171 37.1382575372 291.146741789 38.9766404122 c 0,16,17
 284.400761406 40.8150232872 284.400761406 40.8150232872 278.068740519 43.6273500709 c 0,18,19
 271.736719632 46.4396768545 271.736719632 46.4396768545 265.799850256 50.1830722942 c 0,20,21
 259.86298088 53.9264677338 259.86298088 53.9264677338 254.130689895 58.7019425347 c 0,22,23
 232.385248362 76.8174643979 232.385248362 76.8174643979 222.692851159 100.16794877 c 0,24,25
 215.091796875 118.478454132 215.091796875 118.478454132 215.091796875 140.493164062 c 0,0,1
243.978271401 1377.07128906 m 1,26,-1
 399.834499891 1377.07128906 l 1,27,-1
 376.852874976 479.32421875 l 1,28,-1
 268.106872179 479.32421875 l 1,29,-1
 243.978271401 1377.07128906 l 1,26,-1
EndSplineSet
EndChar

StartChar: period
Encoding: 46 46 2
GlifName: period
Width: 641
VWidth: 2764
GlyphClass: 2
Flags: W
LayerCount: 2
Fore
SplineSet
215.091796875 140.493164062 m 0,0,1
 215.091796875 183.94154082 215.091796875 183.94154082 245.961511507 214.810495264 c 128,-1,2
 276.829943567 245.6796875 276.829943567 245.6796875 320.278320312 245.6796875 c 128,-1,3
 363.72767362 245.6796875 363.72767362 245.6796875 394.596105674 214.81049527 c 128,-1,4
 425.463867188 183.941973579 425.463867188 183.941973579 425.463867188 140.493164062 c 128,-1,5
 425.463867188 97.0443545455 425.463867188 97.0443545455 394.59610568 66.1758328608 c 128,-1,6
 363.72767362 35.306640625 363.72767362 35.306640625 320.278320312 35.306640625 c 0,7,8
 312.400893865 35.306640625 312.400893865 35.306640625 305.146808018 36.2224490811 c 128,-1,9
 297.892722171 37.1382575372 297.892722171 37.1382575372 291.146741789 38.9766404122 c 128,-1,10
 284.400761406 40.8150232872 284.400761406 40.8150232872 278.068740519 43.6273500709 c 128,-1,11
 271.736719632 46.4396768545 271.736719632 46.4396768545 265.799850256 50.1830722942 c 128,-1,12
 259.86298088 53.9264677338 259.86298088 53.9264677338 254.130689895 58.7019425347 c 0,13,14
 232.385248362 76.8174643979 232.385248362 76.8174643979 222.692851159 100.16794877 c 0,15,16
 215.091796875 118.478454132 215.091796875 118.478454132 215.091796875 140.493164062 c 0,0,1
EndSplineSet
EndChar

StartChar: colon
Encoding: 58 58 3
GlifName: colon
Width: 641
VWidth: 2764
GlyphClass: 2
Flags: W
LayerCount: 2
Fore
SplineSet
215.091796875 1010.49316406 m 0,0,1
 215.091796875 1053.94154082 215.091796875 1053.94154082 245.961511507 1084.81049526 c 0,2,3
 261.851735172 1100.70111025 261.851735172 1100.70111025 279.894053932 1108.19039887 c 128,-1,4
 297.936372692 1115.6796875 297.936372692 1115.6796875 320.278320312 1115.6796875 c 0,5,6
 363.72767362 1115.6796875 363.72767362 1115.6796875 394.596105673 1084.81049527 c 128,-1,7
 425.463867188 1053.94197358 425.463867188 1053.94197358 425.463867188 1010.49316406 c 0,8,9
 425.463867188 988.148818079 425.463867188 988.148818079 417.974234806 970.106769484 c 128,-1,10
 410.484602424 952.064720889 410.484602424 952.064720889 394.59610568 936.175832861 c 0,11,12
 363.72767362 905.306640625 363.72767362 905.306640625 320.278320312 905.306640625 c 0,13,14
 282.213484554 905.306640625 282.213484554 905.306640625 254.130689895 928.701942535 c 0,15,16
 246.67733662 934.911123617 246.67733662 934.911123617 240.726607847 941.606225529 c 128,-1,17
 234.775879075 948.30132744 234.775879075 948.30132744 230.343719227 955.35745507 c 128,-1,18
 225.91155938 962.413582699 225.91155938 962.413582699 222.692851159 970.16794877 c 0,19,20
 215.091796875 988.478454132 215.091796875 988.478454132 215.091796875 1010.49316406 c 0,0,1
215.091796875 140.493164062 m 0,21,22
 215.091796875 183.94154082 215.091796875 183.94154082 245.961511507 214.810495264 c 128,-1,23
 276.829943567 245.6796875 276.829943567 245.6796875 320.278320312 245.6796875 c 128,-1,24
 363.72767362 245.6796875 363.72767362 245.6796875 394.596105674 214.81049527 c 128,-1,25
 425.463867188 183.941973579 425.463867188 183.941973579 425.463867188 140.493164062 c 128,-1,26
 425.463867188 97.0443545455 425.463867188 97.0443545455 394.59610568 66.1758328608 c 128,-1,27
 363.72767362 35.306640625 363.72767362 35.306640625 320.278320312 35.306640625 c 0,28,29
 312.400893865 35.306640625 312.400893865 35.306640625 305.146808018 36.2224490811 c 128,-1,30
 297.892722171 37.1382575372 297.892722171 37.1382575372 291.146741789 38.9766404122 c 128,-1,31
 284.400761406 40.8150232872 284.400761406 40.8150232872 278.068740519 43.6273500709 c 128,-1,32
 271.736719632 46.4396768545 271.736719632 46.4396768545 265.799850256 50.1830722942 c 128,-1,33
 259.86298088 53.9264677338 259.86298088 53.9264677338 254.130689895 58.7019425347 c 0,34,35
 232.385248362 76.8174643979 232.385248362 76.8174643979 222.692851159 100.16794877 c 0,36,37
 215.091796875 118.478454132 215.091796875 118.478454132 215.091796875 140.493164062 c 0,21,22
EndSplineSet
EndChar

StartChar: afii57388
Encoding: 1548 1548 5
GlifName: afii57388
Width: 739
VWidth: 2772
GlyphClass: 2
Flags: W
LayerCount: 2
Fore
SplineSet
264.910637075 284.082651121 m 0,0,1
 307.841957006 496.571002293 307.841957006 496.571002293 467.365692841 633.966496181 c 1,2,3
 340.587549519 493.420020635 340.587549519 493.420020635 326.067386861 291.349380759 c 2,4,-1
 323.725590812 258.759647625 l 1,5,-1
 356.396358593 259.201967824 l 2,6,7
 470.732674817 260.749934573 470.732674817 260.749934573 495.831417445 211.428529251 c 0,8,9
 511.830053453 179.28769214 511.830053453 179.28769214 511.092323882 148.585517716 c 0,10,11
 510.208059667 89.6886383177 510.208059667 89.6886383177 483.746492647 64.3178153633 c 128,-1,12
 457.284925628 38.9469924089 457.284925628 38.9469924089 395.927557331 38.9071858777 c 0,13,14
 370.73522181 38.8018625783 370.73522181 38.8018625783 350.135348973 42.8601864058 c 0,15,16
 286.295285382 55.4371403164 286.295285382 55.4371403164 264.017436633 111.934799505 c 128,-1,17
 241.739587883 168.432458694 241.739587883 168.432458694 264.910637075 284.082651121 c 0,0,1
EndSplineSet
EndChar

StartChar: uni0615
Encoding: 1557 1557 6
GlifName: uni0615
Width: -29
VWidth: 2714
GlyphClass: 4
Flags: W
AnchorPoint: "Anchor-10" 658.199 1624.46 mark 0
AnchorPoint: "Anchor-9" 658.199 1624.46 mark 0
AnchorPoint: "Anchor-1" 672.366 2447.86 basemark 0
AnchorPoint: "Anchor-1" 658.199 1624.46 mark 0
LayerCount: 2
Fore
SplineSet
912.769755624 1920.01350395 m 0,0,1
 912.769755624 1994.96856117 912.769755624 1994.96856117 836.782727051 1994.96856117 c 4,2,3
 730.412315598 1994.96856117 730.412315598 1994.96856117 541.2421875 1790.00390625 c 1,4,-1
 677.703125 1790.00390625 l 2,5,6
 781.798204784 1790.00390625 781.798204784 1790.00390625 845.899102392 1824.50195312 c 0,7,8
 912.769755624 1860.49063684 912.769755624 1860.49063684 912.769755624 1920.01350395 c 0,0,1
991.1328125 1928.79980469 m 0,9,10
 991.00004589 1714.07421875 991.00004589 1714.07421875 668.384765625 1714.07421875 c 2,11,-1
 354.936523438 1714.07421875 l 1,12,-1
 354.936523438 1790.00390625 l 1,13,-1
 462.987304688 1790.00390625 l 1,14,-1
 462.987304688 2322.15039062 l 1,15,-1
 540.234375 2321.18359375 l 1,16,-1
 539.275390625 1893.90234375 l 1,17,18
 703.078829305 2080.07964876 703.078829305 2080.07964876 840.555998274 2080.07964876 c 4,19,20
 990.947121021 2080.07964876 990.947121021 2080.07964876 991.1328125 1928.79980469 c 0,9,10
EndSplineSet
EndChar

StartChar: uni061B
Encoding: 1563 1563 7
GlifName: uni061B_
Width: 739
VWidth: 2772
GlyphClass: 2
Flags: W
LayerCount: 2
Fore
SplineSet
292.091796875 140.493164062 m 0,0,1
 292.091796875 183.94154082 292.091796875 183.94154082 322.961511507 214.810495264 c 128,-1,2
 353.829943567 245.6796875 353.829943567 245.6796875 397.278320312 245.6796875 c 128,-1,3
 440.72767362 245.6796875 440.72767362 245.6796875 471.596105674 214.81049527 c 128,-1,4
 502.463867188 183.941973579 502.463867188 183.941973579 502.463867188 140.493164062 c 128,-1,5
 502.463867188 97.0443545455 502.463867188 97.0443545455 471.59610568 66.1758328608 c 128,-1,6
 440.72767362 35.306640625 440.72767362 35.306640625 397.278320312 35.306640625 c 0,7,8
 377.694340471 35.306640625 377.694340471 35.306640625 361.57452748 41.0377401022 c 128,-1,9
 345.454714489 46.7688395795 345.454714489 46.7688395795 331.130689895 58.7019425347 c 0,10,11
 309.385248362 76.8174643979 309.385248362 76.8174643979 299.692851159 100.16794877 c 0,12,13
 295.906486782 109.28908416 295.906486782 109.28908416 293.999141828 119.281198249 c 128,-1,14
 292.091796875 129.273312338 292.091796875 129.273312338 292.091796875 140.493164062 c 0,0,1
264.910637075 724.082651121 m 0,15,16
 307.841957006 936.571002293 307.841957006 936.571002293 467.365692842 1073.96649618 c 1,17,18
 340.587549519 933.420020634 340.587549519 933.420020634 326.067386861 731.349380759 c 2,19,-1
 323.725590812 698.759647625 l 1,20,-1
 356.396358593 699.201967824 l 2,21,22
 470.732674817 700.749934573 470.732674817 700.749934573 495.831417445 651.428529251 c 0,23,24
 511.830053453 619.28769214 511.830053453 619.28769214 511.092323882 588.585517716 c 0,25,26
 510.208059667 529.688638318 510.208059667 529.688638318 483.746492647 504.317815363 c 128,-1,27
 457.284925628 478.946992409 457.284925628 478.946992409 395.927557331 478.907185877 c 0,28,29
 389.5127426 478.880367028 389.5127426 478.880367028 383.42028671 479.120941631 c 128,-1,30
 377.327830819 479.361516235 377.327830819 479.361516235 371.616238435 479.864090065 c 128,-1,31
 365.90464605 480.366663894 365.90464605 480.366663894 360.5568732 481.113642305 c 128,-1,32
 355.209100349 481.860620716 355.209100349 481.860620716 350.135348973 482.860186405 c 0,33,34
 286.295285382 495.437140316 286.295285382 495.437140316 264.017436633 551.934799505 c 128,-1,35
 241.739587883 608.432458694 241.739587883 608.432458694 264.910637075 724.082651121 c 0,15,16
EndSplineSet
EndChar

StartChar: uni061F
Encoding: 1567 1567 8
GlifName: uni061F_
Width: 974
VWidth: 2764
GlyphClass: 2
Flags: W
LayerCount: 2
Fore
SplineSet
448.091796875 140.493164062 m 0,0,1
 448.091796875 183.94154082 448.091796875 183.94154082 478.961511507 214.810495264 c 0,2,3
 494.851735172 230.701110247 494.851735172 230.701110247 512.894053932 238.190398873 c 0,4,5
 530.936372692 245.6796875 530.936372692 245.6796875 553.278320312 245.6796875 c 0,6,7
 596.72767362 245.6796875 596.72767362 245.6796875 627.596105674 214.81049527 c 0,8,9
 658.463867188 183.941973579 658.463867188 183.941973579 658.463867188 140.493164062 c 0,10,11
 658.463867188 97.0443545455 658.463867188 97.0443545455 627.59610568 66.1758328608 c 0,12,13
 596.72767362 35.306640625 596.72767362 35.306640625 553.278320312 35.306640625 c 0,14,15
 533.694340471 35.306640625 533.694340471 35.306640625 517.57452748 41.0377401022 c 0,16,17
 501.454714489 46.7688395795 501.454714489 46.7688395795 487.130689895 58.7019425347 c 0,18,19
 465.385248362 76.8174643979 465.385248362 76.8174643979 455.692851159 100.16794877 c 0,20,21
 451.906486782 109.28908416 451.906486782 109.28908416 449.999141828 119.281198249 c 0,22,23
 448.091796875 129.273312338 448.091796875 129.273312338 448.091796875 140.493164062 c 0,0,1
480.279536354 476.330414586 m 1,24,25
 473.9264664 511.054044523 473.9264664 511.054044523 450.279066629 547.909223402 c 0,26,27
 426.631666857 584.764402282 426.631666857 584.764402282 389.569005922 621.431205521 c 0,28,29
 352.506344987 658.09800876 352.506344987 658.09800876 298.032773662 700.793402235 c 0,30,31
 131.269202108 831.399325758 131.269202108 831.399325758 134.993838641 1034.39201678 c 0,32,33
 137.772402526 1171.46783512 137.772402526 1171.46783512 214.495627247 1259.15152051 c 0,34,35
 326.43422916 1384.96680861 326.43422916 1384.96680861 508.82526408 1384.51685764 c 0,36,37
 676.719094093 1383.82314424 676.719094093 1383.82314424 758.797899857 1301.46457753 c 0,38,39
 840.876705622 1219.10601081 840.876705622 1219.10601081 845.732085938 1046.24963098 c 1,40,-1
 745.245593316 1046.24840588 l 1,41,42
 741.624711819 1112.24163688 741.624711819 1112.24163688 713.668247808 1158.23636649 c 0,43,44
 685.711783797 1204.23109611 685.711783797 1204.23109611 636.037752548 1227.58107767 c 0,45,46
 586.363721299 1250.93105923 586.363721299 1250.93105923 517.627491086 1250.89451919 c 0,47,48
 385.922923604 1251.01263693 385.922923604 1251.01263693 321.349850214 1173.21151266 c 0,49,50
 270.065048727 1111.98158666 270.065048727 1111.98158666 269.510977319 1019.11877632 c 0,51,52
 269.225191766 946.936886501 269.225191766 946.936886501 307.345401196 877.202595172 c 0,53,54
 345.465610625 807.468303844 345.465610625 807.468303844 419.410499291 740.52706592 c 0,55,56
 603.462407667 573.29377312 603.462407667 573.29377312 622.963061921 476.33253256 c 1,57,-1
 480.279536354 476.330414586 l 1,24,25
EndSplineSet
EndChar

StartChar: uni0621
Encoding: 1569 1569 9
GlifName: uni0621
Width: 868
VWidth: 2952
GlyphClass: 2
Flags: W
AnchorPoint: "Anchor-7" 471.326 -95.646 basechar 0
AnchorPoint: "Anchor-10" 467.848 1181.06 basechar 0
LayerCount: 2
Fore
SplineSet
147.76953125 62.3591824075 m 1,0,-1
 147.76953125 173.380096647 l 1,1,2
 247.382956284 236.136206964 247.382956284 236.136206964 325.456529234 259.09999097 c 2,3,-1
 396.914857302 280.118032661 l 1,4,-1
 330.836908723 314.494702631 l 2,5,6
 168.0293141 399.194410617 168.0293141 399.194410617 168.256703447 540.515592538 c 0,7,8
 168.602759313 603.554602488 168.602759313 603.554602488 184.834161613 652.804682157 c 128,-1,9
 201.065563914 702.054761826 201.065563914 702.054761826 232.701780041 738.756443224 c 0,10,11
 325.701921417 846.008868958 325.701921417 846.008868958 475.256526 846.105474681 c 0,12,13
 616.964051544 846.016366019 616.964051544 846.016366019 697.008697809 777.858662529 c 1,14,-1
 661.916832387 692.375619764 l 1,15,16
 622.473309748 714.17885661 622.473309748 714.17885661 579.284379845 724.516452818 c 128,-1,17
 536.095449943 734.854049027 536.095449943 734.854049027 486.873268469 734.73602385 c 0,18,19
 387.7499762 733.897438017 387.7499762 733.897438017 328.823451777 676.840398312 c 0,20,21
 315.189241399 663.62511944 315.189241399 663.62511944 304.835220837 648.189503691 c 128,-1,22
 294.481200275 632.753887941 294.481200275 632.753887941 287.634283031 615.586752521 c 128,-1,23
 280.787365787 598.419617102 280.787365787 598.419617102 277.297877563 579.611628296 c 128,-1,24
 273.80838934 560.803639491 273.80838934 560.803639491 273.731275719 540.579120154 c 0,25,26
 274.057150333 430.682350512 274.057150333 430.682350512 464.028274291 344.052764393 c 2,27,-1
 473.226227918 339.858364216 l 1,28,-1
 483.086865247 342.086182711 l 1,29,-1
 704.666235695 392.147715567 l 1,30,-1
 722.50020992 281.512543516 l 1,31,32
 487.416267758 244.549445924 487.416267758 244.549445924 147.76953125 62.3591824075 c 1,0,-1
EndSplineSet
EndChar

StartChar: uni0627
Encoding: 1575 1575 15
GlifName: uni0627
Width: 477
VWidth: 2952
GlyphClass: 2
Flags: W
AnchorPoint: "Anchor-10" 229.871 1543.46 basechar 0
AnchorPoint: "Anchor-7" 233.587 -236.365 basechar 0
LayerCount: 2
Fore
SplineSet
180.890625 1378.15039062 m 1,0,-1
 294.205078125 1378.15039062 l 1,1,-1
 294.205078125 30.751953125 l 1,2,-1
 180.890625 30.751953125 l 1,3,-1
 180.890625 1378.15039062 l 1,0,-1
EndSplineSet
Substitution2: "'fina' Terminal Forms in Arabic lookup 9 subtable" uniFE8E
EndChar

StartChar: uni062D
Encoding: 1581 1581 21
GlifName: uni062D_
Width: 1386
VWidth: 2952
GlyphClass: 2
Flags: W
AnchorPoint: "Anchor-7" 580.833 -810.619 basechar 0
AnchorPoint: "Anchor-10" 649.478 1262.07 basechar 0
LayerCount: 2
Fore
SplineSet
154.987304708 -144.851950345 m 0,0,1
 154.987304708 135.957960969 154.987304708 135.957960969 326.021296549 313.363130624 c 128,-1,2
 497.05528839 490.768300279 497.05528839 490.768300279 847.495496549 568.48799877 c 2,3,-1
 857.495496549 570.705772207 l 1,4,-1
 954.6464056 592.251642755 l 1,5,-1
 861.774868768 627.992394196 l 2,6,7
 858.945258631 629.08134347 858.945258631 629.08134347 855.330557351 630.486854509 c 128,-1,8
 851.715856071 631.892365547 851.715856071 631.892365547 847.31677984 633.614200427 c 128,-1,9
 842.917703609 635.336035306 842.917703609 635.336035306 837.747918518 637.368790104 c 128,-1,10
 832.578133426 639.401544902 832.578133426 639.401544902 826.625229266 641.750202408 c 128,-1,11
 820.672325105 644.098859915 820.672325105 644.098859915 813.96396946 646.752447445 c 128,-1,12
 807.255613815 649.406034975 807.255613815 649.406034975 799.765394982 652.375104081 c 128,-1,13
 792.275176149 655.344173188 792.275176149 655.344173188 784.044763208 658.612182424 c 128,-1,14
 775.814350266 661.88019166 775.814350266 661.88019166 766.803330018 665.46326134 c 128,-1,15
 757.792309769 669.04633102 757.792309769 669.04633102 748.055477695 672.922698983 c 0,16,17
 680.803625653 700.15687828 680.803625653 700.15687828 630.026657429 717.646659511 c 128,-1,18
 579.249689204 735.136440742 579.249689204 735.136440742 538.535106071 744.473100704 c 128,-1,19
 497.820522938 753.809760666 497.820522938 753.809760666 469.528023806 753.687752923 c 0,20,21
 427.545142533 753.804291754 427.545142533 753.804291754 389.701070772 741.863999629 c 128,-1,22
 351.856999012 729.923707504 351.856999012 729.923707504 319.275108995 706.457728821 c 128,-1,23
 286.693218978 682.991750139 286.693218978 682.991750139 259.94175455 648.533895416 c 2,24,-1
 246.931496747 631.77572599 l 1,25,-1
 144.346917741 682.421136162 l 1,26,27
 261.405925788 875.064249624 261.405925788 875.064249624 471.160198282 875.840983806 c 0,28,29
 510.773994552 875.890639367 510.773994552 875.890639367 555.794035492 866.946795355 c 128,-1,30
 600.814076432 858.002951342 600.814076432 858.002951342 652.527288054 839.523249601 c 128,-1,31
 704.240499676 821.04354786 704.240499676 821.04354786 761.850380812 793.060452191 c 0,32,33
 1052.59569329 651.391989715 1052.59569329 651.391989715 1225.75681022 633.031228943 c 1,34,-1
 1216.94420308 515.141986381 l 1,35,36
 1055.92268244 503.792950472 1055.92268244 503.792950472 945.993153523 478.80947015 c 0,37,38
 610.528756135 400.99076743 610.528756135 400.99076743 437.822818739 248.966901261 c 128,-1,39
 265.116881343 96.9430350925 265.116881343 96.9430350925 265.249030281 -129.282471948 c 0,40,41
 265.114686688 -328.187907681 265.114686688 -328.187907681 409.101367603 -428.041292114 c 128,-1,42
 553.088048519 -527.894676547 553.088048519 -527.894676547 826.353764056 -527.7831881 c 0,43,44
 1030.83492908 -527.987839808 1030.83492908 -527.987839808 1221.56973045 -445.172015337 c 1,45,-1
 1245.18289498 -558.999938431 l 1,46,47
 1058.68688072 -643.019793028 1058.68688072 -643.019793028 811.547450043 -643.249029537 c 0,48,49
 434.131648575 -643.008367399 434.131648575 -643.008367399 276.011845807 -471.923347364 c 0,50,51
 154.987304708 -341.229376405 154.987304708 -341.229376405 154.987304708 -144.851950345 c 0,0,1
EndSplineSet
Substitution2: "'fina' Terminal Forms in Arabic lookup 9 subtable" uniFEA2
Substitution2: "'medi' Medial Forms in Arabic lookup 11 subtable" uniFEA4
Substitution2: "'init' Initial Forms in Arabic lookup 13 subtable" uniFEA3
EndChar

StartChar: uni062F
Encoding: 1583 1583 23
GlifName: uni062F_
Width: 974
VWidth: 2952
GlyphClass: 2
Flags: W
AnchorPoint: "Anchor-10" 376.137 1211.03 basechar 0
AnchorPoint: "Anchor-7" 437.24 -239.316 basechar 0
LayerCount: 2
Fore
SplineSet
130.982421875 174.740575569 m 1
 237.854909725 155.012329083 237.854909725 155.012329083 321.65438398 155.107423137 c 0
 722.007590969 154.991294578 722.007590969 154.991294578 721.954100674 366.373559198 c 0
 721.96270894 401.749134599 721.96270894 401.749134599 710.127615091 438.185959425 c 0
 698.292521243 474.62278425 698.292521243 474.62278425 674.778126891 511.706700435 c 0
 651.26373254 548.79061662 651.26373254 548.79061662 617.360029124 586.645689397 c 0
 583.456325707 624.500762174 583.456325707 624.500762174 538.07864423 663.88247238 c 0
 492.700962752 703.264182586 492.700962752 703.264182586 438.471636633 743.048980625 c 0
 384.242310514 782.833778665 384.242310514 782.833778665 318.827600149 824.946784276 c 1
 386.425330933 927.503272939 l 1
 842.038861054 648.409194639 842.038861054 648.409194639 842.479517947 368.935798099 c 0
 842.259076836 200.719027333 842.259076836 200.719027333 719.059677511 116.66926753 c 0
 595.860278185 32.6195077265 595.860278185 32.6195077265 334.749093371 32.2597026827 c 0
 225.347095719 32.0355976773 225.347095719 32.0355976773 130.982421875 50.254616188 c 1
 130.982421875 174.740575569 l 1
EndSplineSet
Substitution2: "'fina' Terminal Forms in Arabic lookup 9 subtable" uniFEAA
EndChar

StartChar: uni0631
Encoding: 1585 1585 25
GlifName: uni0631
Width: 775
VWidth: 2144
GlyphClass: 2
Flags: W
AnchorPoint: "Anchor-10" 467.256 926.2 basechar 0
AnchorPoint: "Anchor-7" 322.969 -667.998 basechar 0
LayerCount: 2
Fore
SplineSet
584.011843839 493.566246397 m 1,0,1
 654.038169385 312.365191639 654.038169385 312.365191639 654.375019727 156.958759983 c 0,2,3
 654.571219281 -14.1251046329 654.571219281 -14.1251046329 590.647290871 -140.178341436 c 128,-1,4
 526.72336246 -266.231578239 526.72336246 -266.231578239 396.440203517 -349.536478216 c 128,-1,5
 266.157044574 -432.841378193 266.157044574 -432.841378193 67.7642497643 -473.722854238 c 1,6,-1
 27.8985793754 -372.265970036 l 1,7,8
 280.367859278 -318.251647453 280.367859278 -318.251647453 411.233952394 -186.391370429 c 128,-1,9
 542.10004551 -54.5310934042 542.10004551 -54.5310934042 543.250519949 152.077644875 c 0,10,11
 543.614223425 217.997121798 543.614223425 217.997121798 526.339235813 293.704866164 c 128,-1,12
 509.064248201 369.41261053 509.064248201 369.41261053 474.823019102 454.410198219 c 1,13,-1
 584.011843839 493.566246397 l 1,0,1
EndSplineSet
PairPos2: "'kern' Horizontal Kerning lookup 15-2" uniFBFE dx=60 dy=0 dh=60 dv=0 dx=0 dy=0 dh=0 dv=0
PairPos2: "'kern' Horizontal Kerning lookup 15-1" uniFEE7 dx=-178 dy=0 dh=-178 dv=0 dx=0 dy=0 dh=0 dv=0
PairPos2: "'kern' Horizontal Kerning lookup 15-2" uniFB90 dx=-226 dy=0 dh=-226 dv=0 dx=0 dy=0 dh=0 dv=0
PairPos2: "'kern' Horizontal Kerning lookup 15-2" uniFB8E dx=-226 dy=0 dh=-226 dv=0 dx=0 dy=0 dh=0 dv=0
PairPos2: "'kern' Horizontal Kerning lookup 15-2" uni06A9 dx=-226 dy=0 dh=-226 dv=0 dx=0 dy=0 dh=0 dv=0
PairPos2: "'kern' Horizontal Kerning lookup 15-2" uni064A dx=-60 dy=0 dh=-60 dv=0 dx=0 dy=0 dh=0 dv=0
PairPos2: "'kern' Horizontal Kerning lookup 15-2" afii57414 dx=-60 dy=0 dh=-60 dv=0 dx=0 dy=0 dh=0 dv=0
PairPos2: "'kern' Horizontal Kerning lookup 15-2" uni0649 dx=-60 dy=0 dh=-60 dv=0 dx=0 dy=0 dh=0 dv=0
PairPos2: "'kern' Horizontal Kerning lookup 15-2" uniFEEB dx=-178 dy=0 dh=-178 dv=0 dx=0 dy=0 dh=0 dv=0
PairPos2: "'kern' Horizontal Kerning lookup 15-2" uni0647 dx=-178 dy=0 dh=-178 dv=0 dx=0 dy=0 dh=0 dv=0
PairPos2: "'kern' Horizontal Kerning lookup 15-2" uni0646 dx=-60 dy=0 dh=-60 dv=0 dx=0 dy=0 dh=0 dv=0
PairPos2: "'kern' Horizontal Kerning lookup 15-2" uniFEE3 dx=-178 dy=0 dh=-178 dv=0 dx=0 dy=0 dh=0 dv=0
PairPos2: "'kern' Horizontal Kerning lookup 15-2" uni0645 dx=-178 dy=0 dh=-178 dv=0 dx=0 dy=0 dh=0 dv=0
PairPos2: "'kern' Horizontal Kerning lookup 15-2" uniFEFB dx=-143 dy=0 dh=-143 dv=0 dx=0 dy=0 dh=0 dv=0
PairPos2: "'kern' Horizontal Kerning lookup 15-2" uniFEDF dx=-143 dy=0 dh=-143 dv=0 dx=0 dy=0 dh=0 dv=0
PairPos2: "'kern' Horizontal Kerning lookup 15-2" uni0644 dx=-60 dy=0 dh=-60 dv=0 dx=0 dy=0 dh=0 dv=0
PairPos2: "'kern' Horizontal Kerning lookup 15-2" uniFEDB dx=-226 dy=0 dh=-226 dv=0 dx=0 dy=0 dh=0 dv=0
PairPos2: "'kern' Horizontal Kerning lookup 15-2" uni0643 dx=-143 dy=0 dh=-143 dv=0 dx=0 dy=0 dh=0 dv=0
PairPos2: "'kern' Horizontal Kerning lookup 15-2" uniFED7 dx=-178 dy=0 dh=-178 dv=0 dx=0 dy=0 dh=0 dv=0
PairPos2: "'kern' Horizontal Kerning lookup 15-2" uni0642 dx=-60 dy=0 dh=-60 dv=0 dx=0 dy=0 dh=0 dv=0
PairPos2: "'kern' Horizontal Kerning lookup 15-2" uniFED3 dx=-178 dy=0 dh=-178 dv=0 dx=0 dy=0 dh=0 dv=0
PairPos2: "'kern' Horizontal Kerning lookup 15-2" uni0641 dx=-178 dy=0 dh=-178 dv=0 dx=0 dy=0 dh=0 dv=0
PairPos2: "'kern' Horizontal Kerning lookup 15-2" uniFECF dx=-178 dy=0 dh=-178 dv=0 dx=0 dy=0 dh=0 dv=0
PairPos2: "'kern' Horizontal Kerning lookup 15-2" uniFECB dx=-178 dy=0 dh=-178 dv=0 dx=0 dy=0 dh=0 dv=0
PairPos2: "'kern' Horizontal Kerning lookup 15-2" uniFEC7 dx=-178 dy=0 dh=-178 dv=0 dx=0 dy=0 dh=0 dv=0
PairPos2: "'kern' Horizontal Kerning lookup 15-2" uni0638 dx=-178 dy=0 dh=-178 dv=0 dx=0 dy=0 dh=0 dv=0
PairPos2: "'kern' Horizontal Kerning lookup 15-2" uniFEC3 dx=-178 dy=0 dh=-178 dv=0 dx=0 dy=0 dh=0 dv=0
PairPos2: "'kern' Horizontal Kerning lookup 15-2" uni0637 dx=-178 dy=0 dh=-178 dv=0 dx=0 dy=0 dh=0 dv=0
PairPos2: "'kern' Horizontal Kerning lookup 15-2" uniFEBF dx=-178 dy=0 dh=-178 dv=0 dx=0 dy=0 dh=0 dv=0
PairPos2: "'kern' Horizontal Kerning lookup 15-2" uni0636 dx=-178 dy=0 dh=-178 dv=0 dx=0 dy=0 dh=0 dv=0
PairPos2: "'kern' Horizontal Kerning lookup 15-2" uniFEBB dx=-178 dy=0 dh=-178 dv=0 dx=0 dy=0 dh=0 dv=0
PairPos2: "'kern' Horizontal Kerning lookup 15-2" uni0635 dx=-178 dy=0 dh=-178 dv=0 dx=0 dy=0 dh=0 dv=0
PairPos2: "'kern' Horizontal Kerning lookup 15-2" uniFEB7 dx=-178 dy=0 dh=-178 dv=0 dx=0 dy=0 dh=0 dv=0
PairPos2: "'kern' Horizontal Kerning lookup 15-2" uni0634 dx=-178 dy=0 dh=-178 dv=0 dx=0 dy=0 dh=0 dv=0
PairPos2: "'kern' Horizontal Kerning lookup 15-2" uniFEB3 dx=-178 dy=0 dh=-178 dv=0 dx=0 dy=0 dh=0 dv=0
PairPos2: "'kern' Horizontal Kerning lookup 15-2" uni0633 dx=-178 dy=0 dh=-178 dv=0 dx=0 dy=0 dh=0 dv=0
PairPos2: "'kern' Horizontal Kerning lookup 15-2" uni0630 dx=-178 dy=0 dh=-178 dv=0 dx=0 dy=0 dh=0 dv=0
PairPos2: "'kern' Horizontal Kerning lookup 15-2" uni062F dx=-178 dy=0 dh=-178 dv=0 dx=0 dy=0 dh=0 dv=0
PairPos2: "'kern' Horizontal Kerning lookup 15-2" uniFEA7 dx=-178 dy=0 dh=-178 dv=0 dx=0 dy=0 dh=0 dv=0
PairPos2: "'kern' Horizontal Kerning lookup 15-2" uniFEA3 dx=-178 dy=0 dh=-178 dv=0 dx=0 dy=0 dh=0 dv=0
PairPos2: "'kern' Horizontal Kerning lookup 15-2" uniFE9F dx=-178 dy=0 dh=-178 dv=0 dx=0 dy=0 dh=0 dv=0
PairPos2: "'kern' Horizontal Kerning lookup 15-2" uniFE9B dx=-178 dy=0 dh=-178 dv=0 dx=0 dy=0 dh=0 dv=0
PairPos2: "'kern' Horizontal Kerning lookup 15-2" uni062B dx=-178 dy=0 dh=-178 dv=0 dx=0 dy=0 dh=0 dv=0
PairPos2: "'kern' Horizontal Kerning lookup 15-2" uniFE97 dx=-178 dy=0 dh=-178 dv=0 dx=0 dy=0 dh=0 dv=0
PairPos2: "'kern' Horizontal Kerning lookup 15-2" uni062A dx=-178 dy=0 dh=-178 dv=0 dx=0 dy=0 dh=0 dv=0
PairPos2: "'kern' Horizontal Kerning lookup 15-2" uni0629 dx=-178 dy=0 dh=-178 dv=0 dx=0 dy=0 dh=0 dv=0
PairPos2: "'kern' Horizontal Kerning lookup 15-2" uni0628 dx=-178 dy=0 dh=-178 dv=0 dx=0 dy=0 dh=0 dv=0
PairPos2: "'kern' Horizontal Kerning lookup 15-2" uni0627 dx=-143 dy=0 dh=-143 dv=0 dx=0 dy=0 dh=0 dv=0
PairPos2: "'kern' Horizontal Kerning lookup 15-2" uni0623 dx=-143 dy=0 dh=-143 dv=0 dx=0 dy=0 dh=0 dv=0
PairPos2: "'kern' Horizontal Kerning lookup 15-2" uni0622 dx=-143 dy=0 dh=-143 dv=0 dx=0 dy=0 dh=0 dv=0
PairPos2: "'kern' Horizontal Kerning lookup 15-2" uni0621 dx=-178 dy=0 dh=-178 dv=0 dx=0 dy=0 dh=0 dv=0
PairPos2: "'kern' Horizontal Kerning lookup 15-2" uniFB94 dx=-226 dy=0 dh=-226 dv=0 dx=0 dy=0 dh=0 dv=0
PairPos2: "'kern' Horizontal Kerning lookup 15-2" uniFB92 dx=-226 dy=0 dh=-226 dv=0 dx=0 dy=0 dh=0 dv=0
PairPos2: "'kern' Horizontal Kerning lookup 15-2" uni06AF dx=-226 dy=0 dh=-226 dv=0 dx=0 dy=0 dh=0 dv=0
PairPos2: "'kern' Horizontal Kerning lookup 15-2" afii57506 dx=-178 dy=0 dh=-178 dv=0 dx=0 dy=0 dh=0 dv=0
PairPos2: "'kern' Horizontal Kerning lookup 15-2" afii57440 dx=-178 dy=0 dh=-178 dv=0 dx=0 dy=0 dh=0 dv=0
PairPos2: "'kern' Horizontal Kerning lookup 15-2" uniFE8B dx=-178 dy=0 dh=-178 dv=0 dx=0 dy=0 dh=0 dv=0
Substitution2: "'fina' Terminal Forms in Arabic lookup 9 subtable" uniFEAE
EndChar

StartChar: uni0633
Encoding: 1587 1587 27
GlifName: uni0633
Width: 2470
VWidth: 2952
GlyphClass: 2
Flags: W
AnchorPoint: "Anchor-10" 1808.53 1137.1 basechar 0
AnchorPoint: "Anchor-7" 671.902 -756.086 basechar 0
LayerCount: 2
Fore
SplineSet
1319.92042366 56.2233175997 m 2,0,1
 1319.04046973 -95.9162301844 1319.04046973 -95.9162301844 1266.90050888 -203.842682161 c 0,2,3
 1126 -490 1126 -490 727.316887448 -489.724612275 c 0,4,5
 424 -490 424 -490 277.710201939 -354.009431399 c 0,6,7
 131 -218 131 -218 131.752908717 61.0084732407 c 0,8,9
 132 251 132 251 209.601575391 450.845560052 c 1,10,-1
 313.261733609 408.119630308 l 1,11,12
 248 228 248 228 248.268561256 62.8802023285 c 0,13,14
 248 -152 248 -152 372.410639053 -262.471303805 c 128,-1,15
 497 -373 497 -373 734.414096776 -373.203121869 c 0,16,17
 889 -373 889 -373 995.457871163 -319.189162075 c 0,18,19
 1102 -265 1102 -265 1155.78747927 -159.223139027 c 0,20,21
 1210 -53 1210 -53 1210.5545997 101.861014858 c 0,22,23
 1211 161 1211 161 1201.89054928 219.451051325 c 0,24,25
 1193 278 1193 278 1175.53797744 337.00922582 c 128,-1,26
 1158 396 1158 396 1131.69527785 454.401810493 c 1,27,-1
 1244.00057115 493.638942835 l 1,28,-1
 1294.43547627 337.831140531 l 2,29,30
 1324 248 1324 248 1387.06636544 201.798679279 c 0,31,32
 1451 155 1451 155 1544.50228959 154.992187529 c 0,33,34
 1645 155 1645 155 1698.67384154 210.81186304 c 0,35,36
 1755.95804302 270.059427196 1755.95804302 270.059427196 1752.30134181 368.858182044 c 0,37,38
 1752 377 1752 377 1752.16293792 385.156781995 c 0,39,40
 1752 393 1752 393 1751.92183553 400.909713703 c 128,-1,41
 1752 409 1752 409 1751.5775604 416.121111935 c 0,42,43
 1751 424 1751 424 1751.12946016 430.790853489 c 0,44,45
 1751 438 1751 438 1750.57707244 444.923356999 c 128,-1,46
 1750 452 1750 452 1749.91974484 458.518499261 c 0,47,48
 1749.97031993 458.821930758 1749.97031993 458.821930758 1749.15700314 471.580415043 c 2,49,-1
 1745.56628165 527.907991521 l 1,50,-1
 1850.7969099 540.258377445 l 1,51,-1
 1864.68090363 340.552204985 l 2,52,53
 1871 253 1871 253 1918.04552219 205.280007864 c 0,54,55
 1966 157 1966 157 2048.10489446 157.500183381 c 0,56,57
 2134 158 2134 158 2177.58798799 222.03092103 c 128,-1,58
 2221 286 2221 286 2220.42259719 399.440923093 c 0,59,60
 2220 496 2220 496 2183.40760699 633.068075416 c 1,61,-1
 2297.08142388 663.483000157 l 1,62,63
 2337 526 2337 526 2336.4365787 400.476529253 c 0,64,65
 2336 187 2336 187 2225.03125722 89.7443769832 c 0,66,67
 2158 31 2158 31 2055.17634943 30.9121059953 c 0,68,69
 1882 31 1882 31 1818.03417969 182.00390625 c 5,70,71
 1709 30 1709 30 1542.82612388 29.9189389859 c 4,72,73
 1409 30 1409 30 1320.28529009 119.30686332 c 1,74,-1
 1319.92042366 56.2233175997 l 2,0,1
EndSplineSet
Substitution2: "'fina' Terminal Forms in Arabic lookup 9 subtable" uniFEB2
Substitution2: "'medi' Medial Forms in Arabic lookup 11 subtable" uniFEB4
Substitution2: "'init' Initial Forms in Arabic lookup 13 subtable" uniFEB3
EndChar

StartChar: uni0635
Encoding: 1589 1589 29
GlifName: uni0635
Width: 2587
VWidth: 2952
GlyphClass: 2
Flags: W
AnchorPoint: "Anchor-7" 671.902 -756.086 basechar 0
AnchorPoint: "Anchor-10" 2056.53 1236.1 basechar 0
LayerCount: 2
Fore
SplineSet
1294.45806777 337.761055002 m 2,0,1
 1309.2594825 292.034720348 1309.2594825 292.034720348 1325.78758704 260.529600052 c 128,-1,2
 1342.31569158 229.024479755 1342.31569158 229.024479755 1366.69828768 207.605058668 c 128,-1,3
 1391.08088377 186.185637581 1391.08088377 186.185637581 1420.84451814 183.252084718 c 2,4,-1
 1439.9328106 181.370711148 l 1,5,-1
 1449.6512287 197.907180706 l 2,6,7
 1781.14959 761.971466057 1781.14959 761.971466057 2109.24531888 761.425909406 c 0,8,9
 2154.84580605 761.292620236 2154.84580605 761.292620236 2194.98796361 752.749127546 c 128,-1,10
 2235.13012117 744.205634855 2235.13012117 744.205634855 2269.85018071 727.436560433 c 128,-1,11
 2304.57024025 710.66748601 2304.57024025 710.66748601 2334.85986083 685.438086926 c 0,12,13
 2454.96773495 585.923613218 2454.96773495 585.923613218 2454.59689261 423.905019455 c 0,14,15
 2453.86038578 228.420791827 2453.86038578 228.420791827 2285.05242863 129.210395913 c 128,-1,16
 2116.24447148 30 2116.24447148 30 1763.15136719 30 c 2,17,-1
 1712.34082031 30 l 2,18,19
 1591.04515898 30 1591.04515898 30 1503.02845714 43.6345687056 c 128,-1,20
 1415.01175531 57.2691374111 1415.01175531 57.2691374111 1363.24302535 82.9290701883 c 2,21,-1
 1320.19828905 104.264827137 l 1,22,-1
 1319.92042366 56.2233175997 l 2,23,24
 1319.03973241 -96.0437107818 1319.03973241 -96.0437107818 1266.90050888 -203.842682161 c 0,25,26
 1126.3197966 -489.987694807 1126.3197966 -489.987694807 727.316887448 -489.724612275 c 0,27,28
 424.029249052 -489.8579646 424.029249052 -489.8579646 277.710201939 -354.009431399 c 128,-1,29
 131.391154826 -218.160898197 131.391154826 -218.160898197 131.752908717 61.0084732407 c 0,30,31
 131.977260107 250.750336397 131.977260107 250.750336397 209.601575391 450.845560052 c 1,32,-1
 313.261733609 408.119630308 l 1,33,34
 248.011252112 227.811620251 248.011252112 227.811620251 248.268561256 62.8802023285 c 0,35,36
 248.126479044 -151.845284801 248.126479044 -151.845284801 372.410639053 -262.471303805 c 128,-1,37
 496.694799062 -373.097322809 496.694799062 -373.097322809 734.414096776 -373.203121869 c 0,38,39
 889.353568105 -373.132334402 889.353568105 -373.132334402 995.457871163 -319.189162075 c 128,-1,40
 1101.56217422 -265.245989749 1101.56217422 -265.245989749 1155.78747927 -159.223139027 c 128,-1,41
 1210.01278431 -53.2002883051 1210.01278431 -53.2002883051 1210.5545997 101.861014858 c 0,42,43
 1210.69651997 160.522637502 1210.69651997 160.522637502 1201.89054928 219.451051325 c 128,-1,44
 1193.08457858 278.379465148 1193.08457858 278.379465148 1175.53797744 337.00922582 c 128,-1,45
 1157.99137629 395.638986492 1157.99137629 395.638986492 1131.69527785 454.401810493 c 1,46,-1
 1244.00057115 493.638942835 l 1,47,-1
 1294.45806777 337.761055002 l 2,0,1
1758.78092015 154.534190148 m 2,48,49
 2331.91409917 155.025639676 2331.91409917 155.025639676 2332.66096603 415.273990361 c 0,50,51
 2332.8520986 472.594480532 2332.8520986 472.594480532 2309.88548537 518.583828238 c 128,-1,52
 2286.91887214 564.573175944 2286.91887214 564.573175944 2242.03507625 595.58194924 c 0,53,54
 2214.23851364 614.757121128 2214.23851364 614.757121128 2181.57557198 624.503174431 c 128,-1,55
 2148.91263033 634.249227734 2148.91263033 634.249227734 2112.30579444 634.57265543 c 0,56,57
 2027.69895816 635.1018262 2027.69895816 635.1018262 1940.57824329 584.779828544 c 128,-1,58
 1853.45752843 534.457830888 1853.45752843 534.457830888 1767.1385406 439.078521673 c 128,-1,59
 1680.81955278 343.699212457 1680.81955278 343.699212457 1589.37533637 200.56863007 c 2,60,-1
 1559.86119558 154.372420763 l 1,61,-1
 1614.68064718 154.417002108 l 1,62,-1
 1758.78092015 154.534190148 l 2,48,49
EndSplineSet
Substitution2: "'fina' Terminal Forms in Arabic lookup 9 subtable" uniFEBA
Substitution2: "'medi' Medial Forms in Arabic lookup 11 subtable" uniFEBC
Substitution2: "'init' Initial Forms in Arabic lookup 13 subtable" uniFEBB
EndChar

StartChar: uni0637
Encoding: 1591 1591 31
GlifName: uni0637
Width: 1480
VWidth: 2952
GlyphClass: 2
Flags: W
AnchorPoint: "Anchor-10" 471.36 1546.58 basechar 0
AnchorPoint: "Anchor-7" 641.602 -236.453 basechar 0
LayerCount: 2
Fore
SplineSet
1349.6740033 423.914396194 m 0,0,1
 1348.44081157 228.458010343 1348.44081157 228.458010343 1179.59738575 129.229005171 c 128,-1,2
 1010.75395994 30 1010.75395994 30 658.228515625 30 c 2,3,-1
 131.302734375 30 l 1,4,-1
 131.302734375 154.242795644 l 1,5,-1
 321.843130615 154.376957918 l 1,6,-1
 323.570669678 154.377934481 l 1,7,-1
 340.109293865 154.387283624 l 1,8,-1
 348.930347878 168.377107908 l 1,9,-1
 421.00944944 282.691561032 l 1,10,-1
 425.6328125 290.024022292 l 1,11,-1
 425.6328125 298.692382812 l 1,12,-1
 425.6328125 1378.87402344 l 1,13,-1
 538.946289062 1378.87402344 l 1,14,-1
 538.946289062 544.209960938 l 1,15,-1
 538.946289062 458.891951884 l 1,16,-1
 592.344146253 525.433904939 l 2,17,18
 785.16375311 765.716828312 785.16375311 765.716828312 1003.92046099 761.429778207 c 0,19,20
 1141.88533615 759.177453291 1141.88533615 759.177453291 1229.87286075 685.491266384 c 0,21,22
 1290.52462811 635.209089595 1290.52462811 635.209089595 1320.17525908 570.588671367 c 128,-1,23
 1349.82589005 505.968253139 1349.82589005 505.968253139 1349.6740033 423.914396194 c 0,0,1
1007.35568271 634.572997273 m 0,24,25
 921.733963891 634.731044325 921.733963891 634.731044325 834.299531837 584.333103792 c 128,-1,26
 746.865099782 533.935163259 746.865099782 533.935163259 660.84346706 438.650840612 c 128,-1,27
 574.821834339 343.366517965 574.821834339 343.366517965 484.409900844 200.583553077 c 2,28,-1
 455.250869951 154.534179688 l 1,29,-1
 509.755859375 154.534179688 l 1,30,-1
 653.858783273 154.534190761 l 2,31,32
 1225.77468272 155.025570809 1225.77468272 155.025570809 1227.73798978 415.222214035 c 0,33,34
 1228.04053259 532.700264014 1228.04053259 532.700264014 1137.09368857 595.594725931 c 0,35,36
 1081.45113607 633.917571849 1081.45113607 633.917571849 1007.35568271 634.572997273 c 0,24,25
EndSplineSet
Substitution2: "'fina' Terminal Forms in Arabic lookup 9 subtable" uniFEC2
Substitution2: "'medi' Medial Forms in Arabic lookup 11 subtable" uniFEC4
Substitution2: "'init' Initial Forms in Arabic lookup 13 subtable" uniFEC3
EndChar

StartChar: uni0639
Encoding: 1593 1593 33
GlifName: uni0639
Width: 1346
VWidth: 2952
GlyphClass: 2
Flags: W
AnchorPoint: "Anchor-7" 580.833 -810.619 basechar 0
AnchorPoint: "Anchor-10" 723.478 1366.07 basechar 0
LayerCount: 2
Fore
SplineSet
640.104846811 433.655660393 m 2,0,1
 816.624722323 464.011011185 816.624722323 464.011011185 941.349028916 464.547225068 c 0,2,3
 1017.28532268 464.914070886 1017.28532268 464.914070886 1090.09385899 458.174485816 c 1,4,-1
 1075.09804908 340.663522082 l 1,5,6
 1009.92648098 342.871402676 1009.92648098 342.871402676 984.174368632 342.160750763 c 0,7,8
 622.198017641 331.876491565 622.198017641 331.876491565 433.654788105 210.522853548 c 128,-1,9
 245.111558569 89.1692155314 245.111558569 89.1692155314 245.240241317 -144.834084086 c 0,10,11
 245.153197042 -272.789522133 245.153197042 -272.789522133 309.649082253 -358.790679735 c 128,-1,12
 374.144967465 -444.791837336 374.144967465 -444.791837336 496.055385635 -486.48376344 c 128,-1,13
 617.965803805 -528.175689544 617.965803805 -528.175689544 795.343196026 -528.266576847 c 0,14,15
 991.738471795 -528.014480222 991.738471795 -528.014480222 1181.5607623 -445.612182529 c 1,16,-1
 1205.20468477 -559.58837515 l 1,17,18
 1020.39952994 -643.978737892 1020.39952994 -643.978737892 783.031465962 -643.733405977 c 0,19,20
 419.962590162 -643.990802668 419.962590162 -643.990802668 255.682859966 -469.265540494 c 0,21,22
 134.997416212 -345.175645691 134.997416212 -345.175645691 134.97558588 -152.313390377 c 0,23,24
 134.981448472 -58.1069219668 134.981448472 -58.1069219668 155.915539448 21.0655266801 c 128,-1,25
 176.849630424 100.237975327 176.849630424 100.237975327 219.199995522 165.391931894 c 128,-1,26
 261.55036062 230.545888462 261.55036062 230.545888462 325.303368377 281.680621373 c 128,-1,27
 389.056376134 332.815354283 389.056376134 332.815354283 474.948802291 370.799468442 c 2,28,-1
 512.017174883 387.192174518 l 1,29,-1
 485.511246061 417.855194533 l 2,30,31
 371.988731518 549.182157605 371.988731518 549.182157605 371.843672924 695.002308594 c 0,32,33
 371.987128942 758.287930941 371.987128942 758.287930941 397.235236579 822.582719285 c 0,34,35
 409.415615691 852.909122398 409.415615691 852.909122398 427.96128722 881.323621176 c 128,-1,36
 446.506958749 909.738119953 446.506958749 909.738119953 471.505926777 936.166003116 c 0,37,38
 563.929054828 1034 563.929054828 1034 734 1034 c 0,39,40
 868.521158868 1034 868.521158868 1034 1027.86169865 930.832700161 c 1,41,-1
 984.553801832 834.779785178 l 1,42,43
 846.462806708 910.99528878 846.462806708 910.99528878 743.938141712 910.802777464 c 0,44,45
 598.04226519 911.025978112 598.04226519 911.025978112 530.244070055 798.1887626 c 0,46,47
 495.966096166 742.428521003 495.966096166 742.428521003 496.206756628 682.174860472 c 0,48,49
 496.086795204 656.004030938 496.086795204 656.004030938 502.791702836 629.316580478 c 128,-1,50
 509.496610468 602.629130017 509.496610468 602.629130017 522.671288172 575.903792435 c 0,51,52
 546.478663258 527.941187069 546.478663258 527.941187069 611.367344138 444.76828303 c 2,53,-1
 622.410888198 430.612907734 l 1,54,-1
 640.104846811 433.655660393 l 2,0,1
EndSplineSet
Substitution2: "'fina' Terminal Forms in Arabic lookup 9 subtable" uniFECA
Substitution2: "'medi' Medial Forms in Arabic lookup 11 subtable" uniFECC
Substitution2: "'init' Initial Forms in Arabic lookup 13 subtable" uniFECB
EndChar

StartChar: afii57440
Encoding: 1600 1600 35
GlifName: afii57440
Width: 286
VWidth: 2952
GlyphClass: 2
Flags: W
AnchorPoint: "Anchor-10" 143.774 1376.11 basechar 0
AnchorPoint: "Anchor-7" 147.7 -234.739 basechar 0
LayerCount: 2
Fore
SplineSet
-6.9384765625 30 m 2,0,1
 -15.9167709632 30 -15.9167709632 30 -21.0628320443 32.8211581577 c 0,2,3
 -26.2088931254 35.6423163154 -26.2088931254 35.6423163154 -30.4936067189 49.1514858278 c 0,4,5
 -34.7783203125 62.6606553402 -34.7783203125 62.6606553402 -34.7783203125 88.3134765625 c 2,6,-1
 -34.7784452612 107.278967492 l 2,7,8
 -34.8656455826 137.492150222 -34.8656455826 137.492150222 -28.6218268735 145.74558683 c 0,9,10
 -22.3780081643 153.999023438 -22.3780081643 153.999023438 -6.9384765625 153.999023438 c 2,11,-1
 281.462188615 153.999023438 l 1,12,13
 284.771484375 137.893788582 284.771484375 137.893788582 284.771484375 107.174804688 c 2,14,-1
 284.771584779 88.2475793414 l 2,15,16
 284.873199036 48.9719321579 284.873199036 48.9719321579 280.889294535 30 c 1,17,-1
 -6.9384765625 30 l 2,0,1
EndSplineSet
EndChar

StartChar: uni0643
Encoding: 1603 1603 38
GlifName: uni0643
Width: 1891
VWidth: 2952
GlyphClass: 2
Flags: W
AnchorPoint: "Anchor-7" 740.268 -236.468 basechar 0
AnchorPoint: "Anchor-10" 948.11 1412.05 basechar 0
LayerCount: 2
Fore
SplineSet
841.867956063 154.136718046 m 0,0,1
 1020.25962016 154.102373083 1020.25962016 154.102373083 1155.32659831 172.211095485 c 0,2,3
 1290.39357645 190.319817887 1290.39357645 190.319817887 1386.79704026 228.240811857 c 0,4,5
 1483.20050408 266.161805828 1483.20050408 266.161805828 1532.53959191 327.293221021 c 0,6,7
 1581.87867974 388.424636214 1581.87867974 388.424636214 1581.82910156 471.963867188 c 2,8,-1
 1581.82910156 1374.56640625 l 1,9,-1
 1699.70996094 1374.56640625 l 1,10,-1
 1699.70996094 474.338867188 l 2,11,12
 1699.70996094 254.49064144 1699.70996094 254.49064144 1494.5055329 142.24532072 c 0,13,14
 1289.30110487 30 1289.30110487 30 862.133789062 30 c 2,15,-1
 860.911132812 30 l 2,16,17
 487.612525888 30 487.612525888 30 308.848840543 144.219012859 c 0,18,19
 130.085155198 258.438025718 130.085155198 258.438025718 130.160135179 485.90762687 c 0,20,21
 130.025880014 599.182148055 130.025880014 599.182148055 170.55756449 703.17125834 c 1,22,-1
 274.409463898 658.052076255 l 1,23,24
 249.039233733 583.855027634 249.039233733 583.855027634 249.425145373 514.37851236 c 0,25,26
 250.290870119 332.724449563 250.290870119 332.724449563 402.444819216 243.395570984 c 0,27,28
 554.598768313 154.066692405 554.598768313 154.066692405 841.867956063 154.136718046 c 0,0,1
716.16015625 628.855985287 m 1,29,30
 791.140106759 621.879083704 791.140106759 621.879083704 848.343934032 621.267003485 c 0,31,32
 960.866509938 620.985214495 960.866509938 620.985214495 1019.96067354 645.17745394 c 0,33,34
 1053.17938259 658.898304173 1053.17938259 658.898304173 1072.69871883 683.636056734 c 0,35,36
 1092.21805507 708.373809294 1092.21805507 708.373809294 1092.7456689 741.314844231 c 0,37,38
 1093.07812046 798.303972931 1093.07812046 798.303972931 1051.57057516 833.474388788 c 0,39,40
 1031.86419718 850.437184938 1031.86419718 850.437184938 1005.53989732 860.442808079 c 0,41,42
 979.215597458 870.44843122 979.215597458 870.44843122 945.408924872 875.138728289 c 0,43,44
 846.926634865 890.111579793 846.926634865 890.111579793 803.06736505 934.591888697 c 0,45,46
 759.208095234 979.072197601 759.208095234 979.072197601 760.921629145 1057.75597188 c 0,47,48
 765.118063229 1228.70467871 765.118063229 1228.70467871 1093.61035156 1260.88202835 c 1,49,-1
 1093.61035156 1192.08747533 l 1,50,51
 1033.73467252 1185.36480036 1033.73467252 1185.36480036 989.070496684 1175.19312589 c 0,52,53
 944.406320844 1165.02145141 944.406320844 1165.02145141 908.064217168 1148.71768753 c 0,54,55
 871.722113491 1132.41392365 871.722113491 1132.41392365 852.905735278 1107.72371109 c 0,56,57
 834.089357064 1083.03349853 834.089357064 1083.03349853 834.139605045 1050.45031811 c 0,58,59
 833.951637069 950.246298681 833.951637069 950.246298681 998.346558632 925.106877037 c 0,60,61
 1086.01003704 911.596757319 1086.01003704 911.596757319 1125.82766085 868.422873948 c 0,62,63
 1165.64528465 825.248990577 1165.64528465 825.248990577 1165.36439346 746.217169916 c 0,64,65
 1165.05348051 642.829027146 1165.05348051 642.829027146 1062.00364564 586.559627329 c 0,66,67
 1028.59959681 568.289482943 1028.59959681 568.289482943 979.434433801 558.6680014 c 0,68,69
 930.269270791 549.046519857 930.269270791 549.046519857 865.966674825 549.088848678 c 0,70,71
 849.327251888 549.070364944 849.327251888 549.070364944 831.386097848 549.782273712 c 0,72,73
 813.444943808 550.494182481 813.444943808 550.494182481 794.618169366 551.909884073 c 0,74,75
 775.791394924 553.325585666 775.791394924 553.325585666 756.098242157 555.433400323 c 0,76,77
 736.405089391 557.54121498 736.405089391 557.54121498 716.16015625 560.312663536 c 1,78,-1
 716.16015625 628.855985287 l 1,29,30
EndSplineSet
Substitution2: "'fina' Terminal Forms in Arabic lookup 9 subtable" uniFEDA
Substitution2: "'medi' Medial Forms in Arabic lookup 11 subtable" uniFEDC
Substitution2: "'init' Initial Forms in Arabic lookup 13 subtable" uniFEDB
EndChar

StartChar: uni0644
Encoding: 1604 1604 39
GlifName: uni0644
Width: 1441
VWidth: 2952
GlyphClass: 2
Flags: W
AnchorPoint: "Anchor-7" 681.902 -756.086 basechar 0
AnchorPoint: "Anchor-10" 593.908 1171.66 basechar 0
LayerCount: 2
Fore
SplineSet
1142.60435456 99.7113772435 m 2,0,-1
 1145.8411246 1377.99316406 l 1,1,-1
 1257.86678934 1377.99316406 l 1,2,-1
 1257.18557311 299.360958036 l 2,3,4
 1257.00138747 160.069116017 1257.00138747 160.069116017 1247.93923226 30.6826459193 c 0,5,6
 1234.4673916 -145.842027681 1234.4673916 -145.842027681 1170.19491748 -261.132312528 c 0,7,8
 1105.92244336 -376.422597375 1105.92244336 -376.422597375 989.426773993 -433.1211 c 0,9,10
 872.931104627 -489.819602626 872.931104627 -489.819602626 701.416415756 -489.734377936 c 0,11,12
 411.147103184 -489.862790617 411.147103184 -489.862790617 271.526049386 -359.146361129 c 0,13,14
 131.904995587 -228.429931641 131.904995587 -228.429931641 132.740068278 40.6541518737 c 0,15,16
 132.972936297 131.41354218 132.972936297 131.41354218 150.640531639 223.341457105 c 0,17,18
 168.308126981 315.26937203 168.308126981 315.26937203 203.087993427 407.1166408 c 1,19,-1
 306.515232581 364.486490197 l 1,20,21
 248.012047094 202.563973334 248.012047094 202.563973334 248.246100002 38.2058914123 c 0,22,23
 248.115515896 -164.062153016 248.115515896 -164.062153016 364.199158443 -268.585141622 c 0,24,25
 480.282800991 -373.108130228 480.282800991 -373.108130228 701.801765799 -373.226557902 c 0,26,27
 917.763963703 -373.106990061 917.763963703 -373.106990061 1029.76524811 -252.307814013 c 0,28,29
 1141.76653252 -131.508637965 1141.76653252 -131.508637965 1142.60435456 99.7113772435 c 2,0,-1
EndSplineSet
Substitution2: "'fina' Terminal Forms in Arabic lookup 9 subtable" uniFEDE
Substitution2: "'medi' Medial Forms in Arabic lookup 11 subtable" uniFEE0
Substitution2: "'init' Initial Forms in Arabic lookup 13 subtable" uniFEDF
EndChar

StartChar: uni0645
Encoding: 1605 1605 40
GlifName: uni0645
Width: 1242
VWidth: 2622
GlyphClass: 2
Flags: W
AnchorPoint: "Anchor-7" 724.983 -336.909 basechar 0
AnchorPoint: "Anchor-10" 769.239 1134.48 basechar 0
LayerCount: 2
Fore
SplineSet
841.884617091 128 m 0,0,1
 918.179998602 127.41311245 918.179998602 127.41311245 960.166566508 172.11405798 c 0,2,3
 1002.15313441 216.815003509 1002.15313441 216.815003509 1002.35834409 297.022271678 c 0,4,5
 1000.8202996 361.018436895 1000.8202996 361.018436895 978.343263546 418.000372311 c 0,6,7
 961.821681709 458.704068238 961.821681709 458.704068238 934.963825529 487.067204091 c 0,8,9
 908.105969348 515.430339944 908.105969348 515.430339944 872.060150347 530.335084644 c 0,10,11
 836.014331346 545.239829344 836.014331346 545.239829344 792.240505301 546.001645687 c 0,12,13
 634.95547084 548.3124154 634.95547084 548.3124154 553.10655433 318.673652756 c 2,14,-1
 546.246548201 299.426931034 l 1,15,-1
 561.643779362 285.994833144 l 2,16,17
 652.39710963 206.824259993 652.39710963 206.824259993 720.381091023 167.412129996 c 0,18,19
 788.365072416 128 788.365072416 128 841.884617091 128 c 0,0,1
1113.39247824 309.021935715 m 0,20,21
 1113.02724426 176.897177441 1113.02724426 176.897177441 1050.25148428 91.7149202553 c 0,22,23
 987.576739186 7.40658442412 987.576739186 7.40658442412 852.040347843 6.86279007891 c 0,24,25
 821.965024906 6.90323926194 821.965024906 6.90323926194 786.826552634 15.7950251763 c 0,26,27
 751.688080362 24.6868110906 751.688080362 24.6868110906 710.053972841 43.3991068409 c 0,28,29
 668.41986532 62.1114025912 668.41986532 62.1114025912 622.534948662 90.1986832561 c 0,30,31
 598.104966304 105.195883784 598.104966304 105.195883784 571.916873986 119.829375673 c 0,32,33
 545.728781669 134.462867562 545.728781669 134.462867562 517.871005861 148.689308098 c 0,34,35
 477.823100264 169.213491467 477.823100264 169.213491467 427.75853784 167.742050017 c 0,36,37
 386.734303031 167.274734584 386.734303031 167.274734584 355.451508488 143.601946181 c 0,38,39
 324.168713945 119.929157777 324.168713945 119.929157777 303.424759219 77.5932474644 c 0,40,41
 282.680804493 35.2573371513 282.680804493 35.2573371513 269.624784996 -28.4560156572 c 0,42,43
 256.568765499 -92.1693684658 256.568765499 -92.1693684658 251.085025985 -167.60909708 c 0,44,45
 245.601286472 -243.048825693 245.601286472 -243.048825693 245.751977149 -338.037966328 c 0,46,47
 245.976422194 -515.38843235 245.976422194 -515.38843235 257.290946857 -664.813476562 c 1,48,-1
 138.427367982 -664.813476562 l 1,49,50
 128.084867415 -491.408439945 128.084867415 -491.408439945 129.060422599 -334.257000181 c 0,51,52
 131.938671862 1.71283865866 131.938671862 1.71283865866 204.727184407 145.374376577 c 0,53,54
 275.728893375 284.646959552 275.728893375 284.646959552 397.159451589 303.046580738 c 2,55,-1
 414.1948169 305.627844245 l 1,56,-1
 420.549841018 321.64284537 l 2,57,58
 560.415946114 674.112920835 560.415946114 674.112920835 789.029453051 675.382054115 c 0,59,60
 864.077859336 675.668275782 864.077859336 675.668275782 922.01702652 649.541460623 c 0,61,62
 979.956193704 623.414645465 979.956193704 623.414645465 1023.80779889 569.97050165 c 0,63,64
 1113.02584019 461.236013814 1113.02584019 461.236013814 1113.39247824 309.021935715 c 0,20,21
EndSplineSet
Substitution2: "'init' Initial Forms in Arabic lookup 13 subtable" uniFEE3
Substitution2: "'medi' Medial Forms in Arabic lookup 11 subtable" uniFEE4
Substitution2: "'fina' Terminal Forms in Arabic lookup 9 subtable" uniFEE2
EndChar

StartChar: uni0647
Encoding: 1607 1607 42
GlifName: uni0647
Width: 942
VWidth: 2952
GlyphClass: 2
Flags: W
AnchorPoint: "Anchor-10" 424.775 1211.01 basechar 0
AnchorPoint: "Anchor-7" 450.63 -240.576 basechar 0
LayerCount: 2
Fore
SplineSet
442.109813396 666.742336449 m 2,0,1
 343.221570295 580.197830601 343.221570295 580.197830601 292.586282617 502.127693304 c 128,-1,2
 241.950994939 424.057556007 241.950994939 424.057556007 241.88456059 350.968589377 c 0,3,4
 241.951025757 254.829113771 241.951025757 254.829113771 303.403974367 204.412773147 c 128,-1,5
 364.856922977 153.996432522 364.856922977 153.996432522 475.346848349 153.992187522 c 0,6,7
 586.976694727 153.996448894 586.976694727 153.996448894 648.874310475 204.724652606 c 128,-1,8
 710.771926224 255.452856317 710.771926224 255.452856317 710.423724335 352.255511525 c 0,9,10
 710.171891996 422.266731412 710.171891996 422.266731412 652.247603981 499.532221374 c 128,-1,11
 594.323315965 576.797711336 594.323315965 576.797711336 480.585797707 667.610832145 c 2,12,-1
 460.984737113 683.261195464 l 1,13,-1
 442.109813396 666.742336449 l 2,0,1
389.824069911 905.54444936 m 1,14,15
 820.982380002 583.054315295 820.982380002 583.054315295 820.791845814 346.344321863 c 0,16,17
 820.981673224 173.655638991 820.981673224 173.655638991 670.381143825 79.9531665047 c 0,18,19
 598.317001925 34.9471457131 598.317001925 34.9471457131 475.934413916 34.1941877804 c 0,20,21
 362.062980538 34.0113776281 362.062980538 34.0113776281 282.863429495 73.6342070241 c 0,22,23
 131.031817187 149.527567594 131.031817187 149.527567594 131.368388639 345.789675434 c 0,24,25
 131.197572294 441.882391754 131.197572294 441.882391754 185.238951001 543.726746113 c 128,-1,26
 239.280329709 645.571100472 239.280329709 645.571100472 349.817052216 753.012110812 c 2,27,-1
 373.087566421 775.630906635 l 1,28,-1
 348.713965519 797.05645995 l 1,29,-1
 324.613574364 818.241848918 l 1,30,-1
 389.824069911 905.54444936 l 1,14,15
EndSplineSet
Substitution2: "'fina' Terminal Forms in Arabic lookup 9 subtable" uniFEEA
Substitution2: "'medi' Medial Forms in Arabic lookup 11 subtable" uniFEEC
Substitution2: "'init' Initial Forms in Arabic lookup 13 subtable" uniFEEB
EndChar

StartChar: uni0648
Encoding: 1608 1608 43
GlifName: uni0648
Width: 860
VWidth: 2144
GlyphClass: 2
Flags: W
AnchorPoint: "Anchor-7" 412.969 -667.998 basechar 0
AnchorPoint: "Anchor-10" 473.256 1112.2 basechar 0
LayerCount: 2
Fore
SplineSet
142.931936687 -372.350863351 m 1,0,1
 562.4059407 -283.674466897 562.4059407 -283.674466897 639.290859853 5.3933252004 c 2,2,-1
 650.746903578 48.4651434741 l 1,3,-1
 606.530593898 42.866891466 l 2,4,5
 589.815952902 40.750641304 589.815952902 40.750641304 574.430575775 38.8938505831 c 0,6,7
 559.045198647 37.0370598621 559.045198647 37.0370598621 545.765808405 35.5280895636 c 0,8,9
 532.486418164 34.0191192651 532.486418164 34.0191192651 520.739049788 32.7808764624 c 0,10,11
 508.991681412 31.5426336597 508.991681412 31.5426336597 499.312151922 30.6323912383 c 0,12,13
 489.632622432 29.7221488169 489.632622432 29.7221488169 481.703933205 29.0959744859 c 0,14,15
 473.775243979 28.469800155 473.775243979 28.469800155 467.876245638 28.1518061641 c 0,16,17
 461.977247296 27.8338121732 461.977247296 27.8338121732 458.031847216 27.8111543277 c 0,18,19
 284.337893655 26.9495241846 284.337893655 26.9495241846 203.670269242 93.362656625 c 0,20,21
 123.002644828 159.775789065 123.002644828 159.775789065 123.004882788 298.354729787 c 0,22,23
 123.002574365 355.392168819 123.002574365 355.392168819 135.165773494 409.345317212 c 0,24,25
 147.328972623 463.298465605 147.328972623 463.298465605 171.706818245 514.478992366 c 0,26,27
 257.880689985 694.007668813 257.880689985 694.007668813 429.094227786 694.077150544 c 0,28,29
 475.739067238 694.059672778 475.739067238 694.059672778 514.98515338 681.61402256 c 0,30,31
 554.231239522 669.168372342 554.231239522 669.168372342 587.430216062 643.454073805 c 0,32,33
 620.629192602 617.739775269 620.629192602 617.739775269 647.400366337 578.052041593 c 0,34,35
 674.171540072 538.364307916 674.171540072 538.364307916 695.001609539 484.138106409 c 0,36,37
 750.99540972 340.375666719 750.99540972 340.375666719 750.8544932 167.992204939 c 0,38,39
 750.923155449 -96.2606817426 750.923155449 -96.2606817426 610.550700474 -255.199735802 c 0,40,41
 470.178245499 -414.138789861 470.178245499 -414.138789861 182.763256944 -473.720327541 c 1,42,-1
 142.931936687 -372.350863351 l 1,0,1
640.566945719 203.544770897 m 2,43,44
 617.118076303 564.979624391 617.118076303 564.979624391 417.366679076 565.123998613 c 0,45,46
 378.015192172 565.073373719 378.015192172 565.073373719 345.562847094 547.864731649 c 0,47,48
 313.110502016 530.656089578 313.110502016 530.656089578 289.990171729 499.588830445 c 0,49,50
 266.869841442 468.521571312 266.869841442 468.521571312 252.021781206 424.580647773 c 0,51,52
 231.983617167 365.935911289 231.983617167 365.935911289 232.159122647 312.530562909 c 0,53,54
 232.062773684 229.266143276 232.062773684 229.266143276 292.543966984 187.447766447 c 0,55,56
 353.025160285 145.629389618 353.025160285 145.629389618 459.21559245 146.364420896 c 0,57,58
 536.711397671 147.039928122 536.711397671 147.039928122 619.588316402 172.971324145 c 2,59,-1
 642.093619163 180.013018352 l 1,60,-1
 640.566945719 203.544770897 l 2,43,44
EndSplineSet
Substitution2: "'fina' Terminal Forms in Arabic lookup 9 subtable" uniFEEE
EndChar

StartChar: uni0649
Encoding: 1609 1609 44
GlifName: uni0649
Width: 1504
VWidth: 2952
GlyphClass: 2
Flags: MW
AnchorPoint: "Anchor-7" 671.902 -716.086 basechar 0
AnchorPoint: "Anchor-10" 727.6 956.22 basechar 0
LayerCount: 2
Fore
SplineSet
248.268539955 84.2210300671 m 0,0,1
 248.126388139 -130.807111375 248.126388139 -130.807111375 374.05583291 -241.789044681 c 128,-1,2
 499.98527768 -352.770977986 499.98527768 -352.770977986 740.847929737 -353.607348983 c 0,3,4
 925.605821441 -354.014634969 925.605821441 -354.014634969 1071.62426785 -286.077760142 c 0,5,6
 1149.64157526 -249.887047494 1149.64157526 -249.887047494 1208.33797825 -189.575866326 c 0,7,8
 1272.03276299 -124.159021807 1272.03276299 -124.159021807 1271.80775229 -40.3762301062 c 0,9,10
 1271.90348237 -11.83068673 1271.90348237 -11.83068673 1256.93533307 8.28238986548 c 128,-1,11
 1241.96718377 28.395466461 1241.96718377 28.395466461 1218.07016764 37.6135589292 c 128,-1,12
 1194.17315151 46.8316513974 1194.17315151 46.8316513974 1163.74630103 47.0141090638 c 2,13,-1
 1050.54097121 47.6929476017 l 2,14,15
 972.334789853 48.1027070896 972.334789853 48.1027070896 923.564285716 67.1846654203 c 128,-1,16
 874.79378158 86.2666237511 874.79378158 86.2666237511 852.822941081 122.927430866 c 128,-1,17
 830.852100583 159.588237982 830.852100583 159.588237982 830.791974058 216.762916962 c 0,18,19
 830.987180053 394.322473652 830.987180053 394.322473652 943.109192998 516.722337783 c 0,20,21
 960.95603587 536.18115356 960.95603587 536.18115356 980.533423213 553.215219065 c 128,-1,22
 1000.11081056 570.249284569 1000.11081056 570.249284569 1021.57247627 584.969739389 c 128,-1,23
 1043.03414199 599.690194209 1043.03414199 599.690194209 1066.32882321 611.990545864 c 128,-1,24
 1089.62350444 624.290897518 1089.62350444 624.290897518 1114.85138422 634.247028341 c 128,-1,25
 1140.079264 644.203159164 1140.079264 644.203159164 1167.24620037 651.746184413 c 128,-1,26
 1194.41313674 659.289209661 1194.41313674 659.289209661 1223.56219185 664.457403932 c 128,-1,27
 1252.71124697 669.625598202 1252.71124697 669.625598202 1283.90539976 672.387684488 c 128,-1,28
 1315.09955255 675.149770774 1315.09955255 675.149770774 1348.32831433 675.508766419 c 1,29,-1
 1348.11778571 542.709596758 l 1,30,31
 1183.85686505 541.112184622 1183.85686505 541.112184622 1074.14892119 464.474843738 c 0,32,33
 954.224041674 380.805714036 954.224041674 380.805714036 952.436726652 256.43354847 c 0,34,35
 952.144108333 236.187524288 952.144108333 236.187524288 958.386000228 218.824331115 c 128,-1,36
 964.627892123 201.461137942 964.627892123 201.461137942 978.87905552 189.885903589 c 0,37,38
 1004.06979288 169.136365907 1004.06979288 169.136365907 1052.04970547 169.215861489 c 2,39,-1
 1171.13485856 169.413177975 l 2,40,41
 1280.54661039 169.684197828 1280.54661039 169.684197828 1329.37216845 128.66277286 c 128,-1,42
 1378.19772652 87.6413478929 1378.19772652 87.6413478929 1378.35158452 0.17307012015 c 4,43,44
 1378.18601135 -136.470790309 1378.18601135 -136.470790309 1311.47519701 -234.067176667 c 128,-1,45
 1244.76438267 -331.663563025 1244.76438267 -331.663563025 1107.52281477 -394.427735062 c 0,46,47
 944.451473389 -469.006376158 944.451473389 -469.006376158 735.996232811 -469.20898601 c 0,48,49
 289.031954366 -469.061417972 289.031954366 -469.061417972 174.581377977 -175.068037183 c 0,50,51
 132.983563003 -67.0592323302 132.983563003 -67.0592323302 132.761700151 80.9763602077 c 0,52,53
 132.980425752 277.404499849 132.980425752 277.404499849 228.731033611 514.191667762 c 1,54,-1
 331.967233091 471.639996856 l 1,55,56
 248.008124337 259.5091505 248.008124337 259.5091505 248.268539955 84.2210300671 c 0,0,1
EndSplineSet
Substitution2: "'fina' Terminal Forms in Arabic lookup 9 subtable" uniFEF0
Substitution2: "'medi' Medial Forms in Arabic lookup 11 subtable" uniFBE9
Substitution2: "'init' Initial Forms in Arabic lookup 13 subtable" uniFBE8
EndChar

StartChar: uni064B
Encoding: 1611 1611 46
GlifName: uni064B_
Width: -26
VWidth: 2316
GlyphClass: 4
Flags: W
AnchorPoint: "Anchor-10" 593.551 1113.65 mark 0
AnchorPoint: "Anchor-9" 593.551 1113.65 mark 0
AnchorPoint: "Anchor-1" 553.285 1596.25 basemark 0
AnchorPoint: "Anchor-1" 593.551 1113.65 mark 0
LayerCount: 2
Fore
SplineSet
341.700195312 1098.74338944 m 1,0,-1
 341.700195312 1169.90729042 l 1,1,-1
 767.099609375 1343.93527714 l 1,2,-1
 767.099609375 1272.77046393 l 1,3,-1
 341.700195312 1098.74338944 l 1,0,-1
341.700195312 1310.74338944 m 1,4,-1
 341.700195312 1381.90729042 l 1,5,-1
 767.099609375 1555.93527714 l 1,6,-1
 767.099609375 1484.77046393 l 1,7,-1
 341.700195312 1310.74338944 l 1,4,-1
EndSplineSet
EndChar

StartChar: uni064C
Encoding: 1612 1612 47
GlifName: uni064C_
Width: -26
VWidth: 2316
GlyphClass: 4
Flags: W
AnchorPoint: "Anchor-10" 680.906 1218.67 mark 0
AnchorPoint: "Anchor-9" 680.906 1218.67 mark 0
AnchorPoint: "Anchor-1" 571.739 1915.46 basemark 0
AnchorPoint: "Anchor-1" 680.906 1218.67 mark 0
LayerCount: 2
Fore
SplineSet
576.251005355 1726.89125325 m 0,0,1
 553.052616685 1699.57136431 553.052616685 1699.57136431 552.713513768 1664.12758669 c 0,2,3
 553.042001397 1597.43562898 553.042001397 1597.43562898 627.768446666 1566.01811352 c 0,4,5
 640.103537373 1560.83202576 640.103537373 1560.83202576 658.872977534 1554.50582643 c 128,-1,6
 677.642417694 1548.1796271 677.642417694 1548.1796271 703.486426876 1540.46042046 c 2,7,-1
 714.736924058 1537.1000706 l 1,8,-1
 720.700518265 1547.21447529 l 2,9,10
 749.999832808 1596.90684435 749.999832808 1596.90684435 750.001953122 1648.8206109 c 0,11,12
 750.000888661 1702.32893305 750.000888661 1702.32893305 725.435625817 1732.01543949 c 128,-1,13
 700.870362973 1761.70194593 700.870362973 1761.70194593 654.195570798 1761.29358315 c 0,14,15
 604.98942482 1760.95164503 604.98942482 1760.95164503 576.251005355 1726.89125325 c 0,0,1
304.209399481 1499.47949219 m 1,16,17
 313.143948394 1272.90223336 313.143948394 1272.90223336 452.68919645 1274.27616166 c 0,18,19
 530.136795135 1275.06145394 530.136795135 1275.06145394 610.992498878 1353.37516161 c 0,20,21
 657.27459091 1399.03861502 657.27459091 1399.03861502 698.008346723 1479.4019588 c 2,22,-1
 706.830015727 1496.80616827 l 1,23,-1
 687.742831559 1500.85681661 l 1,24,-1
 658.196982724 1507.12691826 l 2,25,26
 563.564223392 1527.49992199 563.564223392 1527.49992199 530.259266768 1571.1111921 c 0,27,28
 501 1610.0115111 501 1610.0115111 501 1655.09960938 c 0,29,30
 501 1702.41785382 501 1702.41785382 516.427871093 1732.87728534 c 0,31,32
 529.845170751 1758.92954439 529.845170751 1758.92954439 548.750729321 1776.00866993 c 128,-1,33
 567.656287891 1793.08779547 567.656287891 1793.08779547 592.916289256 1801.68672457 c 128,-1,34
 618.176290621 1810.28565367 618.176290621 1810.28565367 650.297168018 1810.4145616 c 0,35,36
 715.989822302 1810.95047089 715.989822302 1810.95047089 754.758467751 1773.50280647 c 0,37,38
 798.028310699 1731.6161914 798.028310699 1731.6161914 798.391129555 1650.23229381 c 0,39,40
 798.501686317 1642.90649092 798.501686317 1642.90649092 797.759102866 1634.37034717 c 128,-1,41
 797.016519415 1625.83420341 797.016519415 1625.83420341 795.380507457 1615.93758649 c 128,-1,42
 793.744495499 1606.04096956 793.744495499 1606.04096956 791.239999129 1595.01933271 c 128,-1,43
 788.735502758 1583.99769587 788.735502758 1583.99769587 785.272428109 1571.58924032 c 128,-1,44
 781.80935346 1559.18078477 781.80935346 1559.18078477 777.462450198 1545.73263026 c 2,45,-1
 771.460112218 1527.16300409 l 1,46,-1
 790.948880136 1526.13977272 l 1,47,-1
 821.076854795 1524.55794471 l 2,48,49
 842.878179669 1523.40766027 842.878179669 1523.40766027 865.497070312 1522.82782853 c 1,50,-1
 865.497070312 1474.41330741 l 1,51,52
 839.094134333 1475.1910653 839.094134333 1475.1910653 831.3263111 1475.93797138 c 2,53,-1
 755.1544361 1483.26219013 l 1,54,-1
 744.072360792 1484.32777429 l 1,55,-1
 739.843167838 1474.02914381 l 2,56,57
 725.016687129 1437.92475044 725.016687129 1437.92475044 705.699191577 1405.76737165 c 128,-1,58
 686.381696025 1373.60999286 686.381696025 1373.60999286 662.530503126 1345.3147602 c 128,-1,59
 638.679310226 1317.01952754 638.679310226 1317.01952754 610.197704654 1292.45417436 c 0,60,61
 571.832463366 1258.83684232 571.832463366 1258.83684232 532.884613577 1242.40869561 c 128,-1,62
 493.936763787 1225.98054889 493.936763787 1225.98054889 453.601823231 1225.96366509 c 0,63,64
 412.451760003 1225.75005424 412.451760003 1225.75005424 381.218131435 1241.70951861 c 128,-1,65
 349.984502867 1257.66898298 349.984502867 1257.66898298 327.746933348 1290.91996792 c 128,-1,66
 305.509363829 1324.17095285 305.509363829 1324.17095285 293.191426067 1376.26865885 c 128,-1,67
 280.873488305 1428.36636485 280.873488305 1428.36636485 278.509002569 1499.47949219 c 1,68,-1
 304.209399481 1499.47949219 l 1,16,17
EndSplineSet
EndChar

StartChar: uni064D
Encoding: 1613 1613 48
GlifName: uni064D_
Width: -26
VWidth: 2316
GlyphClass: 4
Flags: W
AnchorPoint: "Anchor-7" 546.278 61.7109 mark 0
AnchorPoint: "Anchor-6" 546.278 61.7109 mark 0
AnchorPoint: "Anchor-0" 592.022 -407.025 basemark 0
AnchorPoint: "Anchor-0" 546.278 61.7109 mark 0
LayerCount: 2
Fore
SplineSet
347.099609375 -423.65701932 m 1,0,-1
 347.099609375 -352.493108376 l 1,1,-1
 772.5 -178.465095337 l 1,2,-1
 772.5 -249.629918511 l 1,3,-1
 347.099609375 -423.65701932 l 1,0,-1
347.099609375 -211.65701932 m 1,4,-1
 347.099609375 -140.493108376 l 1,5,-1
 772.5 33.5349046624 l 1,6,-1
 772.5 -37.6299185118 l 1,7,-1
 347.099609375 -211.65701932 l 1,4,-1
EndSplineSet
EndChar

StartChar: uni064E
Encoding: 1614 1614 49
GlifName: uni064E_
Width: -26
VWidth: 2316
GlyphClass: 4
Flags: W
AnchorPoint: "Anchor-10" 581.66 1364.63 mark 0
AnchorPoint: "Anchor-9" 581.66 1364.63 mark 0
AnchorPoint: "Anchor-1" 541.396 1651.77 basemark 0
AnchorPoint: "Anchor-1" 581.66 1364.63 mark 0
LayerCount: 2
Fore
SplineSet
311.099609375 1371.4426344 m 1,0,-1
 311.099609375 1442.60747757 l 1,1,-1
 736.5 1616.6354906 l 1,2,-1
 736.5 1545.47064743 l 1,3,-1
 311.099609375 1371.4426344 l 1,0,-1
EndSplineSet
EndChar

StartChar: uni064F
Encoding: 1615 1615 50
GlifName: uni064F_
Width: -26
VWidth: 2316
GlyphClass: 4
Flags: W
AnchorPoint: "Anchor-10" 591.295 1299.37 mark 0
AnchorPoint: "Anchor-9" 591.295 1299.37 mark 0
AnchorPoint: "Anchor-1" 570.134 1910.4 basemark 0
AnchorPoint: "Anchor-1" 591.295 1299.37 mark 0
LayerCount: 2
Fore
SplineSet
797.65234375 1479.08363529 m 1,0,1
 772.526892241 1479.3736197 772.526892241 1479.3736197 752.404573758 1480.56105531 c 128,-1,2
 732.282255276 1481.74849093 732.282255276 1481.74849093 715.934654387 1483.87471386 c 2,3,-1
 684.617271575 1487.94795605 l 1,4,-1
 675.644916275 1489.1149302 l 1,5,-1
 670.427575883 1481.72274869 l 2,6,7
 553.288046222 1315.75376823 553.288046222 1315.75376823 333.57421875 1298.66242142 c 1,8,-1
 333.57421875 1346.74449115 l 1,9,10
 516.633485464 1359.47187457 516.633485464 1359.47187457 608.151796479 1488.83803298 c 2,11,-1
 621.510095467 1507.72072218 l 1,12,-1
 598.820873118 1512.21508449 l 2,13,14
 558.178904004 1520.26559107 558.178904004 1520.26559107 513.804524164 1544.5608508 c 0,15,16
 435.025687237 1588.76853723 435.025687237 1588.76853723 435.249744962 1665.44354134 c 0,17,18
 435.937584771 1724.54940118 435.937584771 1724.54940118 467.743178644 1763.2314271 c 0,19,20
 509.041500846 1812.99652616 509.041500846 1812.99652616 582.980544067 1812.95996417 c 0,21,22
 638.716082427 1812.99653019 638.716082427 1812.99653019 679.303328024 1780.31681191 c 0,23,24
 708.422707768 1756.8691236 708.422707768 1756.8691236 721.679461763 1721.97012364 c 0,25,26
 724.73897851 1713.56205796 724.73897851 1713.56205796 726.749518993 1704.55062909 c 128,-1,27
 728.760059475 1695.53920023 728.760059475 1695.53920023 729.723556812 1685.73781043 c 128,-1,28
 730.687054148 1675.93642063 730.687054148 1675.93642063 730.546553715 1665.5405972 c 0,29,30
 730.28773169 1637.85173366 730.28773169 1637.85173366 724.16213037 1609.49416943 c 128,-1,31
 718.036529049 1581.1366052 718.036529049 1581.1366052 705.95169115 1551.99376821 c 2,32,-1
 698.124476993 1533.1182791 l 1,33,-1
 718.478074946 1531.30708582 l 1,34,-1
 738.293922082 1529.54374682 l 2,35,36
 769.202794746 1526.80840088 769.202794746 1526.80840088 797.65234375 1526.94823629 c 1,37,-1
 797.65234375 1479.08363529 l 1,0,1
653.695468043 1553.81279358 m 1,38,-1
 659.852428704 1568.01168133 l 2,39,40
 681.988157407 1618.84876839 681.988157407 1618.84876839 682.15831212 1663.71709561 c 0,41,42
 682.068685974 1687.10509376 682.068685974 1687.10509376 674.488414388 1705.78027434 c 128,-1,43
 666.908142802 1724.45545493 666.908142802 1724.45545493 651.733496207 1736.87010152 c 0,44,45
 622.672661438 1761.91271506 622.672661438 1761.91271506 587.117730441 1762.47064331 c 0,46,47
 570.167227502 1762.66990933 570.167227502 1762.66990933 555.280894258 1758.59360279 c 128,-1,48
 540.394561014 1754.51729625 540.394561014 1754.51729625 527.756197207 1746.04946577 c 128,-1,49
 515.1178334 1737.58163529 515.1178334 1737.58163529 505.456976347 1724.97534822 c 0,50,51
 498.666497078 1716.03850127 498.666497078 1716.03850127 494.087516079 1705.93261896 c 128,-1,52
 489.508535079 1695.82673664 489.508535079 1695.82673664 487.213465565 1684.84358643 c 128,-1,53
 484.918396051 1673.86043621 484.918396051 1673.86043621 484.868074567 1662.03824221 c 0,54,55
 485.026929609 1605.3728839 485.026929609 1605.3728839 559.426445871 1571.18266113 c 0,56,57
 583.793225622 1559.88003521 583.793225622 1559.88003521 635.900109142 1545.33274763 c 2,58,-1
 648.49373322 1541.81683844 l 1,59,-1
 653.695468043 1553.81279358 l 1,38,-1
EndSplineSet
EndChar

StartChar: uni0650
Encoding: 1616 1616 51
GlifName: uni0650
Width: -26
VWidth: 2316
GlyphClass: 4
Flags: W
AnchorPoint: "Anchor-7" 571.144 -44.8242 mark 0
AnchorPoint: "Anchor-6" 571.144 -44.8242 mark 0
AnchorPoint: "Anchor-0" 619.091 -324.624 basemark 0
AnchorPoint: "Anchor-0" 571.144 -44.8242 mark 0
LayerCount: 2
Fore
SplineSet
357.900390625 -323.256610554 m 1,0,-1
 357.900390625 -252.092709575 l 1,1,-1
 783.299804688 -78.064722854 l 1,2,-1
 783.299804688 -149.229536064 l 1,3,-1
 357.900390625 -323.256610554 l 1,0,-1
EndSplineSet
EndChar

StartChar: uni0651
Encoding: 1617 1617 52
GlifName: uni0651
Width: -26
VWidth: 2393
GlyphClass: 4
Flags: W
AnchorPoint: "Anchor-10" 598.801 1463.71 mark 0
AnchorPoint: "Anchor-9" 598.801 1463.71 mark 0
AnchorPoint: "Anchor-1" 570.087 1849.1 basemark 0
AnchorPoint: "Anchor-1" 598.801 1463.71 mark 0
LayerCount: 2
Fore
SplineSet
594.012129616 1753.46289062 m 1,0,1
 595.280395122 1719.20898379 595.280395122 1719.20898379 595.622693071 1685.85983544 c 0,2,3
 595.510538368 1661.45776951 595.510538368 1661.45776951 600.460564778 1641.94251862 c 128,-1,4
 605.410591189 1622.42726774 605.410591189 1622.42726774 615.295524285 1608.32798666 c 128,-1,5
 625.180457382 1594.22870559 625.180457382 1594.22870559 640.795714847 1586.68663671 c 128,-1,6
 656.410972313 1579.14456784 656.410972313 1579.14456784 676.806327825 1579.25240845 c 0,7,8
 705.171889645 1579.4734296 705.171889645 1579.4734296 724.563990151 1594.00057041 c 128,-1,9
 743.956090656 1608.52771122 743.956090656 1608.52771122 753.180499106 1634.051721 c 128,-1,10
 762.404907556 1659.57573077 762.404907556 1659.57573077 762.626569489 1695.06166562 c 0,11,12
 762.756196389 1713.18582098 762.756196389 1713.18582098 759.242495799 1739.95013233 c 128,-1,13
 755.728795209 1766.71444369 755.728795209 1766.71444369 748.954301795 1800.55124384 c 1,14,-1
 808.235143737 1809.94060882 l 1,15,16
 821.931741948 1756.31495298 821.931741948 1756.31495298 821.527205212 1705.08171258 c 0,17,18
 821.679846139 1639.83433886 821.679846139 1639.83433886 806.831355631 1598.00056982 c 128,-1,19
 791.982865122 1556.16680078 791.982865122 1556.16680078 763.179755796 1536.61679674 c 128,-1,20
 734.376646471 1517.06679271 734.376646471 1517.06679271 690.288282197 1516.66561828 c 0,21,22
 633.644819074 1516.25332323 633.644819074 1516.25332323 595.669364371 1564.53941652 c 2,23,-1
 576.96127383 1588.32690273 l 1,24,-1
 569.359807513 1559.03432924 l 2,25,26
 563.724621809 1537.31890165 563.724621809 1537.31890165 555.060864162 1520.28529072 c 128,-1,27
 546.397106515 1503.25167978 546.397106515 1503.25167978 534.50824836 1490.55334387 c 128,-1,28
 522.619390206 1477.85500796 522.619390206 1477.85500796 507.312528049 1469.53647113 c 128,-1,29
 492.005665893 1461.2179343 492.005665893 1461.2179343 473.279542757 1457.08256528 c 128,-1,30
 454.55341962 1452.94719626 454.55341962 1452.94719626 432.019860423 1452.88960874 c 0,31,32
 391.298892397 1452.98329127 391.298892397 1452.98329127 364.687167236 1468.93373388 c 128,-1,33
 338.075442074 1484.88417649 338.075442074 1484.88417649 324.117754628 1519.00475802 c 128,-1,34
 310.160067182 1553.12533954 310.160067182 1553.12533954 309.301003955 1606.7278368 c 0,35,36
 308.549166732 1656.22053263 308.549166732 1656.22053263 318.25308277 1698.67736703 c 1,37,-1
 367.623468669 1690.46908018 l 1,38,39
 360.335482617 1651.26461917 360.335482617 1651.26461917 360.577567656 1619.52164463 c 0,40,41
 360.804144542 1589.21645342 360.804144542 1589.21645342 370.092577508 1567.31094001 c 128,-1,42
 379.381010474 1545.4054266 379.381010474 1545.4054266 398.091465003 1533.23287348 c 128,-1,43
 416.801919531 1521.06032037 416.801919531 1521.06032037 443.566318496 1520.90262518 c 0,44,45
 491.443789564 1520.60933943 491.443789564 1520.60933943 517.029660446 1554.23078432 c 128,-1,46
 542.615531328 1587.8522292 542.615531328 1587.8522292 544.939190555 1648.64134524 c 0,47,48
 545.803817155 1671.20086903 545.803817155 1671.20086903 546.128661889 1697.68516011 c 128,-1,49
 546.453506623 1724.16945119 546.453506623 1724.16945119 546.241191555 1753.46289062 c 1,50,-1
 594.012129616 1753.46289062 l 1,0,1
EndSplineSet
EndChar

StartChar: uni0652
Encoding: 1618 1618 53
GlifName: uni0652
Width: -26
VWidth: 2316
GlyphClass: 4
Flags: W
AnchorPoint: "Anchor-10" 603.219 1222.43 mark 0
AnchorPoint: "Anchor-9" 603.219 1222.43 mark 0
AnchorPoint: "Anchor-1" 577.537 1799.66 basemark 0
AnchorPoint: "Anchor-1" 603.219 1222.43 mark 0
LayerCount: 2
Fore
SplineSet
413.139648438 1461.671875 m 128,-1,1
 413.139648438 1537.35913786 413.139648438 1537.35913786 465.445377565 1589.66576788 c 0,2,3
 491.79470327 1616.01463977 491.79470327 1616.01463977 523.521895199 1628.99315973 c 128,-1,4
 555.249087128 1641.97167969 555.249087128 1641.97167969 593.439453125 1641.97167969 c 128,-1,5
 631.630731374 1641.97167969 631.630731374 1641.97167969 663.358180636 1628.99195801 c 128,-1,6
 695.085629898 1616.01223633 695.085629898 1616.01223633 721.432460781 1589.66585922 c 0,7,8
 773.739257812 1537.35906219 773.739257812 1537.35906219 773.739257812 1461.671875 c 0,9,10
 773.739257812 1423.48059803 773.739257812 1423.48059803 760.759331371 1391.75320476 c 128,-1,11
 747.77940493 1360.02581149 747.77940493 1360.02581149 721.432460782 1333.67886734 c 0,12,13
 708.249360985 1320.49576754 708.249360985 1320.49576754 693.789759912 1310.69357556 c 128,-1,14
 679.330158839 1300.89138358 679.330158839 1300.89138358 663.384358081 1294.36505211 c 128,-1,15
 647.438557323 1287.83872063 647.438557323 1287.83872063 630.000425919 1284.60539547 c 128,-1,16
 612.562294515 1281.37207031 612.562294515 1281.37207031 593.439453125 1281.37207031 c 0,17,18
 517.752265935 1281.37207031 517.752265935 1281.37207031 465.445560247 1333.678776 c 128,-1,0
 413.139648438 1385.98558871 413.139648438 1385.98558871 413.139648438 1461.671875 c 128,-1,1
469.538669287 1460.77229323 m 0,19,20
 469.154806335 1407.67641399 469.154806335 1407.67641399 506.332279797 1370.96580754 c 0,21,22
 542.740031882 1334.09006669 542.740031882 1334.09006669 596.116316886 1334.17189315 c 0,23,24
 622.138489918 1334.13141725 622.138489918 1334.13141725 644.83773528 1343.41915996 c 128,-1,25
 667.536980642 1352.70690267 667.536980642 1352.70690267 685.945835543 1370.965851 c 0,26,27
 694.988361029 1380.08356791 694.988361029 1380.08356791 701.846258013 1390.34493566 c 128,-1,28
 708.704154996 1400.60630342 708.704154996 1400.60630342 713.307535102 1411.86900738 c 128,-1,29
 717.910915207 1423.13171134 717.910915207 1423.13171134 720.277816509 1435.38659446 c 128,-1,30
 722.644717812 1447.64147757 722.644717812 1447.64147757 722.739651025 1460.77262865 c 0,31,32
 722.549293811 1487.02162668 722.549293811 1487.02162668 713.299535791 1509.63221292 c 128,-1,33
 704.049777771 1532.24279916 704.049777771 1532.24279916 685.945878999 1550.57829726 c 0,34,35
 667.497970783 1568.79454047 667.497970783 1568.79454047 644.844910365 1578.06301739 c 128,-1,36
 622.191849947 1587.33149431 622.191849947 1587.33149431 596.116653294 1587.37205268 c 0,37,38
 569.83357666 1587.33176043 569.83357666 1587.33176043 547.076136551 1578.02309056 c 128,-1,39
 524.318696442 1568.71442069 524.318696442 1568.71442069 506.332483085 1550.57809395 c 0,40,41
 469.154807627 1513.70427182 469.154807627 1513.70427182 469.538669287 1460.77229323 c 0,19,20
EndSplineSet
EndChar

StartChar: uni0653
Encoding: 1619 1619 54
GlifName: uni0653
Width: -30
VWidth: 2673
GlyphClass: 4
Flags: W
AnchorPoint: "Anchor-10" 461.017 1539.11 mark 0
AnchorPoint: "Anchor-9" 461.017 1539.11 mark 0
AnchorPoint: "Anchor-1" 461.017 1975.25 basemark 0
AnchorPoint: "Anchor-1" 461.017 1539.11 mark 0
LayerCount: 2
Fore
SplineSet
402.393703146 1651.66462314 m 2,0,1
 290.107722581 1667.11776731 290.107722581 1667.11776731 196.601208338 1564.89212275 c 1,2,-1
 123.09765625 1640.65722656 l 5,3,4
 234.244104141 1792.33311647 234.244104141 1792.33311647 389.372070312 1767.34863281 c 6,5,-1
 538.047851562 1743.40332031 l 6,6,7
 635 1728 635 1728 753.043945312 1783.61230469 c 5,8,-1
 798.228845219 1683.0705373 l 1,9,10
 677.627632754 1613.78607791 677.627632754 1613.78607791 542.914210959 1632.32575595 c 2,11,-1
 402.393703146 1651.66462314 l 2,0,1
EndSplineSet
EndChar

StartChar: uni0657
Encoding: 1623 1623 57
GlifName: uni0657
Width: -26
VWidth: 2316
GlyphClass: 4
Flags: W
AnchorPoint: "Anchor-10" 513.285 1370.55 mark 0
AnchorPoint: "Anchor-9" 513.285 1370.55 mark 0
AnchorPoint: "Anchor-1" 573.285 2089.85 basemark 0
AnchorPoint: "Anchor-1" 513.285 1370.55 mark 0
LayerCount: 2
Fore
SplineSet
279.529296875 1789.14623345 m 1,0,1
 305.974197359 1788.09940632 305.974197359 1788.09940632 334.198691751 1785.99322113 c 128,-1,2
 362.423186143 1783.88703595 362.423186143 1783.88703595 392.962405428 1780.68342025 c 2,3,-1
 401.733310624 1779.76333748 l 1,4,-1
 406.802154275 1786.98013416 l 1,5,-1
 408.022041721 1788.71695794 l 2,6,7
 478.375928391 1888.96012979 478.375928391 1888.96012979 568.656820811 1945.52634776 c 128,-1,8
 658.937713232 2002.09256573 658.937713232 2002.09256573 769.673828125 2015.98223794 c 1,9,-1
 769.673828125 1967.23186779 l 1,10,11
 587.62711951 1933.52159641 587.62711951 1933.52159641 474.420882952 1787.37715713 c 2,12,-1
 460.970256221 1770.01296977 l 1,13,-1
 482.038594179 1763.80334034 l 2,14,15
 541.254362237 1746.35023241 541.254362237 1746.35023241 582.165247124 1716.43603027 c 0,16,17
 642.997789594 1670.52941975 642.997789594 1670.52941975 642.976563344 1598.86606216 c 0,18,19
 642.997958691 1535.08296672 642.997958691 1535.08296672 602.45282552 1493.33603739 c 0,20,21
 563.620607167 1453.00126983 563.620607167 1453.00126983 501.355640468 1453.01367163 c 0,22,23
 433.117070631 1453.00112497 433.117070631 1453.00112497 384.257513297 1500.81330813 c 0,24,25
 346.968358956 1538.22996169 346.968358956 1538.22996169 346.636061505 1603.25513859 c 0,26,27
 346.98109254 1644.66811292 346.98109254 1644.66811292 369.700871013 1717.98482097 c 2,28,-1
 375.199167893 1735.72782086 l 1,29,-1
 356.696179319 1737.36633475 l 2,30,31
 322.07690376 1740.43201052 322.07690376 1740.43201052 279.529296875 1741.19287157 c 1,32,-1
 279.529296875 1789.14623345 l 1,0,1
501.576955845 1501.40416564 m 0,33,34
 549.695970873 1502.11150927 549.695970873 1502.11150927 573.960192455 1535.29761851 c 0,35,36
 591.952057125 1561.23814505 591.952057125 1561.23814505 592.313881812 1596.59664545 c 0,37,38
 592.238933706 1610.79032238 592.238933706 1610.79032238 588.359794466 1623.75654237 c 128,-1,39
 584.480655225 1636.72276235 584.480655225 1636.72276235 577.179636696 1647.96899646 c 128,-1,40
 569.878618166 1659.21523058 569.878618166 1659.21523058 559.172453172 1669.18012058 c 128,-1,41
 548.466288177 1679.14501058 548.466288177 1679.14501058 534.913192764 1687.48605605 c 128,-1,42
 521.360097352 1695.82710152 521.360097352 1695.82710152 504.800900144 1702.83291573 c 0,43,44
 472.576816041 1716.34624132 472.576816041 1716.34624132 440.530633866 1723.5311645 c 2,45,-1
 428.348763643 1726.2624041 l 1,46,-1
 423.451365615 1714.77880169 l 2,47,48
 394.998227318 1648.0608168 394.998227318 1648.0608168 395.023446873 1604.98161288 c 0,49,50
 394.996499015 1580.87675346 394.996499015 1580.87675346 403.037496785 1562.45635759 c 0,51,52
 415.215512772 1534.49176574 415.215512772 1534.49176574 444.46778388 1517.54487383 c 0,53,54
 473.076027591 1500.93309482 473.076027591 1500.93309482 501.576955845 1501.40416564 c 0,33,34
EndSplineSet
EndChar

StartChar: uni065A
Encoding: 1626 1626 58
GlifName: uni065A_
Width: 1135
VWidth: 2316
GlyphClass: 4
Flags: W
AnchorPoint: "Anchor-10" 573.285 1350.55 mark 0
AnchorPoint: "Anchor-9" 573.285 1350.55 mark 0
AnchorPoint: "Anchor-1" 571.012 1862.38 basemark 0
AnchorPoint: "Anchor-1" 573.285 1350.55 mark 0
LayerCount: 2
Fore
SplineSet
510.873450561 1459.42578125 m 1,0,-1
 334.975512316 1753.49023438 l 1,1,-1
 404.894959599 1753.49023438 l 1,2,-1
 560.804284909 1519.61912557 l 1,3,-1
 573.285118248 1500.89730552 l 1,4,-1
 585.766004206 1519.61909049 l 1,5,-1
 741.676302345 1753.49023438 l 1,6,-1
 811.59654809 1753.49023438 l 1,7,-1
 635.695951372 1459.42578125 l 1,8,-1
 510.873450561 1459.42578125 l 1,0,-1
EndSplineSet
EndChar

StartChar: afii57392
Encoding: 1632 1632 59
GlifName: afii57392
Width: 893
VWidth: 2952
GlyphClass: 2
Flags: W
LayerCount: 2
Fore
SplineSet
279.290039062 543.262695312 m 0,0,1
 279.290039062 471.259490433 279.290039062 471.259490433 329.186682516 421.366402812 c 0,2,3
 337.356748565 413.195948008 337.356748565 413.195948008 346.312101139 406.283673996 c 0,4,5
 355.267453712 399.371399984 355.267453712 399.371399984 365.038179153 393.727600995 c 0,6,7
 374.808904593 388.083802006 374.808904593 388.083802006 385.20591412 383.852156444 c 0,8,9
 400.845622036 377.486458118 400.845622036 377.486458118 417.593203915 374.302689999 c 0,10,11
 434.340785795 371.118921881 434.340785795 371.118921881 452.595108324 370.965720763 c 0,12,13
 525.216035101 371.586503229 525.216035101 371.586503229 574.995429998 421.365898126 c 0,14,15
 599.787447853 446.157915981 599.787447853 446.157915981 612.370255683 476.983647116 c 0,16,17
 624.890625 507.65932385 624.890625 507.65932385 624.890625 543.262695312 c 0,18,19
 624.890625 578.866832348 624.890625 578.866832348 612.370255684 609.543696633 c 0,20,21
 606.078777411 624.958206285 606.078777411 624.958206285 596.66709102 638.930326919 c 0,22,23
 587.255404628 652.902447553 587.255404628 652.902447553 574.995177965 665.162674215 c 0,24,25
 525.214086113 714.942583198 525.214086113 714.942583198 451.58604674 715.56162269 c 0,26,27
 415.545241624 715.254173371 415.545241624 715.254173371 384.850765928 702.633992509 c 0,28,29
 353.958386185 689.932442451 353.958386185 689.932442451 329.18743915 665.162674143 c 0,30,31
 279.290039062 615.266459352 279.290039062 615.266459352 279.290039062 543.262695312 c 0,0,1
244.842864032 746.250441537 m 0,32,33
 251.982478807 753.389757157 251.982478807 753.389757157 259.33271526 759.912515028 c 0,34,35
 266.682951712 766.435272898 266.682951712 766.435272898 274.187431049 772.301815344 c 0,36,37
 281.691910385 778.168357791 281.691910385 778.168357791 289.414221989 783.438584736 c 0,38,39
 312.449383048 799.159613643 312.449383048 799.159613643 337.469791508 809.596628127 c 0,40,41
 349.977531627 814.814235305 349.977531627 814.814235305 362.983480516 818.723694756 c 0,42,43
 375.989429404 822.633154207 375.989429404 822.633154207 389.618643798 825.261145056 c 0,44,45
 403.247858192 827.889135904 403.247858192 827.889135904 417.512800168 829.204333577 c 0,46,47
 431.777742144 830.51953125 431.777742144 830.51953125 446.678710938 830.51953125 c 0,48,49
 486.169123785 830.51953125 486.169123785 830.51953125 521.61790797 821.182724495 c 0,50,51
 556.813602598 811.912809558 556.813602598 811.912809558 588.344558262 793.342124019 c 0,52,53
 620.159288227 774.605711152 620.159288227 774.605711152 648.514335626 746.250663752 c 0,54,55
 690.898747226 703.866252153 690.898747226 703.866252153 711.856608574 653.628326341 c 0,56,57
 732.784179688 603.463009014 732.784179688 603.463009014 732.784179688 544.4140625 c 0,58,59
 732.784179688 485.035858596 732.784179688 485.035858596 711.956600095 435.114002359 c 0,60,61
 691.129020502 385.192146123 691.129020502 385.192146123 648.514335626 342.577461248 c 0,62,63
 627.205259069 321.26838469 627.205259069 321.26838469 603.973374751 305.449439852 c 0,64,65
 580.958220601 289.777789374 580.958220601 289.777789374 555.961378548 279.419638026 c 0,66,67
 543.465978422 274.241545615 543.465978422 274.241545615 530.452650695 270.376170205 c 0,68,69
 517.439322968 266.510794796 517.439322968 266.510794796 503.849992111 263.946853084 c 0,70,71
 476.498615349 258.787268128 476.498615349 258.787268128 446.624811166 258.924143882 c 0,72,73
 387.48787082 258.652445854 387.48787082 258.652445854 337.382589497 279.420691318 c 0,74,75
 320.737398541 286.31998458 320.737398541 286.31998458 304.983614059 295.567362221 c 0,76,77
 289.155050782 304.858634569 289.155050782 304.858634569 274.174355022 316.555284521 c 0,78,79
 259.079406852 328.341140643 259.079406852 328.341140643 244.843308642 342.577238851 c 0,80,81
 202.460855236 384.960580927 202.460855236 384.960580927 181.503915448 435.198408687 c 0,82,83
 174.54139934 451.88890303 174.54139934 451.88890303 169.903847064 469.46638243 c 0,84,85
 165.266294788 487.04386183 165.266294788 487.04386183 162.921721613 505.802627504 c 0,86,87
 160.577148438 524.561393179 160.577148438 524.561393179 160.577148438 544.415039062 c 0,88,89
 160.577148438 603.469391552 160.577148438 603.469391552 181.499133152 653.626051024 c 0,90,91
 202.455028867 703.86260637 202.455028867 703.86260637 244.842864032 746.250441537 c 0,32,33
EndSplineSet
EndChar

StartChar: afii57393
Encoding: 1633 1633 60
GlifName: afii57393
Width: 716
VWidth: 2952
GlyphClass: 2
Flags: W
LayerCount: 2
Fore
SplineSet
293.611814964 1338.5260701 m 1,0,1
 388.760656985 1121.1609079 388.760656985 1121.1609079 436.43794568 858.853089244 c 0,2,3
 484.115234375 596.54527059 484.115234375 596.54527059 484.115234375 288.771484375 c 2,4,-1
 484.115234375 41.5537109375 l 1,5,-1
 364.796352526 41.5537109375 l 1,6,-1
 364.791990609 291.908234841 l 2,7,8
 364.994136516 914.923819111 364.994136516 914.923819111 186.354159814 1300.71920495 c 1,9,-1
 293.611814964 1338.5260701 l 1,0,1
EndSplineSet
EndChar

StartChar: afii57394
Encoding: 1634 1634 61
GlifName: afii57394
Width: 1197
VWidth: 2952
GlyphClass: 2
Flags: W
LayerCount: 2
Fore
SplineSet
382.997070312 1084.18359375 m 6,0,1
 417.669111413 988.207465821 417.669111413 988.207465821 493.712890625 940.528320312 c 4,2,3
 571 892 571 892 685.096679688 891.76953125 c 4,4,5
 811 892 811 892 867.9609375 1002.24316406 c 4,6,7
 922 1108 922 1108 925.739257812 1334.45214844 c 5,8,-1
 1045.26269531 1334.08398438 l 5,9,10
 1045 1320 1045 1320 1044.56152344 1305.68652344 c 4,11,12
 1044 1292 1044 1292 1043.58691406 1278.17480469 c 4,13,14
 1043 1265 1043 1265 1042.34277344 1251.54882812 c 4,15,16
 1042 1238 1042 1238 1040.82714844 1225.73339844 c 4,17,18
 1035 1143 1035 1143 1020.85351562 1075.29394531 c 4,19,20
 1007 1008 1007 1008 986.56640625 958.081054688 c 4,21,22
 966 909 966 909 939.313476562 874.82421875 c 4,23,24
 895 819 895 819 833.021484375 791.713867188 c 4,25,26
 771 764 771 764 689.338867188 764.568359375 c 4,27,28
 543 765 543 765 442.349609375 841.073242188 c 5,29,-1
 450.685546875 777.602539062 l 5,30,-1
 451.520507812 771.243164062 l 6,31,32
 484.115234375 522.119255138 484.115234375 522.119255138 484.115234375 288.771484375 c 6,33,-1
 484.115234375 41.5537109375 l 1,34,-1
 364.796387315 41.5537109375 l 1,35,-1
 364.791992188 291.908203125 l 6,36,37
 365 915 365 915 186.353515625 1300.71972656 c 5,38,-1
 291.395507812 1337.74707031 l 5,39,-1
 382.997070312 1084.18359375 l 6,0,1
EndSplineSet
EndChar

StartChar: afii57395
Encoding: 1635 1635 62
GlifName: afii57395
Width: 1492
VWidth: 2952
GlyphClass: 2
Flags: W
LayerCount: 2
Fore
SplineSet
451.345703125 772.504882812 m 6,0,1
 484.115234375 525.301719888 484.115234375 525.301719888 484.115234375 288.771484375 c 6,2,-1
 484.115234375 41.5537109375 l 1,3,-1
 364.796387313 41.5537109375 l 1,4,-1
 364.791992188 291.907226562 l 6,5,6
 365 915 365 915 186.353515625 1300.71972656 c 5,7,-1
 291.05859375 1337.62890625 l 5,8,-1
 390.837890625 1051.74316406 l 6,9,10
 415 982 415 982 471.830078125 944.982421875 c 4,11,12
 528 908 528 908 610.325195312 907.6328125 c 4,13,14
 706 907 706 907 751.9921875 983.319335938 c 4,15,16
 797.440645908 1061.76052722 797.440645908 1061.76052722 794.357421875 1195.25292969 c 6,17,-1
 792.340820312 1282.56445312 l 5,18,-1
 891.099609375 1285.70800781 l 5,19,-1
 894.020507812 1171.65136719 l 6,20,21
 897 1044 897 1044 943.442382812 972.998046875 c 132,-1,22
 990 902 990 902 1080.23632812 900.892578125 c 4,23,24
 1122 900 1122 900 1154.6484375 920.346679688 c 4,25,26
 1187 940 1187 940 1204.88769531 978.327148438 c 4,27,28
 1227 1028 1227 1028 1231.17285156 1084.38574219 c 4,29,30
 1234 1118 1234 1118 1235.74804688 1147.39160156 c 4,31,32
 1238 1177 1238 1177 1238.52441406 1201.79394531 c 4,33,34
 1239 1227 1239 1227 1239.51855469 1248.22753906 c 6,35,-1
 1239.76074219 1351.15820312 l 5,36,-1
 1356.5 1351.26660156 l 5,37,-1
 1356.0546875 1250.69433594 l 6,38,39
 1356 1223 1356 1223 1355.23535156 1206.58398438 c 4,40,41
 1354 1184 1354 1184 1352.82910156 1158.45410156 c 4,42,43
 1351 1133 1351 1133 1348.81445312 1106.04296875 c 4,44,45
 1335 935 1335 935 1270.21875 855.9453125 c 4,46,47
 1205 777 1205 777 1086.92089844 777.767578125 c 4,48,49
 942 779 942 779 836.838867188 900.555664062 c 5,50,51
 736 777 736 777 623.118164062 776.943359375 c 4,52,53
 516 777 516 777 440.279296875 855.98828125 c 5,54,-1
 450.33984375 780.092773438 l 5,55,-1
 451.345703125 772.504882812 l 6,0,1
EndSplineSet
EndChar

StartChar: afii57396
Encoding: 1636 1636 63
GlifName: afii57396
Width: 1046
VWidth: 2952
GlyphClass: 2
Flags: W
LayerCount: 2
Fore
SplineSet
169.291126771 299.876376702 m 0,0,1
 161.675036235 522.757788904 161.675036235 522.757788904 543.80490484 691.643406203 c 2,2,-1
 630.065437619 729.76699853 l 1,3,-1
 537.632314143 748.486119549 l 2,4,5
 389.816391778 778.421104273 389.816391778 778.421104273 320.589547141 847.187717038 c 128,-1,6
 251.362702504 915.954329803 251.362702504 915.954329803 251.662880522 1026.84601386 c 0,7,8
 251.965210393 1108.54343185 251.965210393 1108.54343185 294.176007404 1169.23658548 c 0,9,10
 397.911235886 1320.18444028 397.911235886 1320.18444028 666.300844666 1323.32958829 c 0,11,12
 718.605039369 1323.85412926 718.605039369 1323.85412926 778.168935556 1317.81374196 c 1,13,-1
 769.67100533 1195.19116679 l 1,14,15
 735.020937792 1198.12957415 735.020937792 1198.12957415 704.188882702 1198.45867721 c 0,16,17
 556.30339511 1198.7423948 556.30339511 1198.7423948 473.921278603 1152.42830777 c 128,-1,18
 391.539162096 1106.11422073 391.539162096 1106.11422073 390.830597351 1009.26146389 c 0,19,20
 390.567758267 964.587787134 390.567758267 964.587787134 415.472472365 930.16357436 c 128,-1,21
 440.377186463 895.739361586 440.377186463 895.739361586 488.608853592 872.361674665 c 128,-1,22
 536.840520722 848.983987744 536.840520722 848.983987744 600.49875325 834.239737654 c 128,-1,23
 664.156985778 819.495487564 664.156985778 819.495487564 748.107329266 811.245178573 c 1,24,-1
 749.796435014 675.241421961 l 1,25,26
 518.238575664 580.723703667 518.238575664 580.723703667 403.762508117 491.41399582 c 128,-1,27
 289.28644057 402.104287973 289.28644057 402.104287973 295.574241327 305.403879577 c 0,28,29
 297.664237479 270.140137896 297.664237479 270.140137896 318.560304281 243.488213872 c 128,-1,30
 339.456371083 216.836289849 339.456371083 216.836289849 374.885628336 199.539698629 c 128,-1,31
 410.314885589 182.243107409 410.314885589 182.243107409 462.996801357 171.583222884 c 128,-1,32
 515.678717125 160.923338359 515.678717125 160.923338359 576.559708838 156.746464287 c 128,-1,33
 637.44070055 152.569590215 637.44070055 152.569590215 714.020938643 153.054311875 c 2,34,-1
 878.128592264 154.093046363 l 1,35,-1
 879.620473469 30.0868290749 l 1,36,-1
 707.163515446 30.4686366702 l 2,37,38
 178.941831221 31.920560851 178.941831221 31.920560851 169.291126771 299.876376702 c 0,0,1
EndSplineSet
EndChar

StartChar: afii57397
Encoding: 1637 1637 64
GlifName: afii57397
Width: 1166
VWidth: 2952
GlyphClass: 2
Flags: W
LayerCount: 2
Fore
SplineSet
533.705175044 1046.16320225 m 2,0,1
 499.316913771 1009.48057826 499.316913771 1009.48057826 469.1941509 973.416432992 c 128,-1,2
 439.071388029 937.352287724 439.071388029 937.352287724 412.967796493 901.5857869 c 128,-1,3
 386.864204958 865.819286077 386.864204958 865.819286077 365.083126462 830.57864733 c 128,-1,4
 343.302047966 795.338008583 343.302047966 795.338008583 325.689299823 760.469303588 c 128,-1,5
 308.076551679 725.600598592 308.076551679 725.600598592 294.837188255 691.154011971 c 128,-1,6
 281.597824831 656.70742535 281.597824831 656.70742535 272.675950776 622.707061787 c 128,-1,7
 263.75407672 588.706698223 263.75407672 588.706698223 259.256459064 555.024709333 c 128,-1,8
 254.758841408 521.342720442 254.758841408 521.342720442 254.721729178 488.170116852 c 0,9,10
 255.026786981 320.225627753 255.026786981 320.225627753 370.365652186 231.322862763 c 0,11,12
 462.797004125 159.978112294 462.797004125 159.978112294 609.082461448 160.290943771 c 0,13,14
 752.914606322 159.968755614 752.914606322 159.968755614 843.162631178 266.946328051 c 0,15,16
 912.059918099 348.047990745 912.059918099 348.047990745 911.259691037 495.40378663 c 0,17,18
 910.986355157 793.915339597 910.986355157 793.915339597 573.713322026 1049.55388137 c 2,19,-1
 552.182500896 1065.87332341 l 1,20,-1
 533.705175044 1046.16320225 l 2,0,1
393.122333115 1192.34848776 m 1,21,-1
 470.062073427 1303.74279375 l 1,22,23
 1026.03818923 939.274642756 1026.03818923 939.274642756 1026.70607167 472.23175181 c 0,24,25
 1026.75323508 427.905350042 1026.75323508 427.905350042 1022.08301549 388.389171973 c 128,-1,26
 1017.4127959 348.872993903 1017.4127959 348.872993903 1008.04120244 314.284902667 c 128,-1,27
 998.669608987 279.696811431 998.669608987 279.696811431 984.776223956 249.721838338 c 128,-1,28
 970.882838925 219.746865245 970.882838925 219.746865245 952.306873795 194.235047358 c 128,-1,29
 933.730908664 168.723229472 933.730908664 168.723229472 910.840529901 147.645279245 c 128,-1,30
 887.950151139 126.567329018 887.950151139 126.567329018 860.40777255 109.505457442 c 0,31,32
 744.52755362 38.0223745814 744.52755362 38.0223745814 605.35738636 38.3884690471 c 0,33,34
 446.69553848 38.9719045915 446.69553848 38.9719045915 322.384805717 106.719932627 c 0,35,36
 136.167522782 207.762699052 136.167522782 207.762699052 138.627474636 470.652234359 c 0,37,38
 141.887783894 804.367365291 141.887783894 804.367365291 429.295899124 1123.86617714 c 2,39,-1
 451.006577412 1148.00097206 l 1,40,-1
 425.237254548 1167.74391704 l 1,41,-1
 393.122333115 1192.34848776 l 1,21,-1
EndSplineSet
EndChar

StartChar: afii57398
Encoding: 1638 1638 65
GlifName: afii57398
Width: 1265
VWidth: 2952
GlyphClass: 2
Flags: W
LayerCount: 2
Fore
SplineSet
957.972170251 41.5537109375 m 1,0,1
 842.656889156 526.605184006 842.656889156 526.605184006 831.398062693 1127.89952172 c 2,2,-1
 830.676284031 1166.44718244 l 1,3,-1
 793.48802095 1156.27485722 l 2,4,5
 627.927173432 1110.98802088 627.927173432 1110.98802088 464.075519875 1110.50088068 c 0,6,7
 282.03393002 1110.04063369 282.03393002 1110.04063369 111.41796875 1182.9053571 c 1,8,-1
 111.41796875 1328.05495287 l 1,9,10
 297.443650852 1252.01936168 297.443650852 1252.01936168 510.295348534 1252.2422054 c 0,11,12
 718.032433685 1252.01524235 718.032433685 1252.01524235 936.177319127 1332.2892122 c 1,13,14
 950.186532366 515.19211793 950.186532366 515.19211793 1083.12317256 41.5537109375 c 1,15,-1
 957.972170251 41.5537109375 l 1,0,1
EndSplineSet
EndChar

StartChar: afii57399
Encoding: 1639 1639 66
GlifName: afii57399
Width: 1281
VWidth: 2952
GlyphClass: 2
Flags: W
LayerCount: 2
Fore
SplineSet
1142.53584706 1276.85141176 m 1,0,1
 838.531706821 659.635321928 838.531706821 659.635321928 700.179507103 41.5537109375 c 1,2,-1
 580.672000633 41.5537109375 l 1,3,4
 441.729128405 660.131833887 441.729128405 660.131833887 138.322992722 1276.83187385 c 1,5,-1
 252.584560621 1334.87009492 l 1,6,7
 508.088283994 780.44051553 508.088283994 780.44051553 611.172734666 320.568922693 c 2,8,-1
 640.462316355 189.904729433 l 1,9,-1
 669.72137546 320.575760867 l 2,10,11
 772.908906225 781.411532393 772.908906225 781.411532393 1028.29342534 1334.87836232 c 1,12,-1
 1142.53584706 1276.85141176 l 1,0,1
EndSplineSet
EndChar

StartChar: afii57400
Encoding: 1640 1640 67
GlifName: afii57400
Width: 1281
VWidth: 2952
GlyphClass: 2
Flags: W
LayerCount: 2
Fore
SplineSet
1142.53584706 90.405424174 m 1,0,-1
 1028.29342534 32.3784736181 l 1,1,2
 772.908906225 585.845303545 772.908906225 585.845303545 669.72137546 1046.68107507 c 2,3,-1
 640.462316355 1177.3521065 l 1,4,-1
 611.172734666 1046.68791324 l 2,5,6
 508.088283994 586.816320407 508.088283994 586.816320407 252.584560622 32.3867410182 c 1,7,-1
 138.322992722 90.4249620889 l 1,8,9
 441.729128405 707.12500205 441.729128405 707.12500205 580.672000633 1325.703125 c 1,10,-1
 700.179507103 1325.703125 l 1,11,12
 838.531706821 707.621514009 838.531706821 707.621514009 1142.53584706 90.405424174 c 1,0,-1
EndSplineSet
EndChar

StartChar: afii57401
Encoding: 1641 1641 68
GlifName: afii57401
Width: 1139
VWidth: 2952
GlyphClass: 2
Flags: W
LayerCount: 2
Fore
SplineSet
499.895996094 605.165039062 m 0,0,1
 407.286435674 605.165039062 407.286435674 605.165039062 339.877578896 624.638989678 c 128,-1,2
 272.468722119 644.112940293 272.468722119 644.112940293 228.436399203 684.101957871 c 128,-1,3
 184.404076287 724.090975449 184.404076287 724.090975449 163.18145447 784.022448048 c 128,-1,4
 141.958832653 843.953920646 141.958832653 843.953920646 141.946287006 925.924439205 c 0,5,6
 141.971714825 994.600818698 141.971714825 994.600818698 158.467169266 1055.05473895 c 128,-1,7
 174.962623706 1115.50865921 174.962623706 1115.50865921 207.980139012 1168.66451719 c 0,8,9
 320.692661749 1350.02499616 320.692661749 1350.02499616 515.038734253 1350.31544071 c 0,10,11
 571.600687225 1350.26695038 571.600687225 1350.26695038 618.96506736 1337.97541704 c 128,-1,12
 666.329447494 1325.6838837 666.329447494 1325.6838837 705.581147021 1300.56539687 c 128,-1,13
 744.832846547 1275.44691004 744.832846547 1275.44691004 775.056044559 1236.99559698 c 128,-1,14
 805.27924257 1198.54428393 805.27924257 1198.54428393 827.062807548 1146.39924663 c 128,-1,15
 848.846372525 1094.25420934 848.846372525 1094.25420934 861.80357556 1027.6716951 c 128,-1,16
 874.760778595 961.089180861 874.760778595 961.089180861 878.98446442 879.931304122 c 0,17,18
 889.592641183 667.108692076 889.592641183 667.108692076 897.604705766 457.253748876 c 128,-1,19
 905.616770349 247.398805676 905.616770349 247.398805676 911.001854355 41.5537109375 c 1,20,-1
 799.104927837 41.5537109375 l 1,21,-1
 786.058386961 643.550401413 l 1,22,-1
 785.032572721 690.883773773 l 1,23,-1
 742.669910028 669.743640298 l 2,24,25
 613.261006118 605.165039062 613.261006118 605.165039062 499.895996094 605.165039062 c 0,0,1
502.735371893 734.890617173 m 0,26,27
 541.007729424 734.930006861 541.007729424 734.930006861 581.705586325 742.632963976 c 128,-1,28
 622.403443226 750.33592109 622.403443226 750.33592109 664.657603828 765.285414999 c 128,-1,29
 706.91176443 780.234908907 706.91176443 780.234908907 751.712441059 802.539858981 c 2,30,-1
 769.940927197 811.615290512 l 1,31,-1
 768.236521312 831.906573491 l 1,32,-1
 766.298987023 854.973266479 l 2,33,34
 751.542764431 1029.80713463 751.542764431 1029.80713463 691.809939072 1124.34725107 c 128,-1,35
 632.077113712 1218.8873675 632.077113712 1218.8873675 523.750450799 1218.72661649 c 0,36,37
 395.839133703 1219.03686032 395.839133703 1219.03686032 321.704049183 1118.10300093 c 0,38,39
 289.776571156 1074.53891925 289.776571156 1074.53891925 273.390222042 1028.60936382 c 128,-1,40
 257.003872929 982.679808399 257.003872929 982.679808399 257.008789102 935.304282629 c 0,41,42
 257.003719447 837.071264544 257.003719447 837.071264544 321.68325859 786.010441613 c 128,-1,43
 386.362797732 734.949618682 386.362797732 734.949618682 502.735371893 734.890617173 c 0,26,27
EndSplineSet
EndChar

StartChar: afii57381
Encoding: 1642 1642 69
GlifName: afii57381
Width: 1288
VWidth: 4038
GlyphClass: 2
Flags: W
LayerCount: 2
Fore
SplineSet
779.512695312 345.344726562 m 128,-1,1
 779.512695312 402.636448097 779.512695312 402.636448097 820.632555016 442.994234082 c 0,2,3
 861.097437334 483.4591164 861.097437334 483.4591164 918.698305432 483.840499175 c 0,4,5
 947.612108582 484.031628824 947.612108582 484.031628824 971.647629659 474.024344916 c 128,-1,6
 995.696424168 464.01153456 995.696424168 464.01153456 1016.12989633 443.192724173 c 0,7,8
 1036.56689771 422.754910635 1036.56689771 422.754910635 1046.5262297 398.606886876 c 0,9,10
 1049.83198281 390.592188924 1049.83198281 390.592188924 1052.03556073 382.130161792 c 128,-1,11
 1054.23913865 373.66813466 1054.23913865 373.66813466 1055.37152245 364.441651188 c 128,-1,12
 1056.50390625 355.215167717 1056.50390625 355.215167717 1056.50390625 345.344726562 c 0,13,14
 1056.50390625 287.869591347 1056.50390625 287.869591347 1016.22917937 247.59406281 c 128,-1,15
 975.95347594 207.318359375 975.95347594 207.318359375 918.48046875 207.318359375 c 0,16,17
 889.026897175 207.318359375 889.026897175 207.318359375 865.173831498 217.161502222 c 128,-1,18
 841.32076582 227.004645069 841.32076582 227.004645069 820.613091147 247.712731762 c 0,19,0
 779.512695312 288.051116975 779.512695312 288.051116975 779.512695312 345.344726562 c 128,-1,1
230.96875299 1199.37004637 m 0,20,21
 230.96875299 1256.42903076 230.96875299 1256.42903076 272.101285474 1297.03258432 c 0,22,23
 312.515791971 1337.1524998 312.515791971 1337.1524998 370.172379107 1337.86559131 c 0,24,25
 399.398266922 1337.92182394 399.398266922 1337.92182394 423.233363589 1327.99027436 c 128,-1,26
 447.068460257 1318.05872478 447.068460257 1318.05872478 467.574854449 1297.22959519 c 0,27,28
 507.992896903 1256.62185327 507.992896903 1256.62185327 507.959965794 1199.35304785 c 0,29,30
 507.99287658 1141.51113691 507.99287658 1141.51113691 467.836846688 1101.77191847 c 0,31,32
 457.370187963 1091.51142245 457.370187963 1091.51142245 446.127566506 1083.84723707 c 128,-1,33
 434.884945049 1076.18305169 434.884945049 1076.18305169 423.076040657 1071.13703422 c 128,-1,34
 411.105266211 1066.10668682 411.105266211 1066.10668682 398.004441054 1063.65283759 c 128,-1,35
 384.903615897 1061.19898836 384.903615897 1061.19898836 370.003184777 1061.34545339 c 0,36,37
 363.373953315 1061.31277382 363.373953315 1061.31277382 357.112278742 1061.75833888 c 128,-1,38
 350.850604169 1062.20390394 350.850604169 1062.20390394 344.854452151 1063.13678102 c 128,-1,39
 338.858300133 1064.06965809 338.858300133 1064.06965809 333.159780983 1065.50943358 c 128,-1,40
 327.461261834 1066.94920907 327.461261834 1066.94920907 321.994162928 1068.88997908 c 128,-1,41
 316.527064023 1070.8307491 316.527064023 1070.8307491 311.285285851 1073.30806939 c 128,-1,42
 306.043507679 1075.78538968 306.043507679 1075.78538968 300.999047441 1078.77738701 c 128,-1,43
 295.954587203 1081.76938434 295.954587203 1081.76938434 291.063135564 1085.32758381 c 128,-1,44
 286.171683924 1088.88578328 286.171683924 1088.88578328 281.443447908 1092.9723423 c 128,-1,45
 276.715211892 1097.05890133 276.715211892 1097.05890133 272.070060453 1101.74031627 c 0,46,47
 230.96875299 1141.70409366 230.96875299 1141.70409366 230.96875299 1199.37004637 c 0,20,21
885.553786914 1366.61076584 m 1,48,-1
 985.52301666 1315.10638938 l 1,49,-1
 342.464003619 74.7672728263 l 1,50,-1
 242.257005136 129.834126352 l 1,51,-1
 885.553786914 1366.61076584 l 1,48,-1
EndSplineSet
EndChar

StartChar: uni066B
Encoding: 1643 1643 70
GlifName: uni066B_
Width: 822
VWidth: 2952
GlyphClass: 2
Flags: W
LayerCount: 2
Fore
SplineSet
548.374832671 778.784238997 m 1,0,-1
 624.51387345 746.462493042 l 1,1,-1
 184.210172166 -269.563127803 l 1,2,-1
 105.868558653 -235.467177776 l 1,3,-1
 548.374832671 778.784238997 l 1,0,-1
EndSplineSet
EndChar

StartChar: uni066C
Encoding: 1644 1644 71
GlifName: uni066C_
Width: 588
VWidth: 2842
GlyphClass: 2
Flags: W
LayerCount: 2
Fore
SplineSet
162.024630037 140.337296982 m 0,0,1
 162.923383792 185.038565565 162.923383792 185.038565565 178.798749832 214.179071715 c 0,2,3
 210.78148733 271.018164079 210.78148733 271.018164079 290.66869927 271.182850927 c 0,4,5
 336.802154343 271.440397511 336.802154343 271.440397511 369.165308907 258.73688913 c 128,-1,6
 401.528463472 246.033380748 401.528463472 246.033380748 421.150722949 220.282397724 c 128,-1,7
 440.772982425 194.5314147 440.772982425 194.5314147 448.994051987 154.708144347 c 0,8,9
 462.587056816 90.3863863856 462.587056816 90.3863863856 437.266481086 -5.41411324515 c 0,10,11
 380.780047497 -220.478337074 380.780047497 -220.478337074 186.328565816 -383.482414612 c 1,12,-1
 144.152215859 -364.100837302 l 1,13,14
 327.141574415 -190.262878287 327.141574415 -190.262878287 339.250726654 -0.738661973613 c 2,15,-1
 340.294993554 15.6054934095 l 1,16,-1
 323.922204217 15.2134756927 l 1,17,-1
 320.620545936 15.1344231369 l 1,18,-1
 313.359375392 14.9615616425 l 2,19,20
 287.441524674 14.0592715399 287.441524674 14.0592715399 269.978506043 18.0683432645 c 0,21,22
 213.129383079 29.5467262159 213.129383079 29.5467262159 187.116086175 59.3369518258 c 128,-1,23
 161.102789271 89.1271774358 161.102789271 89.1271774358 162.024630037 140.337296982 c 0,0,1
EndSplineSet
EndChar

StartChar: afii63167
Encoding: 1645 1645 72
GlifName: afii63167
Width: 1584
VWidth: 2952
GlyphClass: 2
Flags: W
LayerCount: 2
Fore
SplineSet
324.462145328 1008.65136719 m 1,0,-1
 662.741210938 1008.65136719 l 1,1,-1
 664.913085938 1008.65136719 l 1,2,-1
 686.626721466 1008.65136719 l 1,3,-1
 693.411123001 1029.27790019 l 1,4,-1
 694.093836958 1031.35355585 l 1,5,-1
 799.99532428 1353.78872388 l 1,6,-1
 905.902353562 1031.34137675 l 1,7,-1
 906.581064499 1029.27790019 l 1,8,-1
 913.365466034 1008.65136719 l 1,9,-1
 935.079101562 1008.65136719 l 1,10,-1
 937.250976562 1008.65136719 l 1,11,-1
 1275.52983377 1008.65136719 l 1,12,-1
 1002.15373577 808.803461571 l 1,13,-1
 1000.39885296 807.520258447 l 1,14,-1
 982.851902759 794.68960036 l 1,15,-1
 989.579287801 774.019246253 l 1,16,-1
 990.252606604 771.95042796 l 1,17,-1
 1094.69460094 451.100066519 l 1,18,-1
 819.323084556 650.083320767 l 1,19,-1
 817.566248619 651.352852017 l 1,20,-1
 799.995117193 664.05016767 l 1,21,-1
 782.423985764 651.352852022 l 1,22,-1
 780.667443262 650.083532813 l 1,23,-1
 505.298207966 451.100261033 l 1,24,-1
 609.739071599 771.951863528 l 1,25,-1
 610.411923162 774.019246341 l 1,26,-1
 617.139308125 794.689600419 l 1,27,-1
 599.592357952 807.520258462 l 1,28,-1
 597.834632174 808.805540159 l 1,29,-1
 324.462145328 1008.65136719 l 1,0,-1
EndSplineSet
EndChar

StartChar: uni066E
Encoding: 1646 1646 73
GlifName: uni066E_
Width: 1807
VWidth: 2952
GlyphClass: 2
Flags: W
AnchorPoint: "Anchor-10" 977.36 1415.35 basechar 0
AnchorPoint: "Anchor-7" 927.36 -257.261 basechar 0
LayerCount: 2
Fore
SplineSet
860.911132812 30 m 2,0,1
 487.612525888 30 487.612525888 30 308.848840543 144.219012859 c 128,-1,2
 130.085155198 258.438025718 130.085155198 258.438025718 130.160135179 485.90762687 c 0,3,4
 130.025880014 599.182148055 130.025880014 599.182148055 170.55756449 703.17125834 c 1,5,-1
 274.409463898 658.052076255 l 1,6,7
 249.03922455 583.855000778 249.03922455 583.855000778 249.424697603 514.457445298 c 0,8,9
 249.191229907 332.806696775 249.191229907 332.806696775 401.423133776 243.436706382 c 128,-1,10
 553.655037645 154.066715989 553.655037645 154.066715989 841.859002918 154.136719866 c 0,11,12
 943.729498562 154.10892762 943.729498562 154.10892762 1028.63741583 157.673543315 c 128,-1,13
 1113.5453331 161.238159011 1113.5453331 161.238159011 1186.42158915 168.909474705 c 128,-1,14
 1259.2978452 176.580790398 1259.2978452 176.580790398 1316.46258329 188.516916616 c 128,-1,15
 1373.62732139 200.453042833 1373.62732139 200.453042833 1417.64868311 217.273101132 c 128,-1,16
 1461.67004483 234.093159432 1461.67004483 234.093159432 1491.23094902 255.850430836 c 0,17,18
 1530.40997503 284.369078578 1530.40997503 284.369078578 1549.29119122 332.530549495 c 128,-1,19
 1568.17240741 380.692020412 1568.17240741 380.692020412 1568.38008686 445.426614538 c 0,20,21
 1568.02283149 529.679187991 1568.02283149 529.679187991 1537.5334696 668.685764797 c 1,22,-1
 1644.91238075 695.704260992 l 1,23,24
 1684.98780343 565.205513249 1684.98780343 565.205513249 1684.90625235 459.697102698 c 0,25,26
 1684.99381045 238.622017746 1684.99381045 238.622017746 1559.62650273 150.930373621 c 0,27,28
 1386.55728517 30 1386.55728517 30 864.356445312 30 c 2,29,-1
 860.911132812 30 l 2,0,1
EndSplineSet
Substitution2: "'init' Initial Forms in Arabic lookup 13 subtable" uni066E.init
Substitution2: "'medi' Medial Forms in Arabic lookup 11 subtable" uni066E.medi
Substitution2: "'fina' Terminal Forms in Arabic lookup 9 subtable" uni066E.fina
EndChar

StartChar: uni066F
Encoding: 1647 1647 74
GlifName: uni066F_
Width: 1511
VWidth: 2952
GlyphClass: 2
Flags: W
AnchorPoint: "Anchor-10" 121.809 1362.22 basechar 0
AnchorPoint: "Anchor-7" 335.219 -761.353 basechar 0
LayerCount: 2
Fore
SplineSet
747.330862614 -429.724606318 m 0,0,1
 433.751837405 -429.858217187 433.751837405 -429.858217187 282.57170985 -293.84461645 c 0,2,3
 131.391582295 -157.831015712 131.391582295 -157.831015712 131.752908717 121.00847324 c 0,4,5
 131.977260107 310.750336397 131.977260107 310.750336397 209.601575391 510.845560052 c 1,6,-1
 313.261733609 468.119630308 l 1,7,8
 248.011252004 287.811619953 248.011252004 287.811619953 248.268561223 122.880153538 c 0,9,10
 248.126201216 -92.7952574316 248.126201216 -92.7952574316 377.613376158 -203.20603441 c 0,11,12
 507.100551101 -313.616811388 507.100551101 -313.616811388 754.479612871 -313.203020397 c 0,13,14
 991.110797559 -312.578136424 991.110797559 -312.578136424 1123.16016327 -208.023380362 c 0,15,16
 1255.20952897 -103.468624299 1255.20952897 -103.468624299 1272.22738185 100.700471412 c 2,17,-1
 1272.59554591 105.1174636 l 1,18,-1
 1276.25685125 149.043416257 l 1,19,-1
 1234.05015879 136.335560994 l 2,20,21
 1204.94203334 127.57150431 1204.94203334 127.57150431 1174.17100153 121.649511946 c 0,22,23
 1143.39996972 115.727519581 1143.39996972 115.727519581 1110.69664393 112.632073495 c 0,24,25
 1077.99331815 109.536627409 1077.99331815 109.536627409 1043.52802066 109.317594908 c 0,26,27
 890.184095655 108.22286087 890.184095655 108.22286087 818.61634981 167.392848956 c 0,28,29
 747.048603965 226.562837042 747.048603965 226.562837042 745.423362324 350.974840499 c 0,30,31
 745.225876209 371.113430249 745.225876209 371.113430249 746.987563573 390.236040261 c 0,32,33
 748.749250938 409.358650273 748.749250938 409.358650273 752.449303805 427.503623406 c 0,34,35
 783.633903416 580.372497761 783.633903416 580.372497761 857.96708756 656.657709747 c 0,36,37
 931.772331036 733.044325333 931.772331036 733.044325333 1044.08187733 733.434273787 c 0,38,39
 1119.12137174 733.939537452 1119.12137174 733.939537452 1174.41884718 697.621549394 c 0,40,41
 1333.82144619 592.636722561 1333.82144619 592.636722561 1368.96580869 291.251829049 c 0,42,43
 1385.7321229 147.551692206 1385.7321229 147.551692206 1366.8599939 24.844547665 c 0,44,45
 1331.78743977 -204.300891507 1331.78743977 -204.300891507 1179.280409 -317.079589168 c 0,46,47
 1026.77337822 -429.858286828 1026.77337822 -429.858286828 747.330862614 -429.724606318 c 0,0,1
849.452074124 377.981808606 m 0,48,49
 849.792493631 300.269327981 849.792493631 300.269327981 905.253640634 261.314444165 c 0,50,51
 960.714787636 222.359560349 960.714787636 222.359560349 1056.95634134 223.234638318 c 0,52,53
 1101.25217538 223.637374358 1101.25217538 223.637374358 1145.95184871 230.520095396 c 0,54,55
 1190.65152205 237.402816434 1190.65152205 237.402816434 1235.63506573 250.709870036 c 2,56,-1
 1259.95959708 257.905564638 l 1,57,-1
 1256.90698093 283.087748435 l 2,58,59
 1242.20851544 404.340942818 1242.20851544 404.340942818 1203.3378658 487.838991588 c 0,60,61
 1146.35636384 614.030705546 1146.35636384 614.030705546 1037.43355172 613.857393894 c 0,62,63
 1011.85731417 613.892325611 1011.85731417 613.892325611 989.035938374 606.931215889 c 0,64,65
 966.21456258 599.970106167 966.21456258 599.970106167 947.230981538 586.818155877 c 0,66,67
 928.247400496 573.666205587 928.247400496 573.666205587 912.302190393 554.528781295 c 0,68,69
 896.35698029 535.391357003 896.35698029 535.391357003 884.083225139 511.28020354 c 0,70,71
 871.809469989 487.169050077 871.809469989 487.169050077 862.857594956 458.08299005 c 0,72,73
 850.072455838 416.770067436 850.072455838 416.770067436 849.452074124 377.981808606 c 0,48,49
EndSplineSet
Substitution2: "'init' Initial Forms in Arabic lookup 13 subtable" uni066F.init
Substitution2: "'medi' Medial Forms in Arabic lookup 11 subtable" uni066F.medi
Substitution2: "'fina' Terminal Forms in Arabic lookup 9 subtable" uni066F.fina
EndChar

StartChar: uni0670
Encoding: 1648 1648 75
GlifName: uni0670
Width: -29
VWidth: 2574
GlyphClass: 4
Flags: W
AnchorPoint: "Anchor-10" 636.984 1500.61 mark 0
AnchorPoint: "Anchor-9" 636.984 1500.61 mark 0
AnchorPoint: "Anchor-1" 636.984 1997.18 basemark 0
AnchorPoint: "Anchor-1" 636.984 1500.61 mark 0
LayerCount: 2
Fore
SplineSet
608.435546875 1583.26757812 m 1,0,-1
 608.435546875 1954.51660156 l 1,1,-1
 665.533203125 1954.51660156 l 1,2,-1
 665.533203125 1583.26757812 l 1,3,-1
 608.435546875 1583.26757812 l 1,0,-1
EndSplineSet
EndChar

StartChar: uni0674
Encoding: 1652 1652 76
GlifName: uni0674
Width: 551
VWidth: 2537
GlyphClass: 2
Flags: W
LayerCount: 2
Fore
SplineSet
183.757886409 1982.39992532 m 2,0,1
 161.197656378 1999.71246984 161.197656378 1999.71246984 146.047534936 2021.7513074 c 0,2,3
 131 2044 131 2044 123.441274369 2070.8233411 c 0,4,5
 116 2098 116 2098 115.783158099 2130.48180186 c 0,6,7
 116 2151 116 2151 119.260337765 2170.38866879 c 0,8,9
 123 2189 123 2189 129.532489537 2206.93715808 c 0,10,11
 136 2224 136 2224 146.615152961 2240.29417441 c 0,12,13
 157 2256 157 2256 170.573675192 2270.67230785 c 0,14,15
 235 2339 235 2339 337.010546305 2339.01562533 c 0,16,17
 403 2339 403 2339 462.907556103 2303.14595482 c 1,18,-1
 463.423875414 2206.42979704 l 1,19,20
 408 2236 408 2236 350.999041331 2236.2618442 c 0,21,22
 317 2236 317 2236 289.848102399 2226.53280215 c 0,23,24
 263 2217 263 2217 243.301410612 2197.44412264 c 0,25,26
 211 2164 211 2164 211.49443125 2117.72536917 c 0,27,28
 212 2099 212 2099 219.257872309 2083.35323887 c 0,29,30
 227 2067 227 2067 240.222852091 2053.9049281 c 0,31,32
 254 2041 254 2041 272.655429938 2029.60735594 c 0,33,34
 291 2019 291 2019 315.740711627 2009.73064178 c 0,35,36
 333 2003 333 2003 347.972366318 2006.59110664 c 0,37,38
 409 2018 409 2018 469.747070312 2030.34910251 c 1,39,-1
 469.747070312 1934.82910156 l 5,40,-1
 93.2861328125 1844.07324219 l 5,41,-1
 93.2861328125 1936.33748305 l 1,42,-1
 177.998468805 1955.88403968 l 1,43,-1
 208.991964495 1963.03549066 l 1,44,-1
 183.757886409 1982.39992532 l 2,0,1
EndSplineSet
EndChar

StartChar: uni06A1
Encoding: 1697 1697 80
GlifName: uni06A_1
Width: 1821
VWidth: 2952
GlyphClass: 2
Flags: W
AnchorPoint: "Anchor-10" 640.853 1630.62 basechar 0
AnchorPoint: "Anchor-7" 623.182 -352.248 basechar 0
LayerCount: 2
Fore
SplineSet
1687.55876922 473.264180325 m 0,0,1
 1686.08243471 205.058480514 1686.08243471 205.058480514 1564.23079949 113.637301818 c 0,2,3
 1452.04762778 30 1452.04762778 30 1160.20996094 30 c 2,4,-1
 829.911132812 30 l 2,5,6
 471.816960968 30 471.816960968 30 300.450980614 143.983990907 c 128,-1,7
 129.08500026 257.967981814 129.08500026 257.967981814 129.160135179 485.90762687 c 0,8,9
 129.025880014 599.182148055 129.025880014 599.182148055 169.55756449 703.17125834 c 1,10,-1
 273.586968028 657.974958347 l 1,11,12
 248.039780759 581.785263421 248.039780759 581.785263421 248.433482889 511.210609728 c 0,13,14
 248.195766341 331.783337505 248.195766341 331.783337505 394.171424407 243.031776536 c 128,-1,15
 540.147082473 154.280215567 540.147082473 154.280215567 816.136257787 154.159182573 c 2,16,-1
 1181.35066352 153.999023438 l 2,17,18
 1588.70893758 154.000076824 1588.70893758 154.000076824 1590.92071093 380.867558119 c 0,19,20
 1591.01303142 391.347087387 1591.01303142 391.347087387 1589.95902886 402.01124854 c 2,21,-1
 1586.36043085 438.421054845 l 1,22,-1
 1551.36144707 427.758267376 l 2,23,24
 1522.18687126 418.869943555 1522.18687126 418.869943555 1491.36593202 412.901879861 c 128,-1,25
 1460.54499278 406.933816168 1460.54499278 406.933816168 1427.94128448 403.888518911 c 128,-1,26
 1395.33757618 400.843221654 1395.33757618 400.843221654 1361.16885693 400.76952362 c 0,27,28
 1208.50464043 400.87840373 1208.50464043 400.87840373 1136.84035729 460.131271266 c 128,-1,29
 1065.17607415 519.384138803 1065.17607415 519.384138803 1062.82445552 642.712632362 c 0,30,31
 1062.0608871 682.146000777 1062.0608871 682.146000777 1069.88342838 719.087033198 c 0,32,33
 1097.82078702 868.56099916 1097.82078702 868.56099916 1175.36566837 948.101992369 c 0,34,35
 1249.71131503 1024.98828107 1249.71131503 1024.98828107 1361.32645153 1024.88479404 c 0,36,37
 1436.17800333 1024.98782801 1436.17800333 1024.98782801 1492.02929563 988.938788169 c 0,38,39
 1648.69867146 887.578945702 1648.69867146 887.578945702 1680.33235676 593.052710738 c 0,40,41
 1687.01520695 529.287142088 1687.01520695 529.287142088 1687.55876922 473.264180325 c 0,0,1
1166.85832728 669.304782184 m 0,42,43
 1166.94546551 592.223502305 1166.94546551 592.223502305 1222.41864198 553.267990428 c 128,-1,44
 1277.89181845 514.312478551 1277.89181845 514.312478551 1374.20163916 514.684782271 c 0,45,46
 1388.94218098 514.740193328 1388.94218098 514.740193328 1403.76000474 515.546221801 c 128,-1,47
 1418.5778285 516.352250274 1418.5778285 516.352250274 1433.43835358 517.905765332 c 128,-1,48
 1448.29887866 519.45928039 1448.29887866 519.45928039 1463.21743633 521.755539028 c 128,-1,49
 1478.13599401 524.051797666 1478.13599401 524.051797666 1493.10397314 527.091180689 c 128,-1,50
 1508.07195228 530.130563711 1508.07195228 530.130563711 1523.07698337 533.904582368 c 128,-1,51
 1538.08201446 537.678601025 1538.08201446 537.678601025 1553.14145585 542.191147759 c 2,52,-1
 1577.45006287 549.475197835 l 1,53,-1
 1574.29793497 574.655147209 l 2,54,55
 1569.29425404 614.625743584 1569.29425404 614.625743584 1561.77036547 650.466596586 c 128,-1,56
 1554.2464769 686.307449587 1554.2464769 686.307449587 1543.97647726 718.640393017 c 128,-1,57
 1533.70647762 750.973336446 1533.70647762 750.973336446 1520.75656066 779.259647152 c 0,58,59
 1463.30168161 904.933405587 1463.30168161 904.933405587 1354.80514844 905.308748027 c 0,60,61
 1291.83218547 905.121527747 1291.83218547 905.121527747 1247.63448145 864.31941796 c 128,-1,62
 1203.43677743 823.517308173 1203.43677743 823.517308173 1180.32043107 749.718072001 c 0,63,64
 1175.93907279 735.875951449 1175.93907279 735.875951449 1172.97831499 722.418041867 c 128,-1,65
 1170.01755719 708.960132286 1170.01755719 708.960132286 1168.4650885 695.600945274 c 128,-1,66
 1166.91261982 682.241758262 1166.91261982 682.241758262 1166.85832728 669.304782184 c 0,42,43
EndSplineSet
Substitution2: "'init' Initial Forms in Arabic lookup 13 subtable" uni06A1.init
Substitution2: "'medi' Medial Forms in Arabic lookup 11 subtable" uni06A1.medi
Substitution2: "'fina' Terminal Forms in Arabic lookup 9 subtable" uni06A1.fina
EndChar

StartChar: uni06A9
Encoding: 1705 1705 81
GlifName: uni06A_9
Width: 1848
VWidth: 2952
GlyphClass: 2
Flags: W
AnchorPoint: "Anchor-7" 720.268 -236.468 basechar 0
AnchorPoint: "Anchor-10" 1095.88 1435.07 basechar 0
LayerCount: 2
Fore
SplineSet
1477.23748554 639.288901825 m 0,0,1
 1598.8403967 507.450206389 1598.8403967 507.450206389 1596.71386115 350.848319313 c 0,2,3
 1593.6752044 192.186301081 1593.6752044 192.186301081 1451.96518939 111.09315054 c 128,-1,4
 1310.25517438 30 1310.25517438 30 1014.10449219 30 c 2,5,-1
 832.553710938 30 l 2,6,7
 473.118821987 30 473.118821987 30 301.101918025 144.004930459 c 128,-1,8
 129.085014064 258.009860919 129.085014064 258.009860919 129.160135179 485.90762687 c 0,9,10
 129.025880014 599.182148055 129.025880014 599.182148055 169.55756449 703.17125834 c 1,11,-1
 273.586968028 657.974958347 l 1,12,13
 248.039790021 581.785291043 248.039790021 581.785291043 248.433937362 511.130829207 c 0,14,15
 249.010931928 390.57745523 249.010931928 390.57745523 318.325106323 310.347184223 c 128,-1,16
 387.639280718 230.116913215 387.639280718 230.116913215 516.410832986 192.055038639 c 128,-1,17
 645.182385254 153.993164062 645.182385254 153.993164062 832.553710938 153.993164062 c 2,18,-1
 1013.2748858 153.993164066 l 2,19,20
 1478.12313691 154.000473674 1478.12313691 154.000473674 1477.21672329 375.184610409 c 0,21,22
 1476.97128026 485.999925517 1476.97128026 485.999925517 1364.14951314 592.056736664 c 0,23,24
 1286.75236182 664.012231261 1286.75236182 664.012231261 1218.10834247 723.53205405 c 128,-1,25
 1149.46432313 783.051876839 1149.46432313 783.051876839 1088.97174153 830.632888918 c 0,26,27
 986.061351581 910.629829371 986.061351581 910.629829371 986.411333147 994.443348632 c 0,28,29
 986.234632291 1049.68943799 986.234632291 1049.68943799 1015.07443105 1087.21790234 c 128,-1,30
 1043.91422981 1124.7463667 1043.91422981 1124.7463667 1107.25651874 1148.79974199 c 2,31,-1
 1759.86328125 1396.61831064 l 1,32,-1
 1759.86328125 1280.29333445 l 1,33,-1
 1106.58383573 1036.66856736 l 1,34,-1
 1058.36906389 1018.68803447 l 1,35,-1
 1097.76986328 985.589079902 l 2,36,37
 1361.27793791 764.227028261 1361.27793791 764.227028261 1477.23748554 639.288901825 c 0,0,1
EndSplineSet
Substitution2: "'init' Initial Forms in Arabic lookup 13 subtable" uniFB90
Substitution2: "'medi' Medial Forms in Arabic lookup 11 subtable" uniFB91
Substitution2: "'fina' Terminal Forms in Arabic lookup 9 subtable" uniFB8F
EndChar

StartChar: afii57514
Encoding: 1722 1722 83
GlifName: afii57514
Width: 1455
VWidth: 2952
GlyphClass: 2
Flags: W
LayerCount: 2
Fore
SplineSet
1266.94738443 -133.747269316 m 0,0,1
 1126.3197966 -419.987694807 1126.3197966 -419.987694807 727.316887448 -419.724612275 c 0,2,3
 287.364919799 -419.918054442 287.364919799 -419.918054442 173.767158729 -128.405605423 c 0,4,5
 131.719461423 -19.3405829706 131.719461423 -19.3405829706 131.752908717 131.00847324 c 0,6,7
 131.977260107 320.750336397 131.977260107 320.750336397 209.601575391 520.845560052 c 1,8,-1
 313.261733609 478.119630308 l 1,9,10
 248.011252112 297.811620251 248.011252112 297.811620251 248.268561256 132.880202328 c 0,11,12
 248.126479044 -81.8452848013 248.126479044 -81.8452848013 372.410639053 -192.471303805 c 0,13,14
 496.694799062 -303.097322809 496.694799062 -303.097322809 734.414096776 -303.203121869 c 0,15,16
 889.353568105 -303.132334402 889.353568105 -303.132334402 995.457871163 -249.189162075 c 0,17,18
 1101.56217422 -195.245989749 1101.56217422 -195.245989749 1155.78747927 -89.2231390268 c 0,19,20
 1210.01278431 16.7997116949 1210.01278431 16.7997116949 1210.5545997 171.861014858 c 0,21,22
 1210.69651997 230.522637502 1210.69651997 230.522637502 1201.89054928 289.451051325 c 0,23,24
 1193.08457858 348.379465148 1193.08457858 348.379465148 1175.53797744 407.00922582 c 0,25,26
 1157.99137629 465.638986492 1157.99137629 465.638986492 1131.69527785 524.401810493 c 1,27,-1
 1244.82396194 563.92661844 l 1,28,29
 1321.00935059 343.180459492 1321.00935059 343.180459492 1321.11427558 131.967343473 c 0,30,31
 1321.28340991 -23.4082310076 1321.28340991 -23.4082310076 1266.94738443 -133.747269316 c 0,0,1
EndSplineSet
Substitution2: "'init' Initial Forms in Arabic lookup 13 subtable" uni06BA.init
Substitution2: "'medi' Medial Forms in Arabic lookup 11 subtable" uni06BA.medi
Substitution2: "'fina' Terminal Forms in Arabic lookup 9 subtable" uniFB9F
EndChar

StartChar: uni06F4
Encoding: 1780 1780 90
GlifName: uni06F_4
Width: 1244
VWidth: 2952
GlyphClass: 2
Flags: W
LayerCount: 2
Fore
SplineSet
1048.02734375 1322.82714844 m 5,0,-1
 1019.25390625 1207.45898438 l 5,1,2
 985 1218 985 1218 950.653320312 1223.58300781 c 4,3,4
 916 1229 916 1229 880.256835938 1228.92675781 c 4,5,6
 767 1229 767 1229 689.209960938 1171.84179688 c 4,7,8
 562 1076 562 1076 546.827148438 930.331054688 c 4,9,10
 543 894 543 894 569.17578125 864.971679688 c 4,11,12
 595 836 595 836 643.65234375 811.051757812 c 4,13,14
 683 791 683 791 735.147460938 780.670898438 c 4,15,16
 787 771 787 771 852.9375 770.590820312 c 4,17,18
 978 771 978 771 1090.3671875 809.264648438 c 5,19,-1
 1105.67480469 694.666015625 l 5,20,21
 996 651 996 651 873.255859375 651.181640625 c 4,22,23
 561 652 561 652 432.295898438 846.8515625 c 5,24,-1
 447.491210938 761.709960938 l 5,25,-1
 449.014648438 751.169921875 l 6,26,27
 471 599 471 599 475.341796875 508.493164062 c 4,28,29
 484.115234375 290.131943 484.115234375 290.131943 484.115234375 288.771484375 c 6,30,-1
 484.115234375 41.5537109375 l 1,31,-1
 364.796387315 41.5537109375 l 1,32,-1
 364.791992188 291.908203125 l 6,33,34
 365 914 365 914 186.342773438 1300.71582031 c 5,35,-1
 291.083984375 1337.63671875 l 5,36,37
 348 1182 348 1182 405.08203125 1027.33203125 c 6,38,-1
 422.931640625 957.983398438 l 5,39,-1
 438.443359375 1004.29589844 l 6,40,41
 512 1225 512 1225 667.416015625 1313.26464844 c 4,42,43
 695 1329 695 1329 724.514648438 1339.08789062 c 132,-1,44
 754 1349 754 1349 786.938476562 1354.49121094 c 4,45,46
 819 1360 819 1360 854.940429688 1359.43164062 c 4,47,48
 956 1359 956 1359 1048.02734375 1322.82714844 c 5,0,-1
EndSplineSet
PairPos2: "'kern' Horizontal Kerning lookup 15-4" uni06F6 dx=-43 dy=0 dh=-43 dv=0 dx=0 dy=0 dh=0 dv=0
PairPos2: "'kern' Horizontal Kerning lookup 15-4" uni06F8 dx=-100 dy=0 dh=-100 dv=0 dx=0 dy=0 dh=0 dv=0
PairPos2: "'kern' Horizontal Kerning lookup 15-4" uni06F7 dx=-43 dy=0 dh=-43 dv=0 dx=0 dy=0 dh=0 dv=0
PairPos2: "'kern' Horizontal Kerning lookup 15-4" uni06F5 dx=-64 dy=0 dh=-64 dv=0 dx=0 dy=0 dh=0 dv=0
EndChar

StartChar: uni06F5
Encoding: 1781 1781 91
GlifName: uni06F_5
Width: 1288
VWidth: 2952
GlyphClass: 2
Flags: W
LayerCount: 2
Fore
SplineSet
253.965819829 339.408528772 m 0,0,1
 253.965819829 233.429450335 253.965819829 233.429450335 307.82702575 190.528903451 c 0,2,3
 336.219991827 167.91385517 336.219991827 167.91385517 378.082055 167.844742863 c 0,4,5
 544.600847913 168.01833186 544.600847913 168.01833186 613.749938761 462.562604447 c 1,6,-1
 688.866817825 462.49887156 l 1,7,8
 744.90739501 163.988855974 744.90739501 163.988855974 899.234180081 164.079110117 c 0,9,10
 965.757811859 164.028871772 965.757811859 164.028871772 999.874112771 211.513483851 c 128,-1,11
 1033.99041368 258.998095929 1033.99041368 258.998095929 1033.97851556 339.673853387 c 0,12,13
 1034.0007962 686.388905427 1034.0007962 686.388905427 650.257479381 1071.73914738 c 2,14,-1
 625.938662024 1096.15979979 l 1,15,-1
 605.103149393 1068.70703026 l 2,16,17
 253.965819829 606.050202345 253.965819829 606.050202345 253.965819829 339.408528772 c 0,0,1
363.447099651 41.9833985122 m 0,18,19
 249 42 249 42 194.30157001 113.004536026 c 0,20,21
 139 184 139 184 139.242179101 339.367175209 c 0,22,23
 139.00011011 652.857403012 139.00011011 652.857403012 519.476555247 1163.7961821 c 2,24,-1
 535.486441598 1185.2957306 l 1,25,-1
 480.17572271 1237.07109326 l 1,26,-1
 566.215224938 1342.20899696 l 1,27,-1
 667.866406003 1245.77969913 l 1,28,29
 1150 772 1150 772 1149.44240862 349.299116518 c 0,30,31
 1149 152 1149 152 1056.8768262 82 c 0,32,33
 1004 42 1004 42 910.47265625 42.0400390625 c 0,34,35
 734 42 734 42 651.358398438 274.571289062 c 5,36,37
 572 42 572 42 363.447099651 41.9833985122 c 0,18,19
EndSplineSet
PairPos2: "'kern' Horizontal Kerning lookup 15-4" uni06F9 dx=-35 dy=0 dh=-35 dv=0 dx=0 dy=0 dh=0 dv=0
PairPos2: "'kern' Horizontal Kerning lookup 15-4" uni06F8 dx=-38 dy=0 dh=-38 dv=0 dx=0 dy=0 dh=0 dv=0
PairPos2: "'kern' Horizontal Kerning lookup 15-4" uni06F7 dx=-100 dy=0 dh=-100 dv=0 dx=0 dy=0 dh=0 dv=0
PairPos2: "'kern' Horizontal Kerning lookup 15-4" uni06F6 dx=-42 dy=0 dh=-42 dv=0 dx=0 dy=0 dh=0 dv=0
PairPos2: "'kern' Horizontal Kerning lookup 15-4" uni06F4 dx=-42 dy=0 dh=-42 dv=0 dx=0 dy=0 dh=0 dv=0
PairPos2: "'kern' Horizontal Kerning lookup 15-4" uni06F3 dx=-100 dy=0 dh=-100 dv=0 dx=0 dy=0 dh=0 dv=0
PairPos2: "'kern' Horizontal Kerning lookup 15-4" uni06F2 dx=-100 dy=0 dh=-100 dv=0 dx=0 dy=0 dh=0 dv=0
EndChar

StartChar: uni06F6
Encoding: 1782 1782 92
GlifName: uni06F_6
Width: 1104
VWidth: 2952
GlyphClass: 2
Flags: W
LayerCount: 2
Fore
SplineSet
726.884268258 1217.16067194 m 1,0,1
 684.906850245 1220.11364275 684.906850245 1220.11364275 637.749481493 1220.46609276 c 0,2,3
 432.485838033 1219.96724545 432.485838033 1219.96724545 346.558760502 1123.15761166 c 0,4,5
 282.061290742 1050.45872639 282.061290742 1050.45872639 281.594574085 963.818121006 c 0,6,7
 281.689781914 913.364854 281.689781914 913.364854 299.888342013 873.069296638 c 0,8,9
 318.086902111 832.773739276 318.086902111 832.773739276 352.243908455 803.988607959 c 0,10,11
 386.400914799 775.203476641 386.400914799 775.203476641 436.485852509 756.016760669 c 0,12,13
 486.57079022 736.830044697 486.57079022 736.830044697 549.367699107 727.661756289 c 0,14,15
 612.164607994 718.493467881 612.164607994 718.493467881 688.714027345 718.36430052 c 2,16,-1
 692.149707028 718.35850325 l 1,17,-1
 695.497742891 719.129596208 l 1,18,-1
 696.812196015 719.432330584 l 1,19,-1
 700.812557303 720.35366194 l 1,20,-1
 704.418356596 722.31579174 l 2,21,22
 782.496993694 764.803020824 782.496993694 764.803020824 843.564887443 796.256686009 c 0,23,24
 904.632781192 827.710351193 904.632781192 827.710351193 945.71392585 846.679437136 c 1,25,-1
 950.753745749 724.485121723 l 1,26,27
 521.159487965 522.217704574 521.159487965 522.217704574 301.363896849 8.88543618557 c 1,28,-1
 188.948640625 46.5353523278 l 1,29,30
 316.033748705 347.414669596 316.033748705 347.414669596 545.733769261 574.328659912 c 2,31,-1
 591.354293418 619.395852992 l 1,32,-1
 527.521564891 625.533188342 l 2,33,34
 336.742839358 643.876020355 336.742839358 643.876020355 246.811100799 728.439607413 c 0,35,36
 156.87936224 813.003194472 156.87936224 813.003194472 157.644317241 968.778285571 c 0,37,38
 157.974053804 1056.07422905 157.974053804 1056.07422905 193.3516539 1129.24221305 c 0,39,40
 301.57959896 1347.9080762 301.57959896 1347.9080762 605.858622147 1346.40859377 c 0,41,42
 670.607898916 1346.07815965 670.607898916 1346.07815965 744.318136699 1336.66695389 c 1,43,-1
 726.884268258 1217.16067194 l 1,0,1
EndSplineSet
PairPos2: "'kern' Horizontal Kerning lookup 15-4" uni06F8 dx=-43 dy=0 dh=-43 dv=0 dx=0 dy=0 dh=0 dv=0
PairPos2: "'kern' Horizontal Kerning lookup 15-4" uni06F7 dx=-43 dy=0 dh=-43 dv=0 dx=0 dy=0 dh=0 dv=0
PairPos2: "'kern' Horizontal Kerning lookup 15-4" uni06F5 dx=-43 dy=0 dh=-43 dv=0 dx=0 dy=0 dh=0 dv=0
EndChar

StartChar: uniFB8F
Encoding: 64399 64399 107
GlifName: uniF_B_8F_
Width: 1924
VWidth: 2952
GlyphClass: 2
Flags: W
AnchorPoint: "Anchor-10" 1140.88 1438.07 basechar 0
AnchorPoint: "Anchor-7" 720.268 -236.468 basechar 0
LayerCount: 2
Fore
SplineSet
830.911132812 30 m 2,0,1
 472.309604615 30 472.309604615 30 300.69730506 143.991948978 c 128,-1,2
 129.085005506 257.983897956 129.085005506 257.983897956 129.160135179 485.90762687 c 0,3,4
 129.025880014 599.182148055 129.025880014 599.182148055 169.55756449 703.17125834 c 1,5,-1
 273.586968028 657.974958347 l 1,6,7
 248.039790021 581.785291043 248.039790021 581.785291043 248.433937362 511.130829207 c 0,8,9
 249.295146529 331.195563056 249.295146529 331.195563056 398.943291646 242.594363559 c 128,-1,10
 548.591436764 153.993164062 548.591436764 153.993164062 830.911132812 153.993164062 c 2,11,-1
 1012.63230916 153.993164066 l 2,12,13
 1475.90997401 154.000471795 1475.90997401 154.000471795 1476.57393492 374.987666748 c 0,14,15
 1477.05672413 485.974926686 1477.05672413 485.974926686 1363.44770523 592.111802008 c 0,16,17
 1203.4740427 740.857363944 1203.4740427 740.857363944 1088.32601924 830.635191527 c 0,18,19
 985.965636462 910.653683617 985.965636462 910.653683617 985.768617686 994.466468658 c 0,20,21
 985.807957872 1016.48551965 985.807957872 1016.48551965 990.229541644 1035.36205276 c 128,-1,22
 994.651125417 1054.23858587 994.651125417 1054.23858587 1003.88182557 1070.87398439 c 128,-1,23
 1013.11252572 1087.50938292 1013.11252572 1087.50938292 1027.3992732 1101.49606438 c 128,-1,24
 1041.68602068 1115.48274585 1041.68602068 1115.48274585 1061.4187103 1127.30671664 c 128,-1,25
 1081.15139993 1139.13068743 1081.15139993 1139.13068743 1106.61394062 1148.79974199 c 2,26,-1
 1759.22070312 1396.61831064 l 1,27,-1
 1759.22070312 1280.29333445 l 1,28,-1
 1105.9412576 1036.66856736 l 1,29,-1
 1057.5793464 1018.6331624 l 1,30,-1
 1097.18821659 985.538031506 l 2,31,32
 1357.28826159 768.211836747 1357.28826159 768.211836747 1476.62028373 639.261562806 c 0,33,34
 1552.79067956 557.142003105 1552.79067956 557.142003105 1599.65196973 424.843068754 c 0,35,36
 1622.88976841 359.395094672 1622.88976841 359.395094672 1654.27940925 309.196639123 c 128,-1,37
 1685.6690501 258.998183575 1685.6690501 258.998183575 1725.09268442 224.338815672 c 128,-1,38
 1764.51631875 189.679447769 1764.51631875 189.679447769 1812.52270726 171.836305915 c 128,-1,39
 1860.52909577 153.993164062 1860.52909577 153.993164062 1915.76367188 153.993164062 c 2,40,-1
 1918.87521117 153.993164062 l 1,41,42
 1922.17382812 137.90103611 1922.17382812 137.90103611 1922.17382812 107.174804688 c 2,43,-1
 1922.17388624 88.363742502 l 2,44,45
 1922.13583243 69.0324047052 1922.13583243 69.0324047052 1920.9784052 53.7076087073 c 128,-1,46
 1919.82097797 38.3828127093 1919.82097797 38.3828127093 1918.09320765 30 c 1,47,-1
 1915.65722656 30 l 2,48,49
 1813.9339496 30 1813.9339496 30 1733.51275539 70.7566778269 c 128,-1,50
 1653.09156117 111.513355654 1653.09156117 111.513355654 1590.87751971 194.734210364 c 2,51,-1
 1565.01545617 229.328700322 l 1,52,-1
 1541.62794512 193.015487947 l 2,53,54
 1436.63788017 30 1436.63788017 30 1013.46191406 30 c 2,55,-1
 830.911132812 30 l 2,0,1
EndSplineSet
EndChar

StartChar: uniFB9F
Encoding: 64415 64415 115
GlifName: uniF_B_9F_
Width: 1539
VWidth: 2952
GlyphClass: 2
Flags: W
AnchorPoint: "Anchor-10" 693.458 1366.61 basechar 0
AnchorPoint: "Anchor-7" 585.902 -800.086 basechar 0
LayerCount: 2
Fore
SplineSet
1319.92042366 56.2233175997 m 2,0,1
 1318.88915548 -96.229441217 1318.88915548 -96.229441217 1266.90050888 -203.842682161 c 0,2,3
 1126 -490 1126 -490 727.316887448 -489.724612275 c 0,4,5
 424 -490 424 -490 277.710201939 -354.009431399 c 0,6,7
 131 -218 131 -218 131.752908717 61.0084732407 c 0,8,9
 132 251 132 251 209.601575391 450.845560052 c 1,10,-1
 313.261733609 408.119630308 l 1,11,12
 248 228 248 228 248.268561256 62.8802023285 c 0,13,14
 248 -152 248 -152 372.410639053 -262.471303805 c 128,-1,15
 497 -373 497 -373 734.414096776 -373.203121869 c 0,16,17
 889 -373 889 -373 995.457871163 -319.189162075 c 0,18,19
 1102 -265 1102 -265 1155.78747927 -159.223139027 c 0,20,21
 1210 -53 1210 -53 1210.5545997 101.861014858 c 0,22,23
 1211 161 1211 161 1201.89054928 219.451051325 c 0,24,25
 1193 278 1193 278 1175.53797744 337.00922582 c 128,-1,26
 1158 396 1158 396 1131.69527785 454.401810493 c 1,27,-1
 1243.92854187 493.613777303 l 1,28,-1
 1307.71699198 294.870937743 l 2,29,30
 1323 248 1323 248 1353.87633581 216.64386543 c 0,31,32
 1385 185 1385 185 1429.07773939 169.472244276 c 128,-1,33
 1473.00277224 153.999023438 1473.00277224 153.999023438 1529.02050781 153.999023438 c 2,34,-1
 1535.23038255 153.999023438 l 1,35,36
 1538.21869918 124.86805775 1538.21869918 124.86805775 1538.21875 111.889648438 c 2,37,-1
 1538.21884203 88.38583401 l 2,38,39
 1538 83 1538 83 1537.59569418 63.5344620819 c 0,40,41
 1537 52 1537 52 1536.11632036 43.5802578431 c 0,42,43
 1535 35 1535 35 1534.11442637 30 c 1,44,45
 1478 30 1478 30 1445 39.6923828125 c 4,46,47
 1382 58 1382 58 1320.32128906 115.483398438 c 1,48,-1
 1319.92042366 56.2233175997 l 2,0,1
EndSplineSet
EndChar

StartChar: uniFBE8
Encoding: 64488 64488 118
GlifName: uniF_B_E_8
Width: 646
VWidth: 2952
GlyphClass: 2
Flags: W
AnchorPoint: "Anchor-10" 311.384 1353 basechar 0
AnchorPoint: "Anchor-7" 303.422 -223.625 basechar 0
LayerCount: 2
Fore
SplineSet
68.673828125 30 m 2,0,-1
 -6.9384765625 30 l 2,1,2
 -15.9167709632 30 -15.9167709632 30 -21.0628320443 32.8211581577 c 128,-1,3
 -26.2088931254 35.6423163154 -26.2088931254 35.6423163154 -30.4936067189 49.1514858278 c 128,-1,4
 -34.7783203125 62.6606553402 -34.7783203125 62.6606553402 -34.7783203125 88.3134765625 c 2,5,-1
 -34.7784452104 107.263324881 l 2,6,7
 -34.8656445262 137.482305413 -34.8656445262 137.482305413 -28.6211041183 145.737734737 c 128,-1,8
 -22.3765637104 153.993164062 -22.3765637104 153.993164062 -6.9384765625 153.993164062 c 6,9,-1
 68.685849529 153.993164089 l 2,10,11
 236.933448947 154.000338259 236.933448947 154.000338259 300.517734614 190.15537645 c 0,12,13
 400.975831412 248.754593566 400.975831412 248.754593566 401.221627605 425.090081283 c 0,14,15
 401.0159673 535.458997251 401.0159673 535.458997251 370.476546804 667.791168615 c 1,16,-1
 476.905042722 694.569885674 l 1,17,18
 516.026752664 557.489512384 516.026752664 557.489512384 516.223645276 428.355471973 c 0,19,20
 516.01363747 197.974156676 516.01363747 197.974156676 387.412575393 101.135603623 c 0,21,22
 357.510144688 78.3917146675 357.510144688 78.3917146675 312.975221676 62.6953273232 c 128,-1,23
 268.440298664 46.9989399788 268.440298664 46.9989399788 206.588678552 38.4994699894 c 128,-1,24
 144.737058439 30 144.737058439 30 68.673828125 30 c 2,0,-1
EndSplineSet
EndChar

StartChar: uniFBE9
Encoding: 64489 64489 119
GlifName: uniF_B_E_9
Width: 717
VWidth: 2952
GlyphClass: 2
Flags: W
AnchorPoint: "Anchor-10" 315.665 1297.09 basechar 0
AnchorPoint: "Anchor-7" 350.537 -177.742 basechar 0
LayerCount: 2
Fore
SplineSet
714.731445312 88.3408203125 m 2,0,1
 714.731445312 47.8039550244 714.731445312 47.8039550244 710.73750178 30.0163821106 c 1,2,3
 529 32 529 32 446.084960938 188.395507812 c 5,4,5
 334 30 334 30 95.759765625 30 c 2,6,-1
 -8.1171875 30 l 2,7,8
 -17 30 -17 30 -21.3867601815 32.6942348813 c 0,9,10
 -26 35 -26 35 -30.5216971941 48.9727282566 c 0,11,12
 -34.778148937 62.3051016679 -34.778148937 62.3051016679 -34.7783203125 88.3134765625 c 2,13,-1
 -34.7784452421 107.273101513 l 2,14,15
 -35 129 -35 129 -31.3123090796 138.916021198 c 0,16,17
 -28 149 -28 149 -22.8899454461 151.716539737 c 0,18,19
 -18.0146389104 153.993164061 -18.0146389104 153.993164061 -8.1171875 153.993164062 c 2,20,-1
 91.0135831454 153.993164075 l 2,21,22
 347 154 347 154 376.050980467 310.728549221 c 0,23,24
 383 348 383 348 383.293178487 399.261481353 c 0,25,26
 382.999455493 450.094234345 382.999455493 450.094234345 379.937465817 495.690757251 c 2,27,-1
 376.359619243 548.968978451 l 1,28,-1
 481.575364849 561.320896252 l 1,29,-1
 495.467179965 361.506922896 l 2,30,31
 499 313 499 313 514.845671842 274.075226895 c 0,32,33
 531 236 531 236 558.071798585 209.3774179 c 0,34,35
 585 183 585 183 623.957735261 168.994254894 c 128,-1,36
 663 155 663 155 710.882005524 154.034514395 c 1,37,38
 712 149 712 149 712.521928339 143.834404587 c 0,39,40
 713 138 713 138 713.725891185 131.347203732 c 0,41,42
 714 124 714 124 714.477495741 116.18149401 c 0,43,44
 714.731445312 112.205092176 714.731445312 112.205092176 714.731445312 98.322265625 c 2,45,-1
 714.731445312 88.3408203125 l 2,0,1
EndSplineSet
EndChar

StartChar: uniFE73
Encoding: 65139 65139 127
GlifName: uniF_E_73
Width: 672
VWidth: 2952
GlyphClass: 2
Flags: W
AnchorPoint: "Anchor-10" 342.943 1012.47 basechar 0
AnchorPoint: "Anchor-7" 416.943 -206.304 basechar 0
LayerCount: 2
Fore
SplineSet
270.35054713 422.69140625 m 1,0,1
 271.223700668 333.677787635 271.223700668 333.677787635 312.909540256 273.293597786 c 0,2,3
 354.595379845 212.909407937 354.595379845 212.909407937 431.416642402 183.626090687 c 0,4,5
 508.237904959 154.342773438 508.237904959 154.342773438 618.00390625 154.342773438 c 2,6,-1
 658.674804688 154.342773438 l 1,7,-1
 658.674804688 31.5537109375 l 1,8,-1
 608.033695896 31.5536989132 l 2,9,10
 369.559085364 31.7672129398 369.559085364 31.7672129398 255.475615278 128.298939499 c 0,11,12
 141.392145192 224.830666058 141.392145192 224.830666058 139.569553294 422.69140625 c 1,13,-1
 270.35054713 422.69140625 l 1,0,1
EndSplineSet
EndChar

StartChar: uniFE8E
Encoding: 65166 65166 153
GlifName: uniF_E_8E_
Width: 531
VWidth: 2952
GlyphClass: 2
Flags: W
AnchorPoint: "Anchor-10" 234.697 1549.11 basechar 0
AnchorPoint: "Anchor-7" 296.078 -239.903 basechar 0
LayerCount: 2
Fore
SplineSet
528.618164062 88.0758493082 m 2,0,1
 529.22791222 49.1079864887 529.22791222 49.1079864887 525.312919699 30 c 1,2,-1
 517.658203125 30 l 2,3,4
 346.297390081 30 346.297390081 30 263.290296603 128.125738934 c 0,5,6
 180.283203125 226.251477868 180.283203125 226.251477868 180.283203125 434.395507812 c 2,7,-1
 180.283203125 1378.171875 l 1,8,-1
 293.598632812 1378.171875 l 1,9,-1
 293.598670726 436.402500065 l 2,10,11
 293.812713183 301.771357337 293.812713183 301.771357337 351.471519015 227.8822607 c 0,12,13
 409.130324847 153.993164062 409.130324847 153.993164062 520.712890625 153.993164062 c 2,14,-1
 525.318970555 153.993164062 l 1,15,16
 526.860706228 146.472986915 526.860706228 146.472986915 527.739435145 134.587240157 c 0,17,18
 528.618164062 122.7014934 528.618164062 122.7014934 528.618164062 107.174804688 c 2,19,-1
 528.618164062 88.0758493082 l 2,0,1
EndSplineSet
EndChar

StartChar: uniFEA2
Encoding: 65186 65186 173
GlifName: uniF_E_A_2
Width: 1386
VWidth: 2952
GlyphClass: 2
Flags: W
AnchorPoint: "Anchor-7" 580.833 -810.619 basechar 0
AnchorPoint: "Anchor-10" 649.478 1262.07 basechar 0
LayerCount: 2
Fore
SplineSet
1225.75686146 633.03122351 m 1,0,-1
 1216.91300809 514.721255577 l 1,1,2
 1126.94884561 507.217231619 1126.94884561 507.217231619 1045.6900626 496.077476594 c 2,3,-1
 1019.76464844 492.523365247 l 1,4,-1
 1019.76464844 466.35546875 l 1,5,-1
 1019.76465942 458.111056802 l 2,6,7
 1019.8915339 309.788994671 1019.8915339 309.788994671 1099.94995397 231.665979745 c 128,-1,8
 1180.00837403 153.542964818 1180.00837403 153.542964818 1330.72337166 154.06170113 c 2,9,-1
 1380.95135642 154.234577619 l 1,10,11
 1382.34396662 147.458992586 1382.34396662 147.458992586 1383.16124112 136.623187377 c 128,-1,12
 1383.97851562 125.787382168 1383.97851562 125.787382168 1383.97851562 111.889648438 c 2,13,-1
 1383.97851651 88.3042250538 l 2,14,15
 1383.98807777 49.0026542008 1383.98807777 49.0026542008 1379.99374206 30 c 1,16,-1
 1331.49511719 30 l 2,17,18
 1227.77419758 30 1227.77419758 30 1151.81122645 53.8295249635 c 128,-1,19
 1075.84825532 77.659049927 1075.84825532 77.659049927 1025.66479879 126.587369786 c 128,-1,20
 975.481342268 175.515689645 975.481342268 175.515689645 950.965783291 249.378309196 c 128,-1,21
 926.450224314 323.240928746 926.450224314 323.240928746 926.192284665 424.078691878 c 2,22,-1
 926.162011228 435.913652815 l 1,23,-1
 926.063898359 474.269455178 l 1,24,-1
 888.861152227 464.934955658 l 2,25,26
 581.646108989 387.851971962 581.646108989 387.851971962 423.381600078 239.038947548 c 128,-1,27
 265.117091168 90.2259231332 265.117091168 90.2259231332 265.249030281 -129.282471948 c 0,28,29
 265.114686645 -328.187971229 265.114686645 -328.187971229 409.102116556 -428.041323872 c 128,-1,30
 553.089546468 -527.894676515 553.089546468 -527.894676515 826.356693338 -527.7831881 c 0,31,32
 894.407820045 -527.851296904 894.407820045 -527.851296904 961.412255782 -518.579274756 c 128,-1,33
 1028.41669152 -509.307252608 1028.41669152 -509.307252608 1093.46509495 -490.928690423 c 128,-1,34
 1158.51349839 -472.550128239 1158.51349839 -472.550128239 1221.56972266 -445.171207921 c 1,35,-1
 1245.18291971 -558.999927289 l 1,36,37
 1058.68688072 -643.019793028 1058.68688072 -643.019793028 811.547450043 -643.249029537 c 0,38,39
 434.131648575 -643.008367399 434.131648575 -643.008367399 276.011845807 -471.923347364 c 0,40,41
 154.998898211 -341.241896187 154.998898211 -341.241896187 154.980468733 -144.545925975 c 0,42,43
 154.989862203 136.107473794 154.989862203 136.107473794 326.022171958 313.437797585 c 128,-1,44
 497.054481713 490.768121376 497.054481713 490.768121376 847.495496549 568.48799877 c 2,45,-1
 857.495496549 570.705772207 l 1,46,-1
 954.6464056 592.251642755 l 1,47,-1
 861.774868768 627.992394196 l 2,48,49
 858.945258631 629.08134347 858.945258631 629.08134347 855.330557351 630.486854509 c 128,-1,50
 851.715856071 631.892365547 851.715856071 631.892365547 847.31677984 633.614200427 c 128,-1,51
 842.917703609 635.336035306 842.917703609 635.336035306 837.747918518 637.368790104 c 128,-1,52
 832.578133426 639.401544902 832.578133426 639.401544902 826.625229266 641.750202408 c 128,-1,53
 820.672325105 644.098859915 820.672325105 644.098859915 813.96396946 646.752447445 c 128,-1,54
 807.255613815 649.406034975 807.255613815 649.406034975 799.765394982 652.375104081 c 128,-1,55
 792.275176149 655.344173188 792.275176149 655.344173188 784.044763208 658.612182424 c 128,-1,56
 775.814350266 661.88019166 775.814350266 661.88019166 766.803330018 665.46326134 c 128,-1,57
 757.792309769 669.04633102 757.792309769 669.04633102 748.055477695 672.922698983 c 0,58,59
 680.803625653 700.15687828 680.803625653 700.15687828 630.026657429 717.646659511 c 128,-1,60
 579.249689204 735.136440742 579.249689204 735.136440742 538.535106071 744.473100704 c 128,-1,61
 497.820522938 753.809760666 497.820522938 753.809760666 469.528023806 753.687752923 c 0,62,63
 427.545142533 753.804291754 427.545142533 753.804291754 389.701070772 741.863999629 c 128,-1,64
 351.856999012 729.923707504 351.856999012 729.923707504 319.275108995 706.457728821 c 128,-1,65
 286.693218978 682.991750139 286.693218978 682.991750139 259.94175455 648.533895416 c 2,66,-1
 246.931496747 631.77572599 l 1,67,-1
 144.347569103 682.420814588 l 1,68,69
 262.332580992 875.987959021 262.332580992 875.987959021 471.82764378 875.841820444 c 0,70,71
 530.470087356 875.915328254 530.470087356 875.915328254 603.285480478 855.313628937 c 128,-1,72
 676.1008736 834.71192962 676.1008736 834.71192962 761.850380812 793.060452191 c 0,73,74
 1052.59569329 651.391989715 1052.59569329 651.391989715 1225.75686146 633.03122351 c 1,0,-1
EndSplineSet
EndChar

StartChar: uniFEA3
Encoding: 65187 65187 174
GlifName: uniF_E_A_3
Width: 1337
VWidth: 2952
GlyphClass: 2
Flags: W
AnchorPoint: "Anchor-10" 565.825 1180.07 basechar 0
AnchorPoint: "Anchor-7" 513.524 -234.745 basechar 0
LayerCount: 2
Fore
SplineSet
-6.9384765625 30 m 2,0,1
 -15.9167709632 30 -15.9167709632 30 -21.0628320443 32.8211581577 c 128,-1,2
 -26.2088931254 35.6423163154 -26.2088931254 35.6423163154 -30.4936067189 49.1514858278 c 128,-1,3
 -34.7783203125 62.6606553402 -34.7783203125 62.6606553402 -34.7783203125 88.3134765625 c 2,4,-1
 -34.7784452421 107.273101513 l 2,5,6
 -34.8656489466 137.489761357 -34.8656489466 137.489761357 -28.6213981088 145.744392398 c 128,-1,7
 -22.3771472709 153.999023438 -22.3771472709 153.999023438 -6.9384765625 153.999023438 c 2,8,-1
 52.5430574056 153.999023438 l 2,9,10
 390.492778968 154.000022143 390.492778968 154.000022143 882.763787191 408.180617204 c 2,11,-1
 956.590935629 446.300734392 l 1,12,-1
 1025.02659196 481.636993401 l 1,13,-1
 950.719837194 501.90017317 l 2,14,15
 926.614128799 508.473711528 926.614128799 508.473711528 738.099917332 584.878920296 c 0,16,17
 536.747927892 666.028227969 536.747927892 666.028227969 460.291964734 665.657446601 c 0,18,19
 447.614798878 665.695793064 447.614798878 665.695793064 435.279406925 664.637550549 c 128,-1,20
 422.944014972 663.579308033 422.944014972 663.579308033 411.051803011 661.4429838 c 128,-1,21
 399.15959105 659.306659566 399.15959105 659.306659566 387.650933392 656.095238432 c 128,-1,22
 376.142275733 652.883817299 376.142275733 652.883817299 365.106989314 648.622671792 c 128,-1,23
 354.071702895 644.361526286 354.071702895 644.361526286 343.462523788 639.046318274 c 128,-1,24
 332.853344682 633.731110262 332.853344682 633.731110262 322.747728061 627.394535222 c 128,-1,25
 312.642111441 621.057960182 312.642111441 621.057960182 303.005155144 613.688357031 c 128,-1,26
 293.368198847 606.31875388 293.368198847 606.31875388 284.264996281 597.956141047 c 128,-1,27
 275.161793716 589.593528213 275.161793716 589.593528213 266.569804486 580.218921663 c 128,-1,28
 257.977815255 570.844315113 257.977815255 570.844315113 249.950543613 560.504598541 c 2,29,-1
 236.94028581 543.746429114 l 1,30,-1
 134.355664269 594.391860286 l 1,31,32
 251.406505522 787.062085908 251.406505522 787.062085908 461.377415544 787.812532867 c 0,33,34
 581.118737597 787.989781079 581.118737597 787.989781079 751.860917302 705.030303935 c 0,35,36
 897.801267977 633.931158734 897.801267977 633.931158734 1014.11465837 593.820254536 c 128,-1,37
 1130.42804876 553.709350338 1130.42804876 553.709350338 1217.62266327 544.814092697 c 1,38,-1
 1216.36446011 425.094950993 l 1,39,40
 1090.2966482 401.474287464 1090.2966482 401.474287464 807.684593092 252.685407992 c 0,41,42
 596.144146348 141.087318104 596.144146348 141.087318104 404.341878652 85.5436590519 c 128,-1,43
 212.539610955 30 212.539610955 30 40.767578125 30 c 2,44,-1
 -6.9384765625 30 l 2,0,1
EndSplineSet
EndChar

StartChar: uniFEA4
Encoding: 65188 65188 175
GlifName: uniF_E_A_4
Width: 1351
VWidth: 2952
GlyphClass: 2
Flags: W
AnchorPoint: "Anchor-10" 565.825 1180.07 basechar 0
AnchorPoint: "Anchor-7" 513.524 -234.745 basechar 0
LayerCount: 2
Fore
SplineSet
950.202166754 502.036389992 m 2,0,1
 941.738557896 504.182904669 941.738557896 504.182904669 884.495891174 526.419954602 c 128,-1,2
 827.253224452 548.657004535 827.253224452 548.657004535 738.099917332 584.878920296 c 0,3,4
 536.747927892 666.028227969 536.747927892 666.028227969 460.291964734 665.657446601 c 0,5,6
 447.614798878 665.695793064 447.614798878 665.695793064 435.279406925 664.637550549 c 128,-1,7
 422.944014972 663.579308033 422.944014972 663.579308033 411.051803011 661.4429838 c 128,-1,8
 399.15959105 659.306659566 399.15959105 659.306659566 387.650933392 656.095238432 c 128,-1,9
 376.142275733 652.883817299 376.142275733 652.883817299 365.106989314 648.622671792 c 128,-1,10
 354.071702895 644.361526286 354.071702895 644.361526286 343.462523788 639.046318274 c 128,-1,11
 332.853344682 633.731110262 332.853344682 633.731110262 322.747728061 627.394535222 c 128,-1,12
 312.642111441 621.057960182 312.642111441 621.057960182 303.005155144 613.688357031 c 128,-1,13
 293.368198847 606.31875388 293.368198847 606.31875388 284.264996281 597.956141047 c 128,-1,14
 275.161793716 589.593528213 275.161793716 589.593528213 266.569804486 580.218921663 c 128,-1,15
 257.977815255 570.844315113 257.977815255 570.844315113 249.950543613 560.504598541 c 2,16,-1
 236.94028581 543.746429114 l 1,17,-1
 134.355664269 594.391860286 l 1,18,19
 251.406505522 787.062085908 251.406505522 787.062085908 461.377415544 787.812532867 c 0,20,21
 581.118737597 787.989781079 581.118737597 787.989781079 751.860917302 705.030303935 c 0,22,23
 897.801267977 633.931158734 897.801267977 633.931158734 1014.11465837 593.820254536 c 128,-1,24
 1130.42804876 553.709350338 1130.42804876 553.709350338 1217.62266327 544.814092697 c 1,25,-1
 1216.37014818 425.636176299 l 1,26,27
 1135.94170434 412.453475736 1135.94170434 412.453475736 1025.4979332 356.789815081 c 2,28,-1
 1008.48962981 348.217630173 l 1,29,-1
 1009.01125281 329.178390488 l 2,30,31
 1010.26811683 283.302853935 1010.26811683 283.302853935 1032.59181631 249.373157851 c 128,-1,32
 1054.91551579 215.443461768 1054.91551579 215.443461768 1095.90338136 194.797499396 c 128,-1,33
 1136.89124692 174.151537024 1136.89124692 174.151537024 1191.77105346 164.215416949 c 128,-1,34
 1246.65085999 154.279296875 1246.65085999 154.279296875 1316.61132812 154.279296875 c 2,35,-1
 1347.46607005 154.279296875 l 1,36,37
 1350.50585938 139.505731017 1350.50585938 139.505731017 1350.50585938 111.889648438 c 2,38,-1
 1350.50585938 88.2432325471 l 2,39,40
 1350.72582472 48.9246444022 1350.72582472 48.9246444022 1346.75662014 30 c 1,41,-1
 1301.09667969 30 l 2,42,43
 1126.25006192 30 1126.25006192 30 1037.2695129 90.170268413 c 128,-1,44
 948.288963892 150.340536826 948.288963892 150.340536826 933.789047736 271.964513113 c 2,45,-1
 928.748591446 314.243401469 l 1,46,-1
 890.631495056 295.269799727 l 2,47,48
 882.761392206 291.352287344 882.761392206 291.352287344 874.720124602 287.297679247 c 128,-1,49
 866.678856997 283.24307115 866.678856997 283.24307115 858.470920715 279.053689893 c 128,-1,50
 850.262984432 274.864308636 850.262984432 274.864308636 841.882390073 270.537137263 c 128,-1,51
 833.501795714 266.20996589 833.501795714 266.20996589 824.954111973 261.747941431 c 128,-1,52
 816.406428231 257.285916971 816.406428231 257.285916971 807.684593092 252.685407992 c 0,53,54
 596.144146348 141.087318104 596.144146348 141.087318104 404.341878652 85.5436590519 c 128,-1,55
 212.539610955 30 212.539610955 30 40.767578125 30 c 2,56,-1
 -6.9384765625 30 l 2,57,58
 -15.9167709632 30 -15.9167709632 30 -21.0628320443 32.8211581577 c 128,-1,59
 -26.2088931254 35.6423163154 -26.2088931254 35.6423163154 -30.4936067189 49.1514858278 c 128,-1,60
 -34.7783203125 62.6606553402 -34.7783203125 62.6606553402 -34.7783203125 88.3134765625 c 2,61,-1
 -34.7784452421 107.273101513 l 2,62,63
 -34.8656489466 137.489761357 -34.8656489466 137.489761357 -28.6213981088 145.744392398 c 128,-1,64
 -22.3771472709 153.999023438 -22.3771472709 153.999023438 -6.9384765625 153.999023438 c 2,65,-1
 52.5430574056 153.999023438 l 2,66,67
 390.492778968 154.000022143 390.492778968 154.000022143 882.763787191 408.180617204 c 2,68,-1
 956.590935629 446.300734392 l 1,69,-1
 1026.87429108 482.591039555 l 1,70,-1
 950.202166754 502.036389992 l 2,0,1
EndSplineSet
EndChar

StartChar: uniFEAA
Encoding: 65194 65194 181
GlifName: uniF_E_A_A_
Width: 1061
VWidth: 2952
GlyphClass: 2
Flags: W
AnchorPoint: "Anchor-7" 417.24 -239.316 basechar 0
AnchorPoint: "Anchor-10" 522.848 1245.53 basechar 0
LayerCount: 2
Fore
SplineSet
337.570591488 30.8193470685 m 0
 219.041159819 30.973894377 219.041159819 30.973894377 132.096679688 49.3669311938 c 1
 132.096679688 176.64558397 l 1
 234.659586495 155.008574518 234.659586495 155.008574518 322.975501339 155.068359964 c 0
 699.934311761 154.993672187 699.934311761 154.993672187 698.357062406 349.979794432 c 0
 698.188357678 370.83577431 698.188357678 370.83577431 686.839015854 408.579366219 c 0
 675.489674029 446.322958128 675.489674029 446.322958128 656.568053205 494.279078466 c 0
 637.64643238 542.235198804 637.64643238 542.235198804 604.438782373 620.168245085 c 2
 495.035527346 876.92019638 l 1
 604.371142237 927.155443841 l 1
 784.65339907 470.856621045 l 2
 846.084075563 315.048102499 846.084075563 315.048102499 909.830604268 234.520633281 c 0
 973.577132972 153.993164062 973.577132972 153.993164062 1048.87988281 153.993164062 c 2
 1055.29863934 153.993164062 l 1
 1058.59765625 137.900659209 1058.59765625 137.900659209 1058.59765625 107.174804688 c 2
 1058.59765625 88.2500256222 l 2
 1058.77674986 48.9372401327 1058.77674986 48.9372401327 1054.80263552 30 c 1
 1048.53222656 30 l 2
 899.13359815 30 899.13359815 30 813.080273804 175.874631947 c 2
 791.382197862 212.65646305 l 1
 764.13877479 179.77021215 l 2
 703.298419993 106.328223329 703.298419993 106.328223329 597.221971295 68.6174870535 c 0
 491.145522597 30.9067507776 491.145522597 30.9067507776 337.570591488 30.8193470685 c 0
EndSplineSet
EndChar

StartChar: uniFEAE
Encoding: 65198 65198 185
GlifName: uniF_E_A_E_
Width: 870
VWidth: 2144
GlyphClass: 2
Flags: W
AnchorPoint: "Anchor-7" 322.969 -667.998 basechar 0
AnchorPoint: "Anchor-10" 507.256 926.2 basechar 0
LayerCount: 2
Fore
SplineSet
648.229128135 56.8090745313 m 2,0,1
 595.638879596 -364.075001838 595.638879596 -364.075001838 67.7597135311 -473.711309666 c 1,2,-1
 27.8985793754 -372.265970036 l 1,3,4
 280 -318 280 -318 411.233952394 -186.391370429 c 0,5,6
 541 -56 541 -56 543.250519949 152.077644875 c 0,7,8
 544 218 544 218 526.339235813 293.704866164 c 0,9,10
 509 369 509 369 474.823019102 454.410198219 c 1,11,-1
 582.046397001 492.861420319 l 1,12,-1
 634.64356578 328.767242056 l 2,13,14
 653 272 653 272 683.0555054 234.027252133 c 0,15,16
 713 195 713 195 756.025644575 174.57364133 c 128,-1,17
 799.002039849 153.999023438 799.002039849 153.999023438 851.31640625 153.999023438 c 2,18,-1
 865.682907377 153.999023438 l 1,19,20
 868.638671875 145.08918526 868.638671875 145.08918526 868.638671875 112.322265625 c 2,21,-1
 868.638671875 88.1475405303 l 2,22,23
 869 79 869 79 868.610503603 79.3402950867 c 0,24,25
 869 75 869 75 868.459532749 71.0826688874 c 128,-1,26
 868 67 868 67 868.195082128 63.4059280899 c 0,27,28
 868 60 868 60 867.829179823 56.3016154908 c 0,29,30
 868 53 868 53 867.370968295 49.8036454717 c 0,31,32
 867 47 867 47 866.832475631 43.9035608294 c 0,33,34
 867 41 867 41 866.22284429 38.6352759454 c 0,35,36
 866 36 866 36 865.554102358 33.9903336164 c 0,37,38
 865 30 865 30 864.835572647 30 c 2,39,-1
 861.80078125 30 l 2,40,41
 816 30 816 30 781.937818107 35.9759392551 c 0,42,43
 707 48 707 48 656 119 c 5,44,-1
 648.229128135 56.8090745313 l 2,0,1
EndSplineSet
PairPos2: "'kern' Horizontal Kerning lookup 15-2" uniFBFE dx=60 dy=0 dh=60 dv=0 dx=0 dy=0 dh=0 dv=0
PairPos2: "'kern' Horizontal Kerning lookup 15-1" uniFEE7 dx=-178 dy=0 dh=-178 dv=0 dx=0 dy=0 dh=0 dv=0
PairPos2: "'kern' Horizontal Kerning lookup 15-2" uniFB90 dx=-226 dy=0 dh=-226 dv=0 dx=0 dy=0 dh=0 dv=0
PairPos2: "'kern' Horizontal Kerning lookup 15-2" uniFB8E dx=-226 dy=0 dh=-226 dv=0 dx=0 dy=0 dh=0 dv=0
PairPos2: "'kern' Horizontal Kerning lookup 15-2" uni06A9 dx=-226 dy=0 dh=-226 dv=0 dx=0 dy=0 dh=0 dv=0
PairPos2: "'kern' Horizontal Kerning lookup 15-2" uni064A dx=-60 dy=0 dh=-60 dv=0 dx=0 dy=0 dh=0 dv=0
PairPos2: "'kern' Horizontal Kerning lookup 15-2" afii57414 dx=-60 dy=0 dh=-60 dv=0 dx=0 dy=0 dh=0 dv=0
PairPos2: "'kern' Horizontal Kerning lookup 15-2" uni0649 dx=-60 dy=0 dh=-60 dv=0 dx=0 dy=0 dh=0 dv=0
PairPos2: "'kern' Horizontal Kerning lookup 15-2" uniFEEB dx=-178 dy=0 dh=-178 dv=0 dx=0 dy=0 dh=0 dv=0
PairPos2: "'kern' Horizontal Kerning lookup 15-2" uni0647 dx=-178 dy=0 dh=-178 dv=0 dx=0 dy=0 dh=0 dv=0
PairPos2: "'kern' Horizontal Kerning lookup 15-2" uni0646 dx=-60 dy=0 dh=-60 dv=0 dx=0 dy=0 dh=0 dv=0
PairPos2: "'kern' Horizontal Kerning lookup 15-2" uniFEE3 dx=-178 dy=0 dh=-178 dv=0 dx=0 dy=0 dh=0 dv=0
PairPos2: "'kern' Horizontal Kerning lookup 15-2" uni0645 dx=-178 dy=0 dh=-178 dv=0 dx=0 dy=0 dh=0 dv=0
PairPos2: "'kern' Horizontal Kerning lookup 15-2" uniFEFB dx=-143 dy=0 dh=-143 dv=0 dx=0 dy=0 dh=0 dv=0
PairPos2: "'kern' Horizontal Kerning lookup 15-2" uniFEDF dx=-143 dy=0 dh=-143 dv=0 dx=0 dy=0 dh=0 dv=0
PairPos2: "'kern' Horizontal Kerning lookup 15-2" uni0644 dx=-60 dy=0 dh=-60 dv=0 dx=0 dy=0 dh=0 dv=0
PairPos2: "'kern' Horizontal Kerning lookup 15-2" uniFEDB dx=-226 dy=0 dh=-226 dv=0 dx=0 dy=0 dh=0 dv=0
PairPos2: "'kern' Horizontal Kerning lookup 15-2" uni0643 dx=-143 dy=0 dh=-143 dv=0 dx=0 dy=0 dh=0 dv=0
PairPos2: "'kern' Horizontal Kerning lookup 15-2" uniFED7 dx=-178 dy=0 dh=-178 dv=0 dx=0 dy=0 dh=0 dv=0
PairPos2: "'kern' Horizontal Kerning lookup 15-2" uni0642 dx=-60 dy=0 dh=-60 dv=0 dx=0 dy=0 dh=0 dv=0
PairPos2: "'kern' Horizontal Kerning lookup 15-2" uniFED3 dx=-178 dy=0 dh=-178 dv=0 dx=0 dy=0 dh=0 dv=0
PairPos2: "'kern' Horizontal Kerning lookup 15-2" uni0641 dx=-178 dy=0 dh=-178 dv=0 dx=0 dy=0 dh=0 dv=0
PairPos2: "'kern' Horizontal Kerning lookup 15-2" uniFECF dx=-178 dy=0 dh=-178 dv=0 dx=0 dy=0 dh=0 dv=0
PairPos2: "'kern' Horizontal Kerning lookup 15-2" uniFECB dx=-178 dy=0 dh=-178 dv=0 dx=0 dy=0 dh=0 dv=0
PairPos2: "'kern' Horizontal Kerning lookup 15-2" uniFEC7 dx=-178 dy=0 dh=-178 dv=0 dx=0 dy=0 dh=0 dv=0
PairPos2: "'kern' Horizontal Kerning lookup 15-2" uni0638 dx=-178 dy=0 dh=-178 dv=0 dx=0 dy=0 dh=0 dv=0
PairPos2: "'kern' Horizontal Kerning lookup 15-2" uniFEC3 dx=-178 dy=0 dh=-178 dv=0 dx=0 dy=0 dh=0 dv=0
PairPos2: "'kern' Horizontal Kerning lookup 15-2" uni0637 dx=-178 dy=0 dh=-178 dv=0 dx=0 dy=0 dh=0 dv=0
PairPos2: "'kern' Horizontal Kerning lookup 15-2" uniFEBF dx=-178 dy=0 dh=-178 dv=0 dx=0 dy=0 dh=0 dv=0
PairPos2: "'kern' Horizontal Kerning lookup 15-2" uni0636 dx=-178 dy=0 dh=-178 dv=0 dx=0 dy=0 dh=0 dv=0
PairPos2: "'kern' Horizontal Kerning lookup 15-2" uniFEBB dx=-178 dy=0 dh=-178 dv=0 dx=0 dy=0 dh=0 dv=0
PairPos2: "'kern' Horizontal Kerning lookup 15-2" uni0635 dx=-178 dy=0 dh=-178 dv=0 dx=0 dy=0 dh=0 dv=0
PairPos2: "'kern' Horizontal Kerning lookup 15-2" uniFEB7 dx=-178 dy=0 dh=-178 dv=0 dx=0 dy=0 dh=0 dv=0
PairPos2: "'kern' Horizontal Kerning lookup 15-2" uni0634 dx=-178 dy=0 dh=-178 dv=0 dx=0 dy=0 dh=0 dv=0
PairPos2: "'kern' Horizontal Kerning lookup 15-2" uniFEB3 dx=-178 dy=0 dh=-178 dv=0 dx=0 dy=0 dh=0 dv=0
PairPos2: "'kern' Horizontal Kerning lookup 15-2" uni0633 dx=-178 dy=0 dh=-178 dv=0 dx=0 dy=0 dh=0 dv=0
PairPos2: "'kern' Horizontal Kerning lookup 15-2" uni0630 dx=-178 dy=0 dh=-178 dv=0 dx=0 dy=0 dh=0 dv=0
PairPos2: "'kern' Horizontal Kerning lookup 15-2" uni062F dx=-178 dy=0 dh=-178 dv=0 dx=0 dy=0 dh=0 dv=0
PairPos2: "'kern' Horizontal Kerning lookup 15-2" uniFEA7 dx=-178 dy=0 dh=-178 dv=0 dx=0 dy=0 dh=0 dv=0
PairPos2: "'kern' Horizontal Kerning lookup 15-2" uniFEA3 dx=-178 dy=0 dh=-178 dv=0 dx=0 dy=0 dh=0 dv=0
PairPos2: "'kern' Horizontal Kerning lookup 15-2" uniFE9F dx=-178 dy=0 dh=-178 dv=0 dx=0 dy=0 dh=0 dv=0
PairPos2: "'kern' Horizontal Kerning lookup 15-2" uniFE9B dx=-178 dy=0 dh=-178 dv=0 dx=0 dy=0 dh=0 dv=0
PairPos2: "'kern' Horizontal Kerning lookup 15-2" uni062B dx=-178 dy=0 dh=-178 dv=0 dx=0 dy=0 dh=0 dv=0
PairPos2: "'kern' Horizontal Kerning lookup 15-2" uniFE97 dx=-178 dy=0 dh=-178 dv=0 dx=0 dy=0 dh=0 dv=0
PairPos2: "'kern' Horizontal Kerning lookup 15-2" uni062A dx=-178 dy=0 dh=-178 dv=0 dx=0 dy=0 dh=0 dv=0
PairPos2: "'kern' Horizontal Kerning lookup 15-2" uni0629 dx=-178 dy=0 dh=-178 dv=0 dx=0 dy=0 dh=0 dv=0
PairPos2: "'kern' Horizontal Kerning lookup 15-2" uni0628 dx=-178 dy=0 dh=-178 dv=0 dx=0 dy=0 dh=0 dv=0
PairPos2: "'kern' Horizontal Kerning lookup 15-2" uni0627 dx=-143 dy=0 dh=-143 dv=0 dx=0 dy=0 dh=0 dv=0
PairPos2: "'kern' Horizontal Kerning lookup 15-2" uni0623 dx=-143 dy=0 dh=-143 dv=0 dx=0 dy=0 dh=0 dv=0
PairPos2: "'kern' Horizontal Kerning lookup 15-2" uni0622 dx=-143 dy=0 dh=-143 dv=0 dx=0 dy=0 dh=0 dv=0
PairPos2: "'kern' Horizontal Kerning lookup 15-2" uni0621 dx=-178 dy=0 dh=-178 dv=0 dx=0 dy=0 dh=0 dv=0
PairPos2: "'kern' Horizontal Kerning lookup 15-2" uniFB94 dx=-226 dy=0 dh=-226 dv=0 dx=0 dy=0 dh=0 dv=0
PairPos2: "'kern' Horizontal Kerning lookup 15-2" uniFB92 dx=-226 dy=0 dh=-226 dv=0 dx=0 dy=0 dh=0 dv=0
PairPos2: "'kern' Horizontal Kerning lookup 15-2" uni06AF dx=-226 dy=0 dh=-226 dv=0 dx=0 dy=0 dh=0 dv=0
PairPos2: "'kern' Horizontal Kerning lookup 15-2" afii57506 dx=-178 dy=0 dh=-178 dv=0 dx=0 dy=0 dh=0 dv=0
PairPos2: "'kern' Horizontal Kerning lookup 15-2" afii57440 dx=-178 dy=0 dh=-178 dv=0 dx=0 dy=0 dh=0 dv=0
PairPos2: "'kern' Horizontal Kerning lookup 15-2" uniFE8B dx=-178 dy=0 dh=-178 dv=0 dx=0 dy=0 dh=0 dv=0
EndChar

StartChar: uniFEB2
Encoding: 65202 65202 189
GlifName: uniF_E_B_2
Width: 2559
VWidth: 2952
GlyphClass: 2
Flags: W
AnchorPoint: "Anchor-7" 671.902 -756.086 basechar 0
AnchorPoint: "Anchor-10" 1800.53 1090.1 basechar 0
LayerCount: 2
Fore
SplineSet
1544.41643856 154.992191365 m 0,0,1
 1644 154 1644 154 1697.9718214 209.644169644 c 0,2,3
 1752 265 1752 265 1751.96777092 366.353916009 c 0,4,5
 1752 406 1752 406 1751.52066724 432.920402643 c 0,6,7
 1751.01462605 460.21121661 1751.01462605 460.21121661 1750.04389365 474.664650378 c 2,8,-1
 1746.46533482 527.94654649 l 1,9,-1
 1851.68087931 540.298440681 l 1,10,-1
 1865.56540552 340.595221427 l 2,11,12
 1872 252 1872 252 1920.06342039 203.520916777 c 0,13,14
 1969 155 1969 155 2053.21487947 154.520339018 c 0,15,16
 2137 155 2137 155 2179.98105655 216.453534744 c 128,-1,17
 2223 278 2223 278 2223.51087742 386.579035164 c 0,18,19
 2224.00106409 453.144499636 2224.00106409 453.144499636 2218.33110844 516.852808251 c 2,20,-1
 2215.49700287 548.697161783 l 1,21,-1
 2320.57908403 561.111470594 l 1,22,-1
 2333.96117923 402.844780666 l 2,23,24
 2344 285 2344 285 2398.76025472 219.165107013 c 0,25,26
 2452.98266746 154.020823784 2452.98266746 154.020823784 2549.35191616 154.0000007 c 2,27,-1
 2554.22050807 153.998948714 l 1,28,29
 2557.52636719 141.754299662 2557.52636719 141.754299662 2557.52636719 107.1171875 c 2,30,-1
 2557.52636719 88.5639466462 l 2,31,32
 2558 69 2558 69 2555.81971887 53.7542487632 c 0,33,34
 2554 38 2554 38 2552.76528577 29.943359375 c 1,35,-1
 2551.12865082 29.9433581613 l 2,36,37
 2504 30 2504 30 2467.61964519 37.7558046753 c 0,38,39
 2355 62 2355 62 2306.65527344 198.900390625 c 1,40,41
 2222 30 2222 30 2062.5 30 c 0,42,43
 1883 30 1883 30 1818.63183594 182.716796875 c 1,44,45
 1711 30 1711 30 1542.82612388 29.9189389859 c 4,46,47
 1409 30 1409 30 1320.28529009 119.30686332 c 5,48,-1
 1319.92042366 56.2233175997 l 2,49,50
 1319 -96 1319 -96 1266.90050888 -203.842682161 c 0,51,52
 1126 -490 1126 -490 727.316887448 -489.724612275 c 0,53,54
 424 -490 424 -490 277.710201939 -354.009431399 c 0,55,56
 131 -218 131 -218 131.752908717 61.0084732407 c 0,57,58
 132 251 132 251 209.601575391 450.845560052 c 1,59,-1
 313.261733609 408.119630308 l 1,60,61
 248 228 248 228 248.268561256 62.8802023285 c 0,62,63
 248 -152 248 -152 372.410639053 -262.471303805 c 128,-1,64
 497 -373 497 -373 734.414096776 -373.203121869 c 0,65,66
 889 -373 889 -373 995.457871163 -319.189162075 c 0,67,68
 1102 -265 1102 -265 1155.78747927 -159.223139027 c 0,69,70
 1210 -53 1210 -53 1210.5545997 101.861014858 c 0,71,72
 1211 161 1211 161 1201.89054928 219.451051325 c 0,73,74
 1193 278 1193 278 1175.53797744 337.00922582 c 128,-1,75
 1158 396 1158 396 1131.69527785 454.401810493 c 1,76,-1
 1244.00057115 493.638942835 l 1,77,-1
 1294.43547627 337.831140531 l 2,78,79
 1324 248 1324 248 1387.03242372 201.791387634 c 0,80,81
 1451 155 1451 155 1544.41643856 154.992191365 c 0,0,1
EndSplineSet
EndChar

StartChar: uniFEB3
Encoding: 65203 65203 190
GlifName: uniF_E_B_3
Width: 1569
VWidth: 2952
GlyphClass: 2
Flags: W
AnchorPoint: "Anchor-10" 859.961 1083.67 basechar 0
AnchorPoint: "Anchor-7" 759.534 -236.974 basechar 0
LayerCount: 2
Fore
SplineSet
846.573306975 325.10476626 m 0,0,1
 853 357 853 357 852.95310839 401.423508887 c 0,2,3
 853 406 853 406 852.918852105 410.705633573 c 0,4,5
 853 415 853 415 852.796635709 420.036151639 c 0,6,7
 853 425 853 425 852.586574912 429.414433747 c 128,-1,8
 852 434 852 434 852.288723632 438.841190289 c 0,9,10
 852 444 852 444 851.9032017 448.31570261 c 0,11,12
 852 453 852 453 851.430063032 457.838681102 c 0,13,14
 851 463 851 463 850.86942746 467.409407111 c 0,15,16
 851 472 851 472 850.2213489 477.028591027 c 0,17,18
 850 482 850 482 849.485947183 486.695514197 c 0,19,20
 849 492 849 492 848.663280347 496.410797698 c 2,21,-1
 845.847053702 528.073231547 l 1,22,-1
 950.36038646 540.339432133 l 1,23,-1
 964.248188719 340.577013121 l 2,24,25
 970 252 970 252 1018.79751421 203.533395477 c 0,26,27
 1067 155 1067 155 1151.49980013 154.537928204 c 0,28,29
 1236 155 1236 155 1278.0995207 219.882311295 c 0,30,31
 1320 285 1320 285 1319.98632786 399.394439937 c 0,32,33
 1320 496 1320 496 1283.03855528 633.167183052 c 1,34,-1
 1396.67551707 663.572246727 l 1,35,36
 1437 526 1437 526 1436.02014721 406.24009369 c 0,37,38
 1436 403 1436 403 1436 400.565933747 c 0,39,40
 1436 357 1436 357 1431.04785376 317.976496956 c 128,-1,41
 1426 279 1426 279 1417.20010858 245.937915135 c 0,42,43
 1408 213 1408 213 1394.62193987 184.15345525 c 0,44,45
 1381 156 1381 156 1363.67231475 132.19199728 c 0,46,47
 1346 109 1346 109 1324.51640865 89.7568081909 c 0,48,49
 1302 70 1302 70 1276.42303326 57.1939468618 c 0,50,51
 1251 44 1251 44 1220.17387216 37.6063112985 c 0,52,53
 1190 31 1190 31 1154.72669611 30.993164042 c 0,54,55
 982 31 982 31 917.452148438 182.094726562 c 5,56,57
 809 30 809 30 636.443512997 30 c 0,58,59
 444 31 444 31 375.924804688 188.510742188 c 5,60,61
 286 30 286 30 48.849609375 30 c 2,62,-1
 -6.9384765625 30 l 2,63,64
 -16 30 -16 30 -21.0628320443 32.8211581577 c 0,65,66
 -26 36 -26 36 -30.4936067189 49.1514858278 c 0,67,68
 -34.7781364936 60.4166614543 -34.7781364936 60.4166614543 -34.7783203125 88.3134765625 c 2,69,-1
 -34.7784452421 107.273101513 l 2,70,71
 -35 138 -35 138 -28.6213981088 145.744392398 c 0,72,73
 -22.0007832501 153.999023438 -22.0007832501 153.999023438 -6.9384765625 153.999023438 c 2,74,-1
 51.0040491642 153.999023438 l 2,75,76
 124 154 124 154 178.165759076 172.382892638 c 0,77,78
 233 191 233 191 268.533367305 229.2826937 c 0,79,80
 304 268 304 268 316.280370524 324.843157502 c 0,81,82
 320 344 320 344 322.717478983 401.472280909 c 0,83,84
 323 408 323 408 322.699153372 414.017931615 c 0,85,86
 323 420 323 420 322.480400172 426.944706265 c 0,87,88
 322 433 322 433 322.06273066 440.222745765 c 0,89,90
 322 447 322 447 321.447167001 453.836085922 c 0,91,92
 321 461 321 461 320.63525308 467.753941315 c 0,93,94
 320 475 320 475 319.628011061 481.960347751 c 0,95,96
 319 489 319 489 318.426952222 496.425446135 c 2,97,-1
 315.610725577 528.087879985 l 1,98,-1
 420.124058336 540.35408057 l 1,99,-1
 434.014025378 340.560369776 l 2,100,101
 440 251 440 251 493.431705868 202.449846114 c 0,102,103
 597 108 597 108 737.113003953 173.779170866 c 0,104,105
 780 194 780 194 807.907182757 231.838044782 c 0,106,107
 836 270 836 270 846.573306975 325.10476626 c 0,0,1
EndSplineSet
EndChar

StartChar: uniFEB4
Encoding: 65204 65204 191
GlifName: uniF_E_B_4
Width: 1658
VWidth: 2945
GlyphClass: 2
Flags: W
AnchorPoint: "Anchor-7" 759.534 -236.974 basechar 0
AnchorPoint: "Anchor-10" 873.961 1083.67 basechar 0
LayerCount: 2
Fore
SplineSet
964.249971295 340.551211747 m 2,0,1
 970.435952014 251.571872626 970.435952014 251.571872626 1019.40449051 203.482241011 c 0,2,3
 1068 155 1068 155 1153.37082645 154.578973294 c 0,4,5
 1238 155 1238 155 1280.22554506 215.908478389 c 0,6,7
 1323 277 1323 277 1322.38733204 384.367361472 c 0,8,9
 1322 424 1322 424 1320.92608466 457.228040921 c 0,10,11
 1319.9215262 487.353317341 1319.9215262 487.353317341 1317.29106938 516.909448876 c 2,12,-1
 1314.45696381 548.753802408 l 1,13,-1
 1419.53904497 561.168111219 l 1,14,-1
 1432.9215476 402.896714566 l 2,15,16
 1443 285 1443 285 1497.74318363 219.148561219 c 0,17,18
 1552.01029214 153.987641769 1552.01029214 153.987641769 1648.32160052 153.99804705 c 2,19,-1
 1653.18433402 153.99857241 l 1,20,21
 1656.48632812 131.718524119 1656.48632812 131.718524119 1656.48632812 107.173828125 c 2,22,-1
 1656.48632812 88.4438853566 l 2,23,24
 1656 54 1656 54 1652.24587373 30 c 1,25,-1
 1650.08007812 30 l 2,26,27
 1464.24984078 30 1464.24984078 30 1405.87402344 199.53125 c 5,28,29
 1321 30 1321 30 1154 30 c 0,30,31
 988 30 988 30 915.688476562 179.625 c 1,32,33
 809 30 809 30 636.443512997 30 c 0,34,35
 444 31 444 31 375.924804688 188.510742188 c 1,36,37
 286 30 286 30 48.849609375 30 c 2,38,-1
 -6.9384765625 30 l 2,39,40
 -16 30 -16 30 -21.0628320443 32.8211581577 c 0,41,42
 -26 36 -26 36 -30.4936067189 49.1514858278 c 0,43,44
 -34.7781427585 61.367446263 -34.7781427585 61.367446263 -34.7783203125 88.3134765625 c 2,45,-1
 -34.7784452421 107.273101513 l 2,46,47
 -35 138 -35 138 -28.6213981088 145.744392398 c 0,48,49
 -22.0007832501 153.999023438 -22.0007832501 153.999023438 -6.9384765625 153.999023438 c 2,50,-1
 51.0040484705 153.999023438 l 2,51,52
 161 154 161 154 230.336296563 196.800608638 c 0,53,54
 299 240 299 240 317.268412983 324.786406238 c 0,55,56
 323 352 323 352 322.717405591 401.461259201 c 0,57,58
 323.000068497 445.010553162 323.000068497 445.010553162 318.426952222 496.425446135 c 2,59,-1
 315.610725577 528.087879985 l 1,60,-1
 420.124058336 540.35408057 l 1,61,-1
 434.014025378 340.560369776 l 2,62,63
 440 251 440 251 493.431699725 202.449835475 c 128,-1,64
 547 154 547 154 638.049895485 154.07324572 c 0,65,66
 694 154 694 154 737.609316381 173.775214532 c 0,67,68
 781 194 781 194 808.766175223 231.826466181 c 0,69,70
 837 270 837 270 847.562809645 325.052661264 c 0,71,72
 853 352 853 352 852.95310839 401.423508887 c 0,73,74
 853 406 853 406 852.918852105 410.705633573 c 0,75,76
 853 415 853 415 852.796635709 420.036151639 c 0,77,78
 853 425 853 425 852.586574912 429.414433747 c 128,-1,79
 852 434 852 434 852.288723632 438.841190289 c 0,80,81
 852 444 852 444 851.9032017 448.31570261 c 0,82,83
 852 453 852 453 851.430063032 457.838681102 c 0,84,85
 851 463 851 463 850.86942746 467.409407111 c 0,86,87
 851 472 851 472 850.2213489 477.028591027 c 0,88,89
 850 482 850 482 849.485947183 486.695514197 c 0,90,91
 849 492 849 492 848.663280347 496.410797698 c 2,92,-1
 845.847053702 528.073231547 l 1,93,-1
 950.36038646 540.339432133 l 1,94,-1
 964.249971295 340.551211747 l 2,0,1
EndSplineSet
EndChar

StartChar: uniFEBA
Encoding: 65210 65210 197
GlifName: uniF_E_B_A_
Width: 2616
VWidth: 2952
GlyphClass: 2
Flags: W
AnchorPoint: "Anchor-7" 671.902 -756.086 basechar 0
AnchorPoint: "Anchor-10" 2048.53 1213.1 basechar 0
LayerCount: 2
Fore
SplineSet
1449.61131205 197.839463377 m 2,0,1
 1785.9477333 766.718394205 1785.9477333 766.718394205 2108.840253 761.429828311 c 0,2,3
 2178.21970207 760.290105993 2178.21970207 760.290105993 2234.3408175 741.278008319 c 128,-1,4
 2290.46193294 722.265910646 2290.46193294 722.265910646 2334.85986083 685.438086926 c 0,5,6
 2454.96770221 585.923640341 2454.96770221 585.923640341 2454.59656505 423.776241081 c 0,7,8
 2454.96702978 312.824295561 2454.96702978 312.824295561 2390.76628973 225.804675963 c 2,9,-1
 2375.09150156 204.558595261 l 1,10,-1
 2394.17399612 186.311586448 l 2,11,12
 2416.42034088 165.039249781 2416.42034088 165.039249781 2462.70445418 159.51962489 c 128,-1,13
 2508.98856747 154 2508.98856747 154 2605.73828125 154 c 2,14,-1
 2611.18465965 154 l 1,15,16
 2614.49316406 137.894548148 2614.49316406 137.894548148 2614.49316406 107.174804688 c 2,17,-1
 2614.49316406 88.3894344899 l 2,18,19
 2614.27590037 49.4863272025 2614.27590037 49.4863272025 2610.25241054 30 c 1,20,-1
 2600.2265625 30 l 2,21,22
 2485.41312635 30 2485.41312635 30 2403.72537588 50.7669463724 c 128,-1,23
 2322.03762541 71.5338927449 2322.03762541 71.5338927449 2273.99345785 110.904332269 c 2,24,-1
 2258.14074363 123.895052229 l 1,25,-1
 2240.27548248 113.850163123 l 2,26,27
 2167.24220296 72.7866047668 2167.24220296 72.7866047668 2047.3803658 51.3933023834 c 128,-1,28
 1927.51852864 30 1927.51852864 30 1763.15136719 30 c 2,29,-1
 1712.34082031 30 l 2,30,31
 1591.04515898 30 1591.04515898 30 1503.02845714 43.6345687056 c 128,-1,32
 1415.01175531 57.2691374111 1415.01175531 57.2691374111 1363.24302535 82.9290701883 c 2,33,-1
 1320.19828905 104.264827137 l 1,34,-1
 1319.92042366 56.2233175997 l 2,35,36
 1319.03973241 -96.0437107818 1319.03973241 -96.0437107818 1266.90050888 -203.842682161 c 0,37,38
 1126.3197966 -489.987694807 1126.3197966 -489.987694807 727.316887448 -489.724612275 c 0,39,40
 424.029249052 -489.8579646 424.029249052 -489.8579646 277.710201939 -354.009431399 c 128,-1,41
 131.391154826 -218.160898197 131.391154826 -218.160898197 131.752908717 61.0084732407 c 0,42,43
 131.977260107 250.750336397 131.977260107 250.750336397 209.601575391 450.845560052 c 1,44,-1
 313.261733609 408.119630308 l 1,45,46
 248.011252112 227.811620251 248.011252112 227.811620251 248.268561256 62.8802023285 c 0,47,48
 248.126479044 -151.845284801 248.126479044 -151.845284801 372.410639053 -262.471303805 c 128,-1,49
 496.694799062 -373.097322809 496.694799062 -373.097322809 734.414096776 -373.203121869 c 0,50,51
 889.353568105 -373.132334402 889.353568105 -373.132334402 995.457871163 -319.189162075 c 128,-1,52
 1101.56217422 -265.245989749 1101.56217422 -265.245989749 1155.78747927 -159.223139027 c 128,-1,53
 1210.01278431 -53.2002883051 1210.01278431 -53.2002883051 1210.5545997 101.861014858 c 0,54,55
 1210.69651997 160.522637502 1210.69651997 160.522637502 1201.89054928 219.451051325 c 128,-1,56
 1193.08457858 278.379465148 1193.08457858 278.379465148 1175.53797744 337.00922582 c 128,-1,57
 1157.99137629 395.638986492 1157.99137629 395.638986492 1131.69527785 454.401810493 c 1,58,-1
 1244.00057115 493.638942835 l 1,59,-1
 1294.42986836 337.84862971 l 2,60,61
 1309.0684564 292.147671945 1309.0684564 292.147671945 1325.58523317 260.590301999 c 128,-1,62
 1342.10200994 229.032932054 1342.10200994 229.032932054 1366.53012673 207.615294158 c 128,-1,63
 1390.95824351 186.197656262 1390.95824351 186.197656262 1420.84458635 183.252077995 c 2,64,-1
 1439.87777857 181.376179104 l 1,65,-1
 1449.61131205 197.839463377 l 2,0,1
2112.3440926 634.572416952 m 0,66,67
 1985.86253043 635.360039171 1985.86253043 635.360039171 1856.2959817 525.85985016 c 128,-1,68
 1726.72943298 416.359661149 1726.72943298 416.359661149 1589.34813631 200.525976678 c 2,69,-1
 1559.97077971 154.372509881 l 1,70,-1
 1614.68064718 154.417002108 l 1,71,-1
 1758.78158373 154.534190717 l 2,72,73
 2331.91409917 155.025639676 2331.91409917 155.025639676 2332.66096603 415.273990361 c 0,74,75
 2332.8520986 472.594480532 2332.8520986 472.594480532 2309.88548537 518.583828238 c 128,-1,76
 2286.91887214 564.573175944 2286.91887214 564.573175944 2242.03507625 595.58194924 c 0,77,78
 2186.46330682 633.917560937 2186.46330682 633.917560937 2112.3440926 634.572416952 c 0,66,67
EndSplineSet
EndChar

StartChar: uniFEBB
Encoding: 65211 65211 198
GlifName: uniF_E_B_B_
Width: 1680
VWidth: 2952
GlyphClass: 2
Flags: W
AnchorPoint: "Anchor-10" 1118.91 1202.52 basechar 0
AnchorPoint: "Anchor-7" 699.209 -240.348 basechar 0
LayerCount: 2
Fore
SplineSet
1547.57923506 423.883713281 m 0,0,1
 1546.85084948 228.402949598 1546.85084948 228.402949598 1378.04535551 129.201474799 c 128,-1,2
 1209.23986154 30 1209.23986154 30 856.133789062 30 c 2,3,-1
 805.323242188 30 l 2,4,5
 452.031637443 30 452.031637443 30 374.110090247 160.553938586 c 2,6,-1
 350.905026289 199.432947075 l 1,7,-1
 324.148338302 162.907176141 l 2,8,9
 226.788152539 30 226.788152539 30 9.984375 30 c 2,10,-1
 -6.9384765625 30 l 2,11,12
 -15.9167709632 30 -15.9167709632 30 -21.0628320443 32.8211581577 c 128,-1,13
 -26.2088931254 35.6423163154 -26.2088931254 35.6423163154 -30.4936067189 49.1514858278 c 128,-1,14
 -34.7783203125 62.6606553402 -34.7783203125 62.6606553402 -34.7783203125 88.3134765625 c 2,15,-1
 -34.7784452421 107.273101513 l 2,16,17
 -34.865292815 137.366359391 -34.865292815 137.366359391 -28.4675357878 145.683179696 c 128,-1,18
 -22.0697787606 154 -22.0697787606 154 -5.9384765625 154 c 2,19,-1
 10.1103515625 154 l 2,20,21
 127.729252032 154 127.729252032 154 199.475683878 192.444821581 c 128,-1,22
 271.222115725 230.889643162 271.222115725 230.889643162 286.033298631 310.633329982 c 0,23,24
 298.123068394 373.797787379 298.123068394 373.797787379 289.937465817 495.690757251 c 2,25,-1
 286.359619243 548.968978451 l 1,26,-1
 391.803322302 561.347657567 l 1,27,-1
 407.250315932 360.421863776 l 2,28,29
 412.63700003 288.298395374 412.63700003 288.298395374 437.067162468 242.304853718 c 128,-1,30
 461.497324907 196.311312061 461.497324907 196.311312061 509.317115998 184.047802006 c 2,31,-1
 531.143413308 178.450391177 l 1,32,-1
 542.60132567 197.852311353 l 2,33,34
 878.560856906 766.739539781 878.560856906 766.739539781 1201.82273352 761.429827348 c 0,35,36
 1338.96184438 759.17725971 1338.96184438 759.17725971 1427.8438055 685.43682531 c 0,37,38
 1547.96629088 585.923598645 1547.96629088 585.923598645 1547.57923506 423.883713281 c 0,0,1
1205.26113815 634.572994313 m 0,39,40
 1079.22731062 634.808793446 1079.22731062 634.808793446 949.771337849 525.392803555 c 128,-1,41
 820.315365079 415.976813664 820.315365079 415.976813664 682.375663809 200.59662208 c 2,42,-1
 652.771452904 154.372362076 l 1,43,-1
 707.663069053 154.417002108 l 1,44,-1
 851.764004771 154.534190716 l 2,45,46
 960.747224379 154.627638489 960.747224379 154.627638489 1048.8275084 163.826221819 c 128,-1,47
 1136.90779241 173.024805149 1136.90779241 173.024805149 1207.84035691 192.872336621 c 128,-1,48
 1278.7729214 212.719868092 1278.7729214 212.719868092 1326.53123672 243.060907902 c 128,-1,49
 1374.28955204 273.401947713 1374.28955204 273.401947713 1399.88934567 316.730271898 c 128,-1,50
 1425.48913929 360.058596083 1425.48913929 360.058596083 1425.64337016 415.268801389 c 0,51,52
 1426.05525479 532.701060536 1426.05525479 532.701060536 1335.02172586 595.579032254 c 0,53,54
 1279.46608411 633.917558417 1279.46608411 633.917558417 1205.26113815 634.572994313 c 0,39,40
EndSplineSet
EndChar

StartChar: uniFEBC
Encoding: 65212 65212 199
GlifName: uniF_E_B_C_
Width: 1719
VWidth: 2952
GlyphClass: 2
Flags: W
AnchorPoint: "Anchor-7" 699.209 -240.348 basechar 0
AnchorPoint: "Anchor-10" 1148.91 1202.52 basechar 0
LayerCount: 2
Fore
SplineSet
1547.57927236 423.690706625 m 0,0,1
 1547.77392171 367.829053382 1547.77392171 367.829053382 1531.90747937 318.69637379 c 128,-1,2
 1516.04103702 269.563694198 1516.04103702 269.563694198 1483.75084545 225.80756787 c 2,3,-1
 1468.06608868 204.553305661 l 1,4,-1
 1487.16400348 186.304335625 l 2,5,6
 1509.41687981 165.040649105 1509.41687981 165.040649105 1555.70467126 159.520324553 c 128,-1,7
 1601.9924627 154 1601.9924627 154 1698.72070312 154 c 2,8,-1
 1704.16708153 154 l 1,9,10
 1707.47558594 137.894548146 1707.47558594 137.894548146 1707.47558594 107.174804688 c 2,11,-1
 1707.47558594 88.3864486582 l 2,12,13
 1707.37202721 69.1579098397 1707.37202721 69.1579098397 1706.17350701 53.7719939749 c 128,-1,14
 1704.97498681 38.3860781101 1704.97498681 38.3860781101 1703.24360712 30 c 1,15,-1
 1693.20898438 30 l 2,16,17
 1465.72051606 30 1465.72051606 30 1366.97401139 110.905863181 c 2,18,-1
 1351.1208021 123.894855414 l 1,19,-1
 1333.2566453 113.849455167 l 2,20,21
 1184.14364059 30 1184.14364059 30 856.133789062 30 c 2,22,-1
 805.323242188 30 l 2,23,24
 628.085384796 30 628.085384796 30 520.476449915 64.2472135891 c 128,-1,25
 412.867515035 98.4944271782 412.867515035 98.4944271782 373.796354915 161.067799692 c 2,26,-1
 350.330586303 198.648774409 l 1,27,-1
 324.148338302 162.907176141 l 2,28,29
 226.788152539 30 226.788152539 30 9.984375 30 c 2,30,-1
 -6.9384765625 30 l 2,31,32
 -15.9167709632 30 -15.9167709632 30 -21.0628320443 32.8211581577 c 128,-1,33
 -26.2088931254 35.6423163154 -26.2088931254 35.6423163154 -30.4936067189 49.1514858278 c 128,-1,34
 -34.7783203125 62.6606553402 -34.7783203125 62.6606553402 -34.7783203125 88.3134765625 c 2,35,-1
 -34.7784452421 107.273101513 l 2,36,37
 -34.8656506178 137.490340419 -34.8656506178 137.490340419 -28.6213280105 145.74517021 c 128,-1,38
 -22.3770054032 154 -22.3770054032 154 -6.9384765625 154 c 2,39,-1
 9.1103515625 154 l 2,40,41
 127.218040805 154 127.218040805 154 199.216048747 192.423126581 c 128,-1,42
 271.214056689 230.846253162 271.214056689 230.846253162 286.033298631 310.633329982 c 0,43,44
 298.123068394 373.797787379 298.123068394 373.797787379 289.937465817 495.690757251 c 2,45,-1
 286.359619243 548.968978451 l 1,46,-1
 391.803322302 561.347657567 l 1,47,-1
 407.250315932 360.421863776 l 2,48,49
 412.63700003 288.298395374 412.63700003 288.298395374 437.067162468 242.304853718 c 128,-1,50
 461.497324907 196.311312061 461.497324907 196.311312061 509.317115998 184.047802006 c 2,51,-1
 531.091130011 178.463799364 l 1,52,-1
 542.566131902 197.792873406 l 2,53,54
 880.292096283 766.675583261 880.292096283 766.675583261 1201.82604633 761.429773117 c 0,55,56
 1339.87727323 759.177474327 1339.87727323 759.177474327 1427.78561274 685.484945291 c 0,57,58
 1547.04610311 586.843196127 1547.04610311 586.843196127 1547.57927236 423.690706625 c 0,0,1
1205.45938765 634.571243219 m 0,59,60
 1079.92084004 636.465514856 1079.92084004 636.465514856 950.33886628 526.934062817 c 128,-1,61
 820.756892518 417.402610779 820.756892518 417.402610779 682.350713056 200.557597467 c 2,62,-1
 652.872005834 154.372443849 l 1,63,-1
 707.663069053 154.417002108 l 1,64,-1
 851.764004771 154.534190716 l 2,65,66
 960.747224379 154.627638489 960.747224379 154.627638489 1048.8275084 163.826221819 c 128,-1,67
 1136.90779241 173.024805149 1136.90779241 173.024805149 1207.84035691 192.872336621 c 128,-1,68
 1278.7729214 212.719868092 1278.7729214 212.719868092 1326.53123672 243.060907902 c 128,-1,69
 1374.28955204 273.401947713 1374.28955204 273.401947713 1399.88934567 316.730271898 c 128,-1,70
 1425.48913929 360.058596083 1425.48913929 360.058596083 1425.64337016 415.268801389 c 0,71,72
 1426.05525479 532.701060536 1426.05525479 532.701060536 1335.02172586 595.579032254 c 0,73,74
 1279.46608411 633.917558417 1279.46608411 633.917558417 1205.45938765 634.571243219 c 0,59,60
EndSplineSet
EndChar

StartChar: uniFEC2
Encoding: 65218 65218 205
GlifName: uniF_E_C_2
Width: 1515
VWidth: 2952
GlyphClass: 2
Flags: W
AnchorPoint: "Anchor-7" 641.602 -236.453 basechar 0
AnchorPoint: "Anchor-10" 475.36 1544.78 basechar 0
LayerCount: 2
Fore
SplineSet
1003.10349526 761.426406258 m 0,0,1
 1071.88087426 760.757895119 1071.88087426 760.757895119 1127.92536589 741.773031412 c 128,-1,2
 1183.96985752 722.788167705 1183.96985752 722.788167705 1228.95202179 685.42791285 c 0,3,4
 1348.05393781 586.843429655 1348.05393781 586.843429655 1348.6778526 423.706793611 c 0,5,6
 1348.97385814 318.269619653 1348.97385814 318.269619653 1284.1844274 223.907586533 c 2,7,-1
 1273.92759101 208.9691016 l 1,8,-1
 1282.37671277 192.938712764 l 2,9,10
 1286.25382129 185.582734377 1286.25382129 185.582734377 1292.02029042 179.803121676 c 128,-1,11
 1297.78675956 174.023508976 1297.78675956 174.023508976 1307.19521304 169.943561979 c 128,-1,12
 1316.60366652 165.863614982 1316.60366652 165.863614982 1324.63065769 162.927332893 c 128,-1,13
 1332.65764886 159.991050805 1332.65764886 159.991050805 1347.53309604 158.250915922 c 128,-1,14
 1362.40854322 156.510781039 1362.40854322 156.510781039 1372.19988551 155.486331468 c 128,-1,15
 1381.9912278 154.461881898 1381.9912278 154.461881898 1401.83749776 154.130061034 c 128,-1,16
 1421.68376772 153.798240171 1421.68376772 153.798240171 1432.74329022 153.754125023 c 128,-1,17
 1443.80281272 153.710009876 1443.80281272 153.710009876 1468.12373455 153.855004938 c 128,-1,18
 1492.44465638 154 1492.44465638 154 1504.70800781 154 c 2,19,-1
 1509.9280321 154 l 1,20,21
 1511.5870541 145.775091911 1511.5870541 145.775091911 1512.47792313 134.238055026 c 128,-1,22
 1513.36879215 122.701018141 1513.36879215 122.701018141 1513.46289062 107.08345142 c 2,23,-1
 1513.46289062 88.3134765625 l 2,24,25
 1513.46289062 49.007606325 1513.46289062 49.007606325 1509.46689451 29.9990234375 c 1,26,-1
 1499.19628906 29.9990234375 l 2,27,28
 1372.65724921 29.9990234375 1372.65724921 29.9990234375 1285.97273722 49.5313248524 c 128,-1,29
 1199.28822522 69.0636262673 1199.28822522 69.0636262673 1154.807558 105.022392914 c 2,30,-1
 1139.39348087 117.483339146 l 1,31,-1
 1121.88497494 108.192420189 l 2,32,33
 973.485264857 30.1763617345 973.485264857 30.1763617345 658.232474479 29.9990234375 c 2,34,-1
 131.302734375 29.9999473958 l 1,35,-1
 131.302734375 154.242795644 l 1,36,-1
 321.843130615 154.376957918 l 1,37,-1
 323.570669678 154.377934481 l 1,38,-1
 340.231614147 154.38735277 l 1,39,-1
 349.029749077 168.535850255 l 1,40,-1
 420.114710014 282.849326817 l 1,41,-1
 424.638671875 290.124421315 l 1,42,-1
 424.638671875 298.69140625 l 1,43,-1
 424.638671875 1378.87304688 l 1,44,-1
 538.950195312 1378.87304688 l 1,45,-1
 538.950195312 544.208984375 l 1,46,-1
 538.950195312 458.75798432 l 1,47,-1
 592.366333638 525.455732233 l 2,48,49
 783.28186731 763.841293913 783.28186731 763.841293913 1003.10349526 761.426406258 c 0,0,1
1005.93440014 634.571157785 m 0,50,51
 752.203422923 631.819616384 752.203422923 631.819616384 484.284371644 200.359032116 c 2,52,-1
 455.828440616 154.533203125 l 1,53,-1
 509.770507812 154.533203125 l 1,54,-1
 653.862743746 154.533214245 l 2,55,56
 1225.90358126 155.025735558 1225.90358126 155.025735558 1226.74209097 415.296941571 c 0,57,58
 1226.88755036 472.63549134 1226.88755036 472.63549134 1203.93275633 518.595605904 c 128,-1,59
 1180.97796231 564.555720468 1180.97796231 564.555720468 1136.05779044 595.621344595 c 0,60,61
 1078.15418605 635.063044739 1078.15418605 635.063044739 1005.93440014 634.571157785 c 0,50,51
EndSplineSet
EndChar

StartChar: uniFEC3
Encoding: 65219 65219 206
GlifName: uniF_E_C_3
Width: 1300
VWidth: 2952
GlyphClass: 2
Flags: W
AnchorPoint: "Anchor-7" 481.602 -236.453 basechar 0
AnchorPoint: "Anchor-10" 292.36 1553.78 basechar 0
LayerCount: 2
Fore
SplineSet
1167.01562495 423.77949648 m 0,0,1
 1167.01562495 228.360206875 1167.01562495 228.360206875 998.239265166 129.169946551 c 128,-1,2
 829.462905381 29.9796862261 829.462905381 29.9796862261 475.571041114 29.9882812412 c 2,3,-1
 -6.9384765625 30 l 2,4,5
 -15.9167709632 30 -15.9167709632 30 -21.0628320443 32.8211581577 c 128,-1,6
 -26.2088931254 35.6423163154 -26.2088931254 35.6423163154 -30.4936067189 49.1514858278 c 128,-1,7
 -34.7783203125 62.6606553402 -34.7783203125 62.6606553402 -34.7783203125 88.3134765625 c 2,8,-1
 -34.7784452421 107.273101513 l 2,9,10
 -34.8656523577 137.490943307 -34.8656523577 137.490943307 -28.6220745657 145.745471654 c 128,-1,11
 -22.3784967736 154 -22.3784967736 154 -6.943359375 154 c 2,12,-1
 139.16796875 154 l 1,13,-1
 155.474152195 154 l 1,14,-1
 164.342804673 167.683516425 l 1,15,-1
 238.151398423 281.563399237 l 1,16,-1
 242.9765625 289.008184346 l 1,17,-1
 242.9765625 297.879882812 l 1,18,-1
 242.9765625 1378.87402344 l 1,19,-1
 356.288085938 1378.87402344 l 1,20,-1
 356.288085938 544.198242188 l 1,21,-1
 356.288085938 459.76146942 l 1,22,-1
 409.562942569 525.269928771 l 2,23,24
 601.291252222 761.025160671 601.291252222 761.025160671 821.660918567 761.413855264 c 0,25,26
 957.508536497 760.349774706 957.508536497 760.349774706 1047.24369028 685.455508221 c 0,27,28
 1107.66506686 635.238640839 1107.66506686 635.238640839 1137.34034591 570.539951458 c 128,-1,29
 1167.01562495 505.841262077 1167.01562495 505.841262077 1167.01562495 423.77949648 c 0,0,1
824.631391492 634.561840315 m 0,30,31
 696.941309474 634.252166526 696.941309474 634.252166526 567.436323895 524.82794389 c 128,-1,32
 437.931338315 415.403721254 437.931338315 415.403721254 301.759454253 200.584077282 c 2,33,-1
 272.5614863 154.522460938 l 1,34,-1
 327.09765625 154.522460938 l 1,35,-1
 471.201148018 154.522472504 l 2,36,37
 1044.98956308 155.026322609 1044.98956308 155.026322609 1045.08006881 415.385941025 c 0,38,39
 1044.98763998 532.6995545 1044.98763998 532.6995545 954.444552728 595.576983352 c 0,40,41
 940.383750744 605.196158892 940.383750744 605.196158892 925.071454006 612.46915472 c 128,-1,42
 909.759157268 619.742150548 909.759157268 619.742150548 893.470814431 624.577898049 c 128,-1,43
 877.182471595 629.41364555 877.182471595 629.41364555 859.966942373 631.908822977 c 128,-1,44
 842.751413152 634.404000404 842.751413152 634.404000404 824.631391492 634.561840315 c 0,30,31
EndSplineSet
EndChar

